<mxfile host="app.diagrams.net" agent="Mozilla/5.0 (Macintosh; Intel Mac OS X 10_15_7) AppleWebKit/605.1.15 (KHTML, like Gecko) Version/18.3 Safari/605.1.15" version="28.1.2">
  <diagram name="第 1 页" id="ogFBhODr9JazhIsnz_yK">
    <mxGraphModel dx="2257" dy="998" grid="1" gridSize="10" guides="1" tooltips="1" connect="1" arrows="1" fold="1" page="1" pageScale="1" pageWidth="827" pageHeight="1169" math="0" shadow="0">
      <root>
        <mxCell id="0" />
        <mxCell id="1" parent="0" />
        <mxCell id="RDkZVvZF06zk_Bv5mJ8z-4" value="without optional details" style="shape=image;verticalLabelPosition=bottom;labelBackgroundColor=default;verticalAlign=top;aspect=fixed;imageAspect=0;image=data:image/png,iVBORw0KGgoAAAANSUhEUgAAAMgAAAEsCAYAAACG+vy+AAAAAXNSR0IArs4c6QAAAERlWElmTU0AKgAAAAgAAYdpAAQAAAABAAAAGgAAAAAAA6ABAAMAAAABAAEAAKACAAQAAAABAAAAyKADAAQAAAABAAABLAAAAACNU48vAAAeiUlEQVR4Ae1daYwcx3V+03PvMbP3Lvc+SS5P8RBFiZJDW5Ys2LEtIVASC/ERJHECOwkCIwEC/7Dj/AhyAP4RxwbixEB8xIZsILKiRLANyZZkyaEkWhJviVweu1wu9764x+zOTE/qzXL2mO2ZqZ7pnpnu+Qpobk/Vq1fvfa8/VtfR3URIQAAIAAEgAASAABAAAkAACAABIAAEgAAQAAJAAAgAASAABIAAEAACQAAIAAEgAASAABAAAkAACAABIAAEgAAQAAJAAAgAASAABIAAEAACQAAIAAEgAASAABAAAkAACBiFwMjI6TKjdEEPEMgGAaOvQUc2RiTqzA9fqo0oyh6XouwUeT0xBwUdFHMlyvEXCOQbgRg5Io4YzYl2r0ZU9bJLVS8GWvunsrUjK4LErlzxzlbQcafiOEak9mbbOOoBAfMRUAaiauyNqiY65XD0rehtTzdBYtev++Z8Kx9VFOWDehuDPBAoFAKqqr4QDHmfc3R1hfTYoOgRjsWueEEOPYhBtlgQ4P/Q+drlux89NukiyOwoHUfPoQdeyBYTAnzt8tBAj03SBOEB+dqYQ496yAKB4kKAr2G+lmWtkiYIz1ZhQC4LK+SKFwG1d+1alrNQmiB3p3LltEIKCBQxAnquZWmCCH97ithnmAYE9CAgfS1LEYRXJ3kRUI8FkAUCxYoAX8uyK+5SBGluPrqEFfJiDTfs0osAX8t8TcvUkyKIjCLIAAE7IgCC2DGq8MkwBEAQw6CEIjsiAILYMarwyTAEQBDDoIQiOyIAgtgxqvDJMARAEMOghCI7IgCC2DGq8MkwBEAQw6CEIjsiAILYMarwyTAEQBDDoIQiOyIAgtgxqvDJMARAEMOghCI7IgCC2DGq8MkwBEAQw6CEIjsiAILYMarwyTAEQBDDoIQiOyIAgtgxqvDJMARAEMOghCI7IgCC2DGq8MkwBEAQw6CEIjsiAILYMarwyTAEQBDDoIQiOyIAgtgxqvDJMARAEMOghCI7IgCC2DGq8MkwBEAQw6CEIjsiAILYMarwyTAEQBDDoIQiOyIAgtgxqvDJMARAEMOghCI7IgCC2DGq8MkwBEAQw6CEIjsiAILYMarwyTAEQBDDoIQiOyIAgtgxqvDJMARAEMOghCI7IgCC2DGq8MkwBEAQw6A0TlFodVXhwziN0JQtAq5sK6Jebgi8+PrZ2tPnB2ouXx+uHh6dCoxOzVbO31nyzy8t+yKRqJO1u1zOaKDMHwpUli031VbdaW2qnd/Z1TpzdF/v9MP3HZjKzQLUlkEABJFByQCZqbk77h/95LWW19661HRhYKhxYOh2Yya14XDEJepV8HF9eKyezmzU6G3fMba3t33sxOH+0ScfO3GrNlgZ3ijFmVEIOGQVzY9d/ldZWchtIPDqry9W//Anr3b+8q1L7VclSLFRU/6sR5DlocP9Q7/92IM3HjyyZ0a+ZulKBhp3/rGM9yCIDEpZyPAt1Pefe6nnpTcvdE9MzwWyUKG7Sn1NcP7kvXuvPfXRk1dxC5YePhAkPT6mld4am/J+9dvP7v7fl07vHJmYrjatoTSKm+trZj5y8ujlL3z64++2NNaupBEt2SIQpACh/48fv9j23Wdf6n/z/JXOAjS/rcl79/Xd+OTHT176zOMP39xWWOIZsgTBIN2AC0UVOr741e/s++FPX9s3mafbKRmzmajXR8Zr3r126/zffeFT5zFvLIPaVhkQZCseun9dGx7zf+XrPzj4zAunDuiunIcKTNhv/OD5B25PTFd8+fOfONPd2rich2Zt0wQIkkMo37p4NfCVbzx96Bevn92Vg5q8VGUCz95Z8n75c7/z9uE9PfN5adQGjaDXzTKITI4vfe0HR6xAjoSLbCvbzLYn8vA3PQIgSHp8NEvjt1Wi53jl9Pk+TYEizmSbuddjH4rYzKIxDQTRGQoekPOYw0o9R7KLbDv7wL4gpUcABEmPz7ZSnq0q1gH5NmPTZLAP7EsaERQJBEAQHZcBr3PwVK6OKkUtyr6wT0VtZIGNA0EkA8Ar5LwIWEzrHJKmpxRjX9gn9i2lUIkXgCCSFwBvHymWFXJJk6XE2Cf2TUq4BIVAEImg88ZD3lslIWpJEfaNfbSk8SYbDYJIAMy7cgu18VDCvJxF2Df2MWdFNlQAgmQIKj/PwVvWM4hZvph9ZF8t74jBDoAgGQDlh53y9TxHBlNMLWYf2VdTG7GgchAkTdD4MVl+EjCNiK2K2Ff22VZO5egMCJIGQH6G3KzHZNM0W7Ai9pV9LpgBRdgwCJImKPyChTTFphUpDgfxUYhUKJ8L4atMm9jungYlfvtImuKcirpqKmhvU5B66yqpq6ac2qrKqK7cJw4veV1r/2+tRFSaXFwRR4huzi7R9elFGpi8QxdG58T5Qk7tp6psps+p2izmfBAkRXR4XUDm1TwpqmtmH2qppgc66+m+9lo61lFLZe708LudClV4XdQpCHS0bWOZYikcoTcGp+j1oSn61Y0JevuWcS8yYZ/Zd7z0YS2E6SOkGebSyOSXuhnhqd/tpA/t2kEf3NlEJ3saKeDLfQzMxDrZ2xg/5kNheunqGL1weZR++t5tWg5HczabfQdB1mAEQVJcTvzGwxRF0tmP72ulx/e10Qf6TLtTixPuY3tbiY+fXxmjH5+/KY5haRu1BI3wXUuvFfNAkBRR49eBpijKmH28o46ePNhOv3WgLa+DbSbiyd4Geqi7gX50ZohODU5mtFVLIBfftfRZOQ8ESRE9flduiqKU2U7FQZ862iWObuqprUgpZ2YBz34xOQ+31tB3Tl8Tx3WKqjFdTWbju64GLCQMgqQIFr9IOkWRZna7mIX6w+O99Jl7uzXL853JBP3Khw6IAX4FfevUAA2JWTDZpNd3Wb1WlANBUkSN37Keomhb9v4dVfT5Ezvpw/3N28oKnfH7grCNFT76+muX6dztWSlz9PgupdDCQlgo1Agef5sj8QkCjeItWUfErcxfnuwvSnIkDGXiso1sq0xi3/F9kjWkQBCZKyaFDPccf/G+3fR+MeVa7IltZFvZZiR5BEAQDax8Ho/KH6/RKFrP4jHH5x7oo9/oaVjPK/YTtpVtZtvTJfadMUgnUyplIEiKSPOXnVIUEc9W8YD8I3ust6+PbWbb2YdUKZ3vqerYNR8ESRFZ/uxZiiL6tJjGLZbZqlQ2pstn29mHVCmd76nq2DUfBEkRWf4moFbRvWJP1CfFWofVE/vAvmilVL5rydo9DwRJEWH+YGZyEd+W/O6hjoItAibbk8tvXidhX7RutbR8z6UtK9cFQVJEj78mm1z0UXH/zqvUdknsC/uUnLR8T5Ypld9YKEwRaf7U8uYi3pXLGwILnQYm5un7vx6gZ87ciJvyxMFOeupIL/XWZ7d1jH1K3gWc7HuhfS5k++hBUqDP2735U8uJ4kd3rm1ZT/wu1N9vnXqP/v1X79GUeJCKDz7nvGwTb8Nn3xKJfcZW9wQaeDfvBhIaZ/wd8kT2I7uMefqWe4C//clbdOgf/it+8DnnyaRrk/P0/IXtnxvkPC7LNm32bbPP2eqzUz30IGmieeJw/ygX85OAj2z6XzZNlYxFRvcAGRuUEGDf2EdOCZ8lqpWECAiSJsxPPnbiVo+45eDHZHkMkmvKtQforgvQh/dufxk753FZtol9Yx/ZV/Y5Wz12rIdBepqo1gYrww8d7h+6z79cNJut/uD4rjhZkwfpadyQKuLn5BfrW4fYZ6kKJSIEgmQI9Kc+cHiqcfgSP3GUem9GBh2J4kQP8J9vDiSy4n/19AA8W/Wlxw7Hjy1KcvxxpK0m1traP5WjGttVB0EyhHRfY8AZmnDnTI5EM2b1AAn92f6t9Lod9cLXbOvbtR4IkiGy0blZuYcoMuhJFJvVAyT05/L3rq/Xc9Fht7oYpGeIqLp8J5hBxDbFpeSrbNBAkExIrawU5u0Lmewyo7yUfJXEDwTJAJS6EioZgpSSrxnCvl4MgqxDoXESizkoGvVolNgzi31ln5HWEQBB1qHQPomVEEFKyVftaG/PBUG2Y4IcILCOAAiyDoX2icPpXNUusV9uKfkqGz0QJB1SDkeMSoggcV/ZZ6R1BECQdSi0TxSvz5wv1Wg3V9DcUvJVFmgQJBNSXm/JEIRKyddMcb9bDoJkAErxV85lELFNcSn5Khs0ECQDUs5g1ZZn0zOIZ1V8a0b+zet6ZPUakw9f9dpUaHlsVswQAVd17TQ5XSsUjXgziGZV/Ob1Kfrp+RGaFs+Xy6Qa8ZHPD+1rpnu7tN9pJaNDU0b4GPdVs7B0M9GDZIi9uGjmnBWV4xnEsirm3kAPObgRJhLXMbonYR/Z16wcsXElEEQiuM6q2tsSYrpFWqrLpHuOzcqZJFzXyGSWj0baWAhdIIgE6p6GHSMOhxKRELWkCPvGPlrSeJONBkEkAHbtaBl31tQOSojqEuHbJB5T6E1cx8hbLPaNfdRrRynIgyCSUXY3ttyQFJUW49skHnDrIUlikG7kLZYZvkmDUOSCmMWSDJC7s2dwdWRoMDo73SFZRUqMZ6Oaq/zSYwruOYwkh7OqZpB9kzK2BIXQg0gGXXG5I54dbVclxXWJ6bng9cjKGME+sW8ysqUoA4LoiLq3d/dVV13jZR1VilqUfWGfitrIAhsHgugJgNjp6unsfdfh88t9T1mP7jzLsg/sC2H3blrkQZC08Gwv9DS3jXqaOy5uL7FWDvvAvljL6vxbC4Jkgbm3/8BFd1PzhSyqFkUVtp19KApjitwIzGJlESDFqaj+XfvPxlZX/ZHpye4sVBSsiqum7pri/PnelXd+vlfLiAjFyCXesuo/8jff1CovtTwQJMuIK8HqO56+PWdi7571iDcStsqoCasxcqf5/LKMjlxkxG7dYbZ5fOTF7jFaIdW5/eHB8piLAqqbpBzKxRiL1C1Zgnz6r/7ls9nEqMxbvG8BWlrJ9Pj8ZCv9z0Drnz+lTQ7GY9ERoUVnBAS5e3GULEGyIUe+6njODZLn3I0tza3u76TV/casUbpEL7YqbqWQMiOAQXpmjCwtUVdbQ7v6uqi3p4OCwcq4L7Wqhzwx7dDzLdaOqJ++98xL94xPzfkt7bwBxqMHMQDEYlXR2d5Cvd0bvU5zUwMNXBukWnVSHOk3Sb78+rljN26NNT14dO/Fk8f3DRWrj2bbBYKYjXAB9be0bP3wqMftpoZ6+ScRB4fH22dmF4Iz83fKnnj0/ncL6ErBmtbuZwtmDho2CgGf10t+cSQnr0ffJMP8wlLwxVffue/p517Zn6yrFH6DIEUQZZfLSXwYmdSYStMz23fE3FlY1N3MymrE+8s3Lxx+5mf/t1t3ZYtXwC1WAQMYrPBTc32QqgNrj8/OzC/RyMQcLRtg0+pqmEbHJqmmumpdW0hMA4+NT8Z/v3ZxltrrfdQmDpnEJHn1jYsHqwOVS6U0JgFBZK4Ok2SYHO1NG194qyxbu1iN2l47MjpOi0vLVFlZLr5qEKPZuTu0uLjxiiEmyc3xELU1+Ki9sZwe2L02y5XKXb7devX0hT17+tomGmqDRvA4VVNFkw+CFCgUfEuV6Dk2m8B5ikGr7ZUV5dRQV0f1YqrX7/fT8nKIpmZmiJwLdGJPFTkrWskZ6KCFWB0N37xKStkkqUvp9y/ywP1nr7y96/eeOPnOZrvteg6C2DSytdXVdN+RQ7Szp3ubh67KRopOvREnh1LWRAEhsWf3Loqt7qCVofQEcYvtKe9currz2D19gzu7WgTb7J1AEBPiG1peu/vwif+1U6VIJEo85kjcViXkOE8Ve7Zkk1ZbLTua6P0PPkDdHe3xWysej6ysrm1D4d7JUdlLTodCit9HDneAHJ5qcfBYRXxQS/WTuniD/vnJs5omzIcU8aqi+arVoedPRKsefNNZ3T+mKWiTTBCkgIHkATmnxK1WYpCei0l8O/Xw+07Q0YMHt6hZWFyMk6WivJwUnyBgeTs51GlxLsZA6toTt2oktEYeQSBSPKROnRbECZC74Ui8t1FD01Q9eZYC8zeE7lvN4cFnH1GXbr7tbnnUslv/t4Ck8QME0QAlX1lzC8vER0DMZnGaF+ec9K1UxKvE/6kOBun+o0eoo7VtI1OcOZ1OqqupoUg0QtxzEe/DcrhIddeR4nALAYXUlXmKhjZeZK9U9BAtXCV3y0PkrNoZ1+f01ZHD6aVYeJHU5QmKRUNlkYnTR7jQriQBQeKhL8w/5X4vdeyooaZaHgUQjU7N0+DtaQpnaU5tTTV1d3aInkLdooEnBBRFIReTQpCEb+B4VssRjlJEFUthogdRl9be0e1wecjpKSfy+iiy3L1OjoRCpbKDHNzrCILEU3TVF51465BS1jZpx9stLBQmIl+Av22NVdTWWE1ucQHzweecl23y+9amiZfEbNXS3XEQ63IqzjVCiPNIJEILyxGanJ6l4bEJuiPOl8JOmp4XYxTFTU5fUPzxi0fVI+Sq2SM6mu2r8cn2xXuS2Qsdyfl2+I0epIBR3FEX3NY6513bliuXsRpe63tUVaWZOXHLFFWporyMwuFVsVLvErdQc1QWFS9QXJ0iX1SMN/xiStnhoZWIQoshMWkwskydnUHyRcTtU4h7CJXUOzeFXMO6AeqdQVG2ffIqtjjSvC5koxMQxOLBTMyU8WKgx+ui0OoyVQWCFAqt0NjyEo2Pq9RcPk9lkZsUmRsgZZVX0vkmay05/TwOUalJ7HQZX/DS67faxOq6izp3rK3uh0fFdHCVmPUS6yU8SI+IQbq6rPGW0shSBUVFV+R08yDHNgkEKWAob0/OiTHI1t21nKc3+cV07T0H9lJloJJWRW9BSozKxKr8+OgY1TtvEs28QUtRngCIkc/tEAN0cWfN45RYlKILwxQVfxVRp96pksd9i55+XqVPPNJGVa7Z+MJhdEHoyJD4Nstu5GCXQZAMgTez+ObYbHzwvHmQznl6U21NVXzPVTgaFTNhC2J7idjTdes23Rk5Q4/tWaWwa2NtxadsHcCLsXo8RaMOsf7ipHJlkfbVztArL1+n37x/49ZKr012kQdBChjJxeUVunjttpi5mopbsbi8tpiX7TRvwpWoGIOMjo9ReHyQyvYFxIWfKNn4myDGRo7oUARZVDGrdaCrms5d10/Uzbrsco5ZLBtEckrMSCVvbZ+enhM9SSgr76JiJb+nuUIQRtyOlXhCD1LAC8CodRDehPjOmQsUrA6KRUEXzczO0dTcAqlzUboyGqa+JrEYuClp9R6J4rUyBwXLPWLEEhWbT0o7gSAFjH9iHSRhAq+D8BRtNtO8/CDU2NTW6ddwWTs9/fINeupkPXU3yt24MUG8HrFPSwzaFcfGbFfCxlL7i1usAkY81TqIUSZ5fX5a8vfSd19ZoO/9YpzODoZoNaIxIBENMjH4cIgug3fbO8WMFhJmsWx/DbjEixqi7k46N7NMr744TZevDVNnUwUd668hfj+WS+zDcvIO37v3UvzXJcjhFD0IEghS0GvAqHUQGSe8Yut9g7+FPvf42tYRVeVpXXHEeSD2ZQli8JcQ+LaKb6+Q1hDAGKSAV4JR6yDZuBAfY4AIGaEDQTJCZJ6AWesg5llceppBEBNintgfZYLqlCojYXxmMCU4ORSAIDmAl2tVo9ZB2I5IJBwfTyji4Sgk4xAAQYzDUrcmI9dBlsXrfbwVFbptQIX0CGAdJD0+ppYatQ7CL27wl6V+QYSpTthcOQhigwBz71GIcY8NoMvoAgiSESLzBLSe/dDKS2cBD87Re6RDKLcyjEFywy+n2kasg7jcCGFOQchQGehmAMjMYqPWQUAS86KEWyzzsIVmGyCAHqSAQTRyHaSAbti6aRCkgOE1ch2kgG7YumncYhUwvEatgxTQBds3DYLYPsRwMBcEQJBc0Muxrtaah1Zejs2geg4IYAySA3i5VjViHSRXG1A/PQIgSHp8TC01ah3EVCNLXDkIUgQXQOKFcUVgCkxIQgBjkCRA8BMIbEYABNmMBs6BQBICIEgSIPgJBDYjAIJsRgPnQCAJARAkCRD8BAKbEQBBNqOBcyCQhAAIkgQIfgKBzQiAIJvRwDkQSEIABEkCBD+BwGYEQJDNaOAcCCQhAIIkAYKfQGAzAiDIZjRwDgSSEABBkgDBTyCwGYGS3c377X/6029uBiLd+R/99dc+63KtfXgmnVyhy8q8ct8hLLSdVmofPYiVogVb844ACJJ3yNGglRAAQawULdiadwRAkLxDjgathAAIYqVowda8IwCC5B1yNGglBEAQK0ULtuYdARAk75CjQSshAIJYKVqwNe8IgCB5hxwNWgkBEMRK0crR1gqvSuGoI0ct2tUdTt8SRcO2+0g7CKIdb1vmLqwoNLlo0vY7V9kCOd1RuwEHgtgtohn8uThqzqZLR3nzSIamLVkMglgybNkbfeaW3/BehG+vXFV7B7O3qnhrgiDFGxtTLBueddMvr5ZTRDVoLOL0hJz1h992VvePmWJwgZWCIAUOQCGaZ4I8ey6Qc08yH1LIVX/01+6WRy8Uwo98tGnSiC0fpqONXBB47Vo5jc67aXdjiDpqwtRRvUpuZyyjSibF9KJCVybcdH7EQ188YV9yMBggSMZLwr4CVyc9xAenSGRFylEmkVlTxVIG5FkIt1h5BtzqzZUSOThWIIjVr1jYbyoCIIip8EK51REAQaweQdhvKgIgiKnwQrnVEQBBrB5B2G8qAiCIqfBCudURAEGsHkHYbyoCIIip8EK51REAQaweQdhvKgIgiKnwQrnVEQBBrB5B2G8qAiCIqfBCudURAEGsHkHYbyoCIIip8EK51REAQaweQdhvKgIgiKnwQrnVEQBBrB5B2G8qAiCIqfBCudURAEGsHkHYbyoCIIip8EK51REAQaweQdhvKgIgiKnwQrnVEQBBLBJB9/VRi1hqLzNBEIvE07EQoorvv0zOsVmLWGwPM0EQi8XR/+IZ8py7YTGrrWsuCFKEsXOOp+8lPOcGQZI8xQ0EyRPQeprBbZQetMyVBUHMxVe3dtw+6YbM1AogiKnw6lfOt08yaXV/p4wYZHJEAATJEUAjq8v2Hqv7O4xsFrrSIACCpAEn30XoPfKNeOb2QJDMGOVFAr1HXmDW3QgIohsycyqg9zAH11y1giC5ImhAffQeBoBokgoQxCRg9ahF76EHrfzK4iOeknjLfuRSUt26mO/C8Pp5upNIQ0D6Q5vp9KBMHwLoQfThZbi0NEHqA4a3DYWZEQBBMmNkmoQsOUwzAIozIgCCZITIPAHXxLx5yqHZEARAEENg1K+Eew/XOAiiH7n81gBBJPB2OCgmIVaSIpFozGFnxzGLJRFdv9+7tLS0Ui4hKi0S2ttKfGgl7l2sMD7x+TzLZPP/YkEQrSs0Ka/cBIIkNbHlZzrybBEs8I9yn3fJ5XDYune1Of+NuYJqgoH0j/gZ04zltNRWB2YsZ7ROg0EQCcCa6qttfyFIwLBNZEdDzfS2TJtlgCASAe1sbZiUECs5ke6Oxgm7Ow2CSET46MG+2431VWMSoiUjInrV0WOHdo/Y3WEQRCLCPo87uru7Te5ZWAl9dhDZ1d06ZPcBOscJBJG8Wo8f2X29OlCBsYjAKxgomz12T19J/IcBgkgSpLe9ae5Af9cVSXFbi93T33N5Z1dLSfxnAYLouJQffuieyx0t9UM6qthOtKO1YejR9x16z3aOpXAIC4UpgEnO/tif/ONnk/Os8ruxym+IqYGKsrkHj+692FAbXDZEoQWUoAexQJCKwUSvx7Xy4LE9Z04e31dSPSgIUgxXX5HbwOR46N69bz3x6P3vFrmphpuHWyzDIbWXwvhtleg5SpEcHEkQxF7Xs6He8ICcxxyldlu1GUQQZDMaOI8jwOscPJXLs1WlNCDXCj8IooVKiebx9hFeIedFwFJZ58gUahAkE0I2LeeHnfh5Dt6yzrtyeeMh760qhe0jekIKguhBy6Ky//b3f/bNzabHH5MV85cgw2ZUtM9BEG1cbJ3rctr7KUAjg4d1ECPRhC7bIQCC2C6kcMhIBEAQI9GELtshAILYLqRwyEgEQBAj0YQu2yEAgtgupHDISASkCDIycrosRo6IkQ1DFxAoFAJ8LfM1LdO+FEGam48uiZnzORmFkAECxY4AX8t8TcvYKUWQu4quyiiEDBCwAALS17I0QSKqetkCjsNEIJARAT3XsjRBXKp6UbwlaCBj6xAAAkWNgDKwdi3LGSlNkEBr/1RUjb0hpxZSQKA4EeBrmK9lWeukCcIKqxbolKqqL8gqhxwQKCYE+NqtaqJTemzSRRBHX99KMOR9DiTRAzFkiwEBvmb52nU4+lb02KN7u7ujqysUi13579lRGncqjmNEaq+eBiELBPKLgDLAt1VVC85Tjr4uXeRgO3UThCvdZeHL88OXzkcUZY9LUXaK7B7xtbqg+JxfVjpZLxIQyBUBXgS8u2Z3lWerXGr4YrWOMUdy+/8PZBResBqWqSoAAAAASUVORK5CYII=;clipPath=inset(8% 8% 2% 7.5%);imageBorder=default;strokeWidth=2;" parent="1" vertex="1">
          <mxGeometry y="440" width="118.93" height="190" as="geometry" />
        </mxCell>
        <mxCell id="RDkZVvZF06zk_Bv5mJ8z-5" value="with optional details" style="shape=image;verticalLabelPosition=bottom;labelBackgroundColor=default;verticalAlign=top;aspect=fixed;imageAspect=0;image=data:image/png,iVBORw0KGgoAAAANSUhEUgAAAMgAAAEsCAYAAACG+vy+AAAAAXNSR0IArs4c6QAAAERlWElmTU0AKgAAAAgAAYdpAAQAAAABAAAAGgAAAAAAA6ABAAMAAAABAAEAAKACAAQAAAABAAAAyKADAAQAAAABAAABLAAAAACNU48vAAAZy0lEQVR4Ae2da2wc13XH775Jily+xIcoUhRfkihKskU9rFhyqsaxbCRwYqNwH0Fjp2jrFkkLFEYLFPmQ1P1Q9AHkQ9MEqNMATYraSALEcZwadmC7ji25siXLliVRMkWKIk1RpPgQuZL43EfnkFqKImdn7uzeuzNz5z/Airv3nnvuOb8zf81zdxjDAgIgAAIgAAIgAAIgAAIgAAIgAAIgAAIgAAIgAAIgAAIgAAIgAAIgAAIgAAIgAAIgAAIgAAIgAAIgAAIgAAIgAAIgAAIgAAIgAAIgAAIgAAIgAAIgAAIgIIrA0NDJIlG+4AcEsiEgeh30ZRNEekxs8Hxl3O/fHvT7t2htLSkfK/WxVDDdj78gkG8CKeaL+1JsSpu3N55MdgeTya5offt4tnFkJZDUxYuRyWJ2IOD37Wcs2Zrt5BgHAvIJ+HsSydT7ZbXsuM/XNmd1PssCSfX1FUwVzD3q9/s/b3Uy2IOAXQSSyeTrpbORl31NTbNWYvBbMU6lLkYgDivEYOsUAvQfOq27tPdjJSZLApkcZgew5bCCF7ZOIkDrLh0aWImJWyB0QL50zGHFPWxBwFkEaB2mdZk3Km6B0NkqHJDzYoWdcwkkW5fWZb4IuQVy+1Qun1dYgYCDCVhZl7kFouXb4uCcERoIWCHAvS5zCYSuTtJFQCsRwBYEnEqA1mXeK+5cAqmr2zuNK+ROLTfiskqA1mVap3nGcQmExxFsQEBFAhCIilVFTsIIQCDCUMKRigQgEBWripyEEYBAhKGEIxUJQCAqVhU5CSMAgQhDCUcqEoBAVKwqchJGAAIRhhKOVCQAgahYVeQkjAAEIgwlHKlIAAJRsarISRgBCEQYSjhSkQAEomJVkZMwAhCIMJRwpCIBCETFqiInYQQgEGEo4UhFAhCIilVFTsIIQCDCUMKRigQgEBWripyEEYBAhKGEIxUJQCAqVhU5CSMAgQhDCUcqEoBAVKwqchJGAAIRhhKOVCQAgahYVeQkjAAEIgwlHKlIAAJRsarISRgBCEQYSjhSkQAEomJVkZMwAhCIMJRwpCIBCETFqiInYQQgEGEo4UhFAhCIilVFTsIIQCDCUMKRigQgEBWripyEEYBAhKGEIxUJQCAqVhU5CSMAgQhDKc7R7Py8n17iPMJTtgSC2Q7EuNwIvPHex5Unz/ZUdPcNlg8Oj0eHxydLYjemC2PTMwXxeCJA3oPBQCJaVDgbLSmaqa0su1FfWxnb0lR/fe+O1okH79s1nlsEGM1DAALhoSTAZnzqRuhnrx7beOzU+dpzPQM1PQNXa8zcLizEg9q4Ynr1DY5UsdN3RrRu2jDS0bpp5GBn+/ATjxy8UllasnCnF+9EEfDxOoqNdP87ry3s7hA4+kFX+U9fPbr5nVPnN/VyiOLOSP53LZpYHuhsH/jdRw5dPrRn+3X+kd61jNZs+TOe7CEQHkpZ2NAu1PMvv9Xy1olzzaMTU9EsXFgeUlVRGju8r+PSVx493ItdMGN8EIgxH2m9V0bGI9/50Uvb/uetk1uGRifKpU1k4LiuquL6Fw/v7X7mqS9f2FhTOWdg6tkuCMSG0v/nL95o+K+X3mo/cfbiZhumXzPlvh1tl7/65cPnv/bYg5+u6fR4A69AcJAuYEVJaj6++Z0f7/jpa8d2jOVpd4onbBJq39C1iguXrpz9h2eePIvzxjzU7raBQO7mYfnTpcGRwme/98I9L75+fJflwXkYQIL9/guv3H91dKL429/4g9PN9TUzeZhWmSkgkBxKeaqrN/rs93+y+3/f+3hrDm7yMpQEPHljOvLtr//eh53bW2J5mVSBSbDVzbKIJI5vffeFPW4QRzpFipViptjTbfhrTAACMeaj27u4W6VtOd4+ebZN18DBjRQzbfUoBweH6ZjQIBCLpaADcjrmcNOWY3WKFDvlQLlgMSYAgRjzWdNLZ6ucekC+JliDBsqBcjEwQZdGAAKxsBrQdQ46lWthiKNNKRfKydFB2hwcBMJZALpCThcBnXSdgzP0jGaUC+VEuWU08ngHBMK5AtDtI065Qs4ZMpcZ5US5cRl70AgC4Sg63XhI91ZxmLrShHKjHF0ZvOSgIRAOwHRXrl03HnKEl7MJ5UY55uxIQQcQiElR6fscdMu6iZnruylHytX1iQhOAAIxAUpfdsrX9zlMQpHaTTlSrlIncaFzCMSgaPQ1WfomoIGJUl2UK+WsVFI5JgOBGACk75DL+pqswbS2dVGulLNtAThwYgjEoCj0AwsG3dK6/D4fo5cdi10525Erz5y43d2AEv36iEF3Tl1NFcWso7aUta4vYU0V61hDWRFbv65Ae0VYJLj0/9ZcPMnGbs1pr1n26eQ065u4xXrGbrBzw1Pa+5s5zZ9psMycM83p5HYIJEN16LoAz0/zZBiu27x7Yzm7f3MVu29TJdvfWMmKQsb4QwE/K44E2WZNQHsb7lymmF6Is/f7x9l7A+Ps3cuj7MMr4n7IhHKm3PGjD0slNK6Qbpm90Ug/6iYi08JQgD28dQP7/JZadrilhkULcj8GJmEdbq1ZfMVmF9hbvSPs9e5h9tonV9nMQiLnsCl3CGQJIwSSYXWiXzzM0MXd/NiOevbYjgb2uTZpe2qLgvtSRz2j15sXR9gvzn6qvQa5Y9QzFJG7nl83tkEgGapGPweaocu0+UDjevbEPZvY7+xqyOvBNgnxcGs1e6C5mv3s9AA73j9mGqueQS656/lzcxsEkqF69Fu5GboyNgf8Pvbk3ibt1cxaKosz2snsoLNfJM7O+gr245OXtFcfSyRTlqbMJndLE7jIGALJUCz6IekMXbrNm7SzUH9yoJV9bV+zbn++G0mgzz68SzvAL2Y/PN7DBrSzYLyL1dx5/brRDgLJUDX6lfUMXWuad24oY984uIV9ob1uTZ/dDX+kCbamuIB971g3O3N1kiscK7lzOXSxES4U6hSPns2RfgSBTvddTXu0XZm/PtzuSHGkAyXhUowUK89CueP5JEukIBCeNSaDDW05/uqz29hva6dcnb5QjBQrxYyFnwAEosOqIBxO0sNrdLqWm+iY4+v3t7HfaqlebnP6G4qVYqbYjRbKnRgY2XilDwLJUGl6slOGLkZnq+iA/Ivb3XdfH8VMsVMOmRaj3DONUbUdAslQWXrsWYYu9pR2GtcpZ6syxWjUTrFTDpkWo9wzjVG1HQLJUFl6JqBe1z7tnqivatc63L5QDpSL3pIpdz1b1dsgkAwVpgdmru6i3ZLf391o20XA1fHk8pmuk1AuertaernnMpebx0IgGapHT5Nd3fWotv9OV6lVWSgXymn1opf7ahuvfMaFwgyVpkctr+yiu3LphkC7l57RGHv+gx724unLi6E8fs9m9pU9ray1Krtbxyin1XcBr87d7pztnB9bkAz06XZvetRyuvvIlqVb1tOf7fr7w+OfsP949xM2rn2Ril70ntqyXeg2fMotvVDOuNU9TQO/zXuHhM47eg55uvmhrWK+fUtbgL9/9RTb/U8/X3zRe2rjWS6Nxdgr59Y+bpDaqC/bZWVuK3PO1p9K47AFMajmwc72YeqmbwI+tOJ/WYMhpl2itwCmE3IYUG6UIy3pnDmGecIEAjEo8xOPHLzSou1y0Ndk6Rgk1yXXLUDz+ij7QsfaH2OnNurLdqHcKEfKlXLO1o+K43CQblDVytKShQc62wfuK5xxzM1Wf3xg66JYVx+kG6TB1UXfk79VVT9AOXMN8IgRBGJS6Cc/1zleM3ievnGU+d4MEx/p7vQW4L9P9KSbFv9a2QLQ2apvPdK5+LrLSY4f9jRUpOrr28dzdKPccAjEpKQ7aqKB2dFQzuJITyNrC5D2n+3fkkjIV6Xlmu14VcdBICaVTUxN8n2JwsRPulvWFiDtP5e/t3Pty8WHamNxkG5S0eTMjVITE2W6vZQrb9EgEDNSc3P2/PqCWVwy+r2UKyc/CMQEVHJu1jMC8VKuJmVf7oZAllHovEmlfCyRCOv0qNlEuVLOWJYJQCDLKPTfpDwkEC/lql/tta0QyFomaAGBZQIQyDIK/Te+QGBev0e9Vi/lyls9CMSIlM+XYh4SyGKulDOWZQIQyDIK/Tf+SIGcJ9XoT2drq5dy5QUNgZiRikQ8IxDmpVzN6n67HwIxAeUvLJkyMVGm20u58hYNAjEhFSgtu+u76SbmWXVfuc7/y+tWbK0Gk49crcZktz1uVjSpQLC8coIFgnMsEY+YmGbVfaJvnL12dohNaN8v51kqtId8Pryjju1r0v9NKx4fujZajou56nZ6txFbEJPaayvNVKC45JqJWVbdtDWwIg6ahIREY0RvSShHyjWrRBQeBIFwFDdQVnmVw8yyycbyIu4tx0rnJBIaK3KRlaPIGO3wBYFwUA9Xbxjy+fxxDlNXmlBulKMrg5ccNATCATi4YeO1QEVlP4epJRPaTaJjCqsLjRG5i0W5UY5W4/CCPQTCWeVQzcbLnKbcZrSbRAfcVkSSPkgXuYslIzduCA43xFkszgKFNrf0zw8N9CcmJxo5h3CZ0dmourJC7mMK2nKIFEegrKKfcuMK1oNG2IJwFt0fDMXDGxp6Oc0tmVlZ4a3Y8gRBOVFuPLZetIFALFQ90rqtN7i+ptvCEEebUi6Uk6ODtDk4CMRKAbQ7XcObWy/4Cgr5nqdsxXeebSkHyoXh7l1D8hCIIZ61neG6huFwXWPX2h53tVAOlIu7os5/tBBIFswj7bu6QrV157IY6oghFDvl4IhgHB4EzmJlUSB/wJ8s3Lrz49T8fGF8Yqw5Cxe2DQlWrL/kD7zZMffRmx16QcRZigW1X1kt3PN3z+n1e60NAsmy4v7S8hvhtu2nUxc+Dmu/SFjP42YhmWIhg8cv8/jIxUa7W3eQYr429EbzuH+ezfvWPgp9XSrIoskQq47fCIeDJZ75unEmrp4VyFN/829PZ4Ji1F4Uce6vAE3Pma3PY/XsVz31z/yhvjgo71u+OLsViLOq5Jz2O70lRig80edZgTi5uuEz/Sx85vJdIc7v3Mzmdwq9RnmXf3zQJ4CDdH0uSrdWJsMsnNIvPe1ibUgUsp+/emr7tfGpQqVBcCSHLQgHJNVMKpMRRi+9JX2Q/ua7n+zpHbhedWhvR9fhAzsG9Gy90AaBeKHKFnKkM1jppX/w2qbrkzdLr8duFD1+5DMX0u1e+qu/nfUSAeRqSCB2c7r0jaMf3feTl9/eaWioaCcE4oDCBoMBRi+nLnPz8cg7J851vvjr/9vm1BhlxYVdLFlkOfyWFheyuqpSVh5d+vrs9dg0GxqdYjMcY/NtQiI5+n7XPeXRkmkvHZNAIPle01bMR+LYVHvnCW8lRQWLvU69vZZ2t46ePLd9e1vDaHVlqRN1vIKumLfYxRLD0bIX2qVKbzlWDqY2v41X21fGoveeDtx//faHW/X6VGyDQFSsqsScQoEU++h875buvivlEqdxjGvsYtlUing8weiYI71blQ6D2pLaPVt2L//6hP4j02Ozfu2nimJl8wOvHEyUHToRKG8fsTtWmfNDIDLpmvimA3Ja0rta6YN0k2G2dkcLkoxejF2pW+h/6aHk9KcfhjYece2t/2YwIRAzQhL7p27OMHpFtbNZtMS097Q493bIxfCW/0klZovioyf3UIOqIoFAlsud/zfrCiOscUMFq62MLk4+PB5j/Vcn2ILEUDaVC/59hsR8QWL01G5/UcOYirtbOEiXuDKauW6oKWMNNeUspJ3Rohe9pzaZS2cD349kW4lhcUsyeU7JW40hECtrgmDbDetL13jUa1tjlEPDzjo526fUraG6HMJy7FAIxLGlER9YSSTJqksS4h2Tx/h0MUssOPd+mSyzhkCyBCdi2NWxtU8b0GsTMRf5uDHnZ3QdQ8ZCu1ksEJKkPhkR8/nEQTofJylWn45MalfN/XcdpFMbFucQgEBsrMWtmTnWdemqduZq6aLcrZml75S75TSvjejyNjV2sfKGGhO5kQC2IDZWzY7rIDam68qpIRAby5a+DpIOga6DJJNJdindgL+2E8Aulo0l0LvmoddmY4ienxoC8fwqAABGBCAQIzqS+/Sueei1SQ4D7g0I4BjEAI7sLlwHkU04d/8QSO4Ms/aA6yBZo8vbQOxi5Q01JnIjAWxBbKwaroPYCJ9zagiEE5QMM1wHkUFVrE/sYonlacmb3jUPvTZLTmEslAAEIhQnnKlGAAKxsaJ61zz02mwM0fNT4xjExlUA10FshM85NQTCCUqGGa6DyKAq1id2scTyhDfFCGALYmNBcR3ERvicU0MgnKBkmOE6iAyqYn1iF0ssT0ve9K556LVZcgpjoQQgEKE44Uw1AhCIjRXVu+ah12ZjiJ6fGscgNq4CuA5iI3zOqSEQTlAyzHAdRAZVsT4hELE8s/KW/sG4rAZjkFQCOAaRihfO3U4AAnF7BRG/VAIQiFS8cO52AhCI2yuI+KUSgECk4oVztxOAQNxeQcQvlQAEIhUvnLudAATi9goifqkEIBCpeOHc7QQgELdXEPFLJQCBSMUL524nAIG4vYKIXyoBCEQqXjh3OwHP3s37o3/5i+d4i/enf/vdp4PBCK+5bXZFETxAWjR8bEFEE4U/pQhAIEqVE8mIJgCBiCYKf0oRgECUKieSEU0AAhFNFP6UIgCBKFVOJCOaAAQimij8KUUAAlGqnEhGNAEIRDRR+FOKAASiVDmRjGgCEIhoog72VxxJsoWET0qEvkDBNEssBKQ4t9EpBGIj/HxPfXPOz8ZuSbr9Llh0kwVCiXznJHs+CEQ2YYf57xqWc9Olb13dkMNSFRIOBCIEo3ucnL5SKHwrQrtXwbKOfvdQ4I8UAuFnpYTl4GSIvdO7jsWTgo5FAuHZQFXnh4Hy9hElAK1KAgJZBcQLH0kgL52J5rwlic36WbBq7wehjUfOqcpN0hGbqrjUyevYpXVsOBZi22pmWWPFAmssn2ehQMo0QRLFxC0/uzgaYmeHwuybB9UVB8GAQExXCXUNesfCjF60xONzXImSiGSdKuYKIM9G2MXKM3C3T+clcVCtIBC3r7GIXyoBCEQqXjh3OwEIxO0VRPxSCUAgUvHCudsJQCBuryDil0oAApGKF87dTgACcXsFEb9UAhCIVLxw7nYCEIjbK4j4pRKAQKTihXO3E4BA3F5BxC+VAAQiFS+cu50ABOL2CiJ+qQQgEKl44dztBCAQt1cQ8UslAIFIxQvnbicAgbi9gohfKgEIRCpeOHc7AQjE7RVE/FIJQCBS8cK52wlAIG6vIOKXSgACkYoXzt1OAAJxSQVDfcMuiVStMCEQl9TTd3OWFT//GxYYmXRJxGqECYG4rI6Fb5xm4TOXXRa1e8OFQBxYu8A1461E+Ew/RJKnukEgeQJtZRrsRlmhJdcWApHL17J37D5ZRiZ1AAQiFa9157T7xLPM79zMYwabHAlAIDkCFDmcd+sxv7NR5LTwZUAAAjGAk+8ubD3yTdx8PgjEnFFeLLD1yAtmy5NAIJaRyRmArYccrrl6hUByJShgPLYeAiBKcgGBSAJrxS22HlZo5dcWD/Hk5M37kEtOd8tmBecGl98bvYlXR7kftGnkB33WCGALYo2XcGtugVRFhc8Nh+YEIBBzRtIseMUhLQA4NiUAgZgikmcQHI3Jcw7PQghAIEIwWndCW4/gNQjEOrn8joBAOHj7fCzFYeZJk3gi5VM5cZzF4qhuYWFkenp6bh2HKbfJbEc9o5feQlsXNxyfFBSEZ5ji/8VCIHpr6Kq2dRIEsmqKuz4aiecuQ5s/rCuITAd9PqW3rorrX8waVFEaNf6Kn5hpXOelsjx63XVBWwwYAuEAVltVrvyKwIFhjcmG6oqJNY2KNUAgHAXdXF89xmHmOZPmxppR1ZOGQDgqvPeetqs1VWUjHKaeMdG2qsP7d28bUj1hCISjwgXhUGJbcwPfd2E5/KlgsrW5fkD1A3SqEwTCubYe2LOtrzxajGMRjVdptGhy/71tnvgPAwLhFEjrptqpXe1NFznNlTa7t72le0vTRk/8ZwGBWFiVH3zg3u7GjVUDFoYoZ9pYXz1w5LO7P1EusQwJ4UJhBjCrm7/05//89Oo2t3yuKSsUEmq0uGjq0N6OrurK0hkhDl3gBFsQFxTJCSFGwsG5Q/u3nz58YIentqAQiBPWPofHQOJ4YF/HqcePfOaCw0MVHh52sYQjVcvh4m6VtuXwojiokhCIWuuz0GzogJyOOby2W7USIgSykgbeLxKg6xx0KpfOVnnpgFyv/BCIHhWPttHtI3SFnC4CeuU6h1mpIRAzQor205ed6PscdMs63ZVLNx7SvVVeuH3ESkkhECu0XGr7g3/8y+dWhr74NVnt/CXEsJKK/nsIRJ+L0q3BgNrfAhRZPFwHEUkTvpQjAIEoV1IkJJIABCKSJnwpRwACUa6kSEgkAQhEJE34Uo4ABKJcSZGQSAJcAhkaOlmUYr64yInhCwTsIkDrMq3TPPNzCaSubu+0duZ8ischbEDA6QRoXaZ1midOLoHcdtTL4xA2IOACAtzrMrdA4slktwsSR4ggYErAyrrMLZBgMtml/UpQj+nsMAABRxPw9yyty3xBcgskWt8+nkim3udzCysQcCYBWodpXeaNjlsg5LDsJjueTCZf53UOOxBwEgFad8tq2XErMVkSiK+tba50NvIyRGIFMWydQIDWWVp3fb62OSvxWL7d3dfUNJtKXfzl5DC7FvD79jOWbLUyIWxBIL8E/D20W1V2M3Dc19ZkSRwUp2WB0KDbKvxNbPD82bjfvz3o92/Rmlu0p9WVao/zy8on+cUCArkSoIuAt6/Z9dLZqmByoavcwjHH6vn/H2NMf9EDLVx4AAAAAElFTkSuQmCC;clipPath=inset(8.33% 7.5% 2.33% 7.5%);imageBorder=default;strokeWidth=2;" parent="1" vertex="1">
          <mxGeometry x="140" y="440" width="120" height="189.18" as="geometry" />
        </mxCell>
        <mxCell id="RDkZVvZF06zk_Bv5mJ8z-6" value="" style="shape=image;verticalLabelPosition=bottom;labelBackgroundColor=default;verticalAlign=top;aspect=fixed;imageAspect=0;image=data:image/png,iVBORw0KGgoAAAANSUhEUgAAAHwAAABcCAIAAAAj0EbfAAAAAXNSR0IArs4c6QAAAERlWElmTU0AKgAAAAgAAYdpAAQAAAABAAAAGgAAAAAAA6ABAAMAAAABAAEAAKACAAQAAAABAAAAfKADAAQAAAABAAAAXAAAAABPq/vlAAAXkklEQVR4Ae1d6Y8byXXvg837noMzo2OkGUmre6WVvNqsN3ZiOx9sJEjWRoAFEgQIknwL8in/Qf6DfMl3BzGCOE6CXEjiheF4s86eWknW6pxZSSPNDOfgTTabfVV+xSabzWZ38xxR3ohqcKqrXh39q1evXr33mmJ/70/+nBnvU2/IQzVw+dVzqVRiqCo2YkVV3/ufj/7qnX1b/sHd/tkPZ0Zu/OypY3/6h981q6czxzjz5rkltnd2x+wruz1uC2MOYKjqdx48/v4P/8NaZQqgZ7N7lWrNOoih0oSQjWdbQ1WZOvEH1+/8649/bg5jCqCj7/X1J+YIhk2srT9uDCnQhu3iIOj//ScffPjZXaPl6YCeLxSB3QjPtrW98/TZ9ggVX4Qqf/33/7mxtYOR+KY1mo2nWyzLrq4sDz4AIH7v/roj/T++v6doTCblzySE+ZQ/HZvaczkOz8jUdf0H//DupcvXpjm4JxuboiidPHEsGAx4jBVFkONYGR48ni0qVVF9slM32gn6uUwqAPQXEkIm7U9Fp/mY1kfb2JwqpxtD2dvP7eUKy0cWlxYzoVDQOj4jDe0Qugp2Tg85XhU1IG6tK8k6JsA6B/OpANbBQsKfSQtTn4MXgAWIDpbHFY9F4/FoKBjkfTxWoiQ1KpVaoViyoumYzhb7HBQwBxs7dVxGdayD6c7BCwB6G8hypYqrfTfE3xNLoT/+9tJOXtkpyTsFXA2g7FHfNgdvf3UOLXjQT7zoBQJ9nGeDxMB1mmlhV6iqg8/BQtI/Ttcj1P2SgG57ctsciL4jNTbTYGMN3V+RtFqtWinu57Y3tp6uRcO+aJi3VT/o2xcLdL9fiEWjuAIBv89Hx6aqKrbQSrWKS5aVYeHwxY7zM2eCvnDaUrMux2r1TFU6XShc231yi2H6bxuW2hNITh90juOWFjKLuObnZtJpbKeOjwVxn8vnt3f3trM7W9kd7LSOZNZMYe41PrFizTHSIT+PazYhHMsEmdO/oZW+UPau95IdXM40QQ8FQ6vHl1ePHT129EjfJ6S6TSx6fPkoKB9vPF1//ITlRaKJbhXdEO+lNybmeeI+HdDB3a+cWD19cvXo4UO9KPTNwSTh4hNLevmeXrrDEM1WhUoVJx63kZm3ICZSQa08MnMONDEF0FPJ1OULZy6cPTPmg3GRo7i04IKev07knLU1yHHr7SBpVPnSgg7WvvLqhdEY3BE7PnWR9Sf13Cd6rcWnYHPWF3Yk9shEFVR8Prg/V05fPnL4V65eyczPejz8CEXgd5aj1hsDdzayOEwjbJOY4JtWfC4SZiDQi7m8+RjJGav2ZWb3TywtLLz+2qWJI250zIYy3NwbjK7q9adcMOU1Gj7MClHGF2H5IIOL5VmWIwxhNZmNruokQKQdUs8SufPIaO0vf7dLfHm171lG5/a5mXahd186fxaqoeeQxirkQktM+jLJ7lM0HT4s60+xgTQTSAFlWznLsIwviIp8+jUUEaWsVx+Ryppee2yjHPPWWFYDcfqYPaH6+TNQVY7zPO/Hx+dDAgoMRqATommaqmqKojSUPnarvsPg4idJw8F9ygoJNjjHBgd1LrNCnE+9SuKn2PJ9vXiHSBN2mzwP0A8tLrx17Svzs7OhYABwu2FXlxqSJNXrdUkeHP2ORDaaZRPnGKaC2TR74YILTHiJ5QUzxzXRrXqyfIhPXUJ1LfepXrnnWmv4goMFPRgInFxd+fpX31hpHmq8h4cpwRWLRmpivVYTJblho8ciCQj4EgQBi8XHRiEl2qATlegaq8ucEGPkbUY1RDDHRpbY0CLTI09sLRu3utZllDcy2dACn/k6hI9euOFYyzGT5fysP85wAqM19EYBEstKdoCg42R/6dzZUydWhhLlMLkk4jFY1cuVSrlKLb0+jg+HQ/QTDDZlUnv8rPkkkMn+JrAhOgnBBKfuEbnI8AEuvNSm7v+XKJIjETZefha7dEMvtTzLjmTIhBzzzV7wJVa5yFyHhhC9uqkW15S9Gwyh83pQoL9ycvXKxQtzszOhQAD83hnBYCmw82w6jW9N0ynYw7RAGIEJpNnQPLZOlmhEx4oxp8e1eywUIre8HL1ErC/Cp64QuUTqrtEf/qWvCYuv99ZlsHHHDvtxLbwhb9NAjAMB/fSpE29evRJrmq4gCxzGMUAW9trZmRl4RxUF3NEfNWuT2Jd9oQhWN62m+xhNMljMSmNLa1If/wnVShNnNSfQsRSCx38TyNratN8KQf/RbyDTrjzZ6Ya/Xzm2fO21ywbiqG1YaIdtBiKbSm6eh/TGNWx1QgRdN8Q9HlFgfGHCeXkq9IboweZm71zsBBeyI8vygeDq9/ojbrYycdAhji+dP5dMxM0uoBua6QETmCcADp3SoAfqHjqPY5sAQldUXaUClH5wAsKZiHPU3yGrRa1eNgi9vyFk2Ag1c1o/geXvdElwa5lLemgmcmmnlX3+9Okjh4Y6hdvbA74AHSExZgFSYHYY0CFqzEzvBMvy2L2AO9EJJzRbY1nCBwijQ8Mx60KOQ6oMwuNmFSgzZhoJ38wFPrVqzRkkPUnQFzLz506fsvWqDeBtMKtwLCDycRbEjSJwPbgd4RgmpWeCJSzPEKqq06OXprE8OB1t4wow2DB1GdohdJWh4DZ6ZINdh2ph/qrnSJwLJwk6PAy9sSvwtzn37JSL4AtTqtjKsQJUTRuE2bEydGJKdNoMoMfValCuk0aXXcXWkcMt52NwfAb34CjAd+IG+OgyFx70lGttdmKgA61jR+ybDHrC+d7an0cafAh2diPAZOADtnUj6M53F0SwdilVxiJkuit27lh/gBfCjC9gLjxMuS5XueCMLtHDFx9f7lAPkxp6l3NrHLJlftZh2uuNhtSwny0dG+EgAcznc6IA6Ga2351boJizTdliEnclsKn6OtzaVdS+IZBEkZQvnGKFDuIoxPA4n89/+NeF2Uu45UKWE1C77iB/3cc+SG0LTSqZtNx1JWFNGeR001fPMUHH1AR8MMfSGEe9+Y3+TGuLIpYEf4QXQpgjx1nEjto1vu4bAMtH0xzvgoxCI+v55AmooQzWwUgfl6aHbyvh4sVHS6IoRiMRaIHerfZaXG30QLCpwug8R6p1yFgHGaIo8u52LhJTk6mWYk63T45gFUEJ5bFUKLv6HWq2O+PDSdYNcWwPMqxp9MNHl/jgiN6YzoI12hr524OXG4qCqJW+LXfZVSzUAKjJ0ZSlYQamuiP+OSGOSpVyQZYbklgzpT8osZc3ZFKTtLKoiZLW0HhJMReGpSdIjECIFdyPUdgMlKJZgfVHMH/m7eCJiYHu3SVMVzAcetPYSk2sKcDQ0NtKOjXDu3xqCIYswaTH1OsI4qKJ3o+qkYasP3haXduq5cqyTaEFjr1VzBwi5bCTmre6WmP6bQ8msTXRZ8lbSb3T3rsl2BNWQ2iEHgsC2BrMTtc+YG6jbPZr5FgxBz3kO3LwR5VFVi0nI5xGOHSnSpUGtpKgQ+gS/CVoEyyPazsnzSb8s/EADmQMB4OmKyBE2ieNrvf5iFRiw0tk+AAx1z7MRx0wUeoXcAs1himV0okkXHeObTY3RRxqHOA26AElQEZtHJ+aktqCv9Ygei0ax3xZNBNfg/GHCQs7DFF1qqlrTaEkW5wkyNgtyrgQPL0w72wnQO8wFOvils1qRuQy0erN0++AimzruScGeqHYEXaOmCITakyBFBPxeO8ZCqVw2gkuKiPlZzA0q8PXF+zZBWmcl1xm1B7DrEoFGudPcL6g8ZyYT5yTpKqD3XwXAdZEOnxYD/ntIheHKV3cZrSe9qEyVbNcMNkb7eSGgJE/MdCzO7u7+zlHVd06AlGSFE1LqDFrzCKwgBVEZzU4hJr4tmoYaTOnyemtIipPNZloDUauELXK4nDP+aBFcxCyVj+RKhJdpU4ceJSaUggvHMxF9fSxWL6i5Csy5Ls5PEXRylVFCfDxSBsWDEzKMmLW7TCl13ch6Ln4EbORQRLt1geh9aSBjQUvBfUFHW3gjJorFBqNBvRIsDzlPlU15DhsBob9nQJtgk37JVrlmVZ+yjayoryPAyFplGBpb+6utKr5gUefsnYgzgXSXLB5+RjgAlsi44vSQIHmcRQa5FzCj6tQVfaKsiRT+QArPL7rDU3RSCLi49UC3Tm7YzHMjloJQqRH/xQ8+c5QhsaBQB8w1uXRk40Lp19xFB22sQLoSq0GHzR1e/qFaLS13WE+YGOBndEQM0RX9PJDrfxYrzzSKk9QS2mJcb2tzHQhjl6IJml1XDtGj5w/zoczfHiBjyyygQSjyrq0jYgw+PsNglQUryAJeyU5m4c/XIaIk2WpVNy/X8mdnNfS8T4eGE3cwWqT1n80kBOjjcJAoLeJ+/yFhPn83oOrly/2oWsXw/efy+fA0GD4cNMNim94njmeMHJJzd3Wip9rpXWDHIjjw1IXknG1W/H8q8tlXErxISfEfdEFFiGP9S/A8px/BgEwnC9K+CAOS2mi+bjKux88+uSj6NLhZZwG0Go+x107k/LGXS8/AiVRqvUHf+vqrjNHqEhw10XmL08AdHgyl48cymRm4bvAuTQaD0XCYQTw1+sNqe5qdcFaron0SA0oq6KIKxwKB0JiYH8zSZ6GpAdE3DRGSzGGOG+q6nQ+RvroSlnJ7TG6glMpR2qMWmXEJx1xzjDQz3/7IvOjn90uhCPxBDVpqJr+6YPim+fTkaCzGU6rbmm11iBBL2/9TNm7OYhjmh3zVzBOnTy+srJsWkXQdzqZRHyooY8D+lKp2vs2IjAUK2UYak0Ao5EoLwhhZSNS/zwob4D7zAMqZgX0BqVvNNDpIpFZvWXvhOyCIYHnrZibA2Hef8BVoq/Dk2JkzcT9wL1T3E5hU5E3/9t6VmqX0L8eIRjz3/4b/uKVN63Ug6fhOH79K5eOLx/uINesXJckHMHB7NTJxvPYLMGltjdXcEyHcdzsC4jDMBOTbsdrn/jVvWZ+p1XK4+2Pxc7Yzur7F1EPusI2Yx9MWp0KKnqsMjYPMx+JozNke2szL8cDQaq2Y1+FLo8t10qjiztK9oNmnIE125JGFAIUJ6UKRd6SS5ORk9+z66Q2Co/ba1cvLbjE3+7l8k83t2pi69yfTELodAxyKjYsi5EdUsXv0xLiJ4naB7zeMdFQ5sSm1pCgTXoMw6sIrgyc2qFWdiNuVKEqqoqzq+WE1W7rV18hysa7t29+LDYF4NqzaqnacsWAwZXdz+St93rRbNfu/3dEmX72zKm5OQfrudnhfp5qA4sgStMYWuAOpA1+R/CcSRbw+4OCHhevR+u3zUwk6BlSVQ3/HBI0KgCy2N3FYa1L0wj4Igj4gibaWSV2Gupggp4IttMh5m2l73xz4S++f/ffbn2aSs9FE0lxK/3dr87ocoEoLSujjX6o21HEC8Irrl4+b3ZjXf5mJhLg00ql2pBlwBUIBLCD1UUJbN5ox8vhcSORaEK6GavfNCuCwSF5EOtimgkhISHT6b2mYk1wVNrg6hYNNFOjoUVEpdxN5YmzyDY7MhIG2By8qj0cn44JH90rSnWxXMw/fLT52jESCw7Upq0L2y3Eyyicvnx00BeFFE3d2cPL/4VUPJ5IxCnzWuwefpij5DWTx3G8Aqw4ppvbpm242E2xGRow2YqM2+ZUOJY0Gd6lJhzXOkz0mEQO0BNzAi6sRM8txz9/0orO+PBe+e23XI0zzr265I4C+mJmODcVsN7L53E9XH/08fs/n5mZgfkFKvnK8nwicU/hq+BuAN3WUFxGOlK2ZQ/2qg8yysMatfCA5YE7BA6uN88lTdBvrVXefmveq5WBy4YGHTZCnGMGbr+LEMEod+/dM7JCkegf/dbZcMzNndBVcdgbytMufN23KUyAhvcydOpvevVEJ2pqM1ev1LRYxFln79uslWBo7cXDIG5t1zENe5aZH4vGTmcGDRQwaw2SoNw9POK9awKKDSH873/rCKztRr+bOdez3iADM2mG5nSz5ggJ43htVDx3LHIkOaou6NL3OAzu0iRzYSUJXvnf27n7zyql2mS4ZGjQvT1EbkM38q0eu8VUH1uSd1O9pb2s2kszWs6JpUg0CBWMlb128SHaHlq84EwvivZT1oAd5ixv6aXDw4sA924mgrjHgBbSwV97dRb2XvchDFEyNOhoe3vHOKkP0Y1BupXtVPRzE5MtE0GcjtAJdRzTjMEfmgstTIhTRgEdP/1kjGOo7+3snmgxOtakjlt9qHaeM7HhVjU6jYUFnZ5gx/2M0gTOmQ+H/zXLu/fXItGOBpbdg5llAge8ibE5VdHtaKqW1djU3+HahkpjJxv2fhTQ0ceduw9w0hy8sxu37hYKiHYTwlHqq8TnyX7jQI5DRusjffeiKasdtvDT8DDqsKIWyvE+I4KOTj/85EZ2tysOxG0kt35xb/2LJ0ZpaqZ1mn2cldazHcuXW13v/LF5zt48MDWhh2DB2xwmBeLmjTT1X433GR10uO8//OgzCA0Phs0XSu+9//HD9cfmIGfmMnCB4rZYU68/rDq+umkS909MHPVmlwbuhrfcGAMNhWwf7MxZ6T88F4pRrIzWpnL54v21R/hNPlj98BIFvBawo1RrIn46+s7dtV98fh9v4lrpm25+plqmP5sFC8Arh0OJCP1JBCuNRxp2YI/SCRchXhVWoea8hgMIP201D8sYnnLkvka0Mtr6g5UcvGxlZxuB7TazeLiYy9XF6sPN+k9ulP7gmwJP33gZd83aehnzFljD7hjw8RLRrGxOm+28NDxiJ+3pG7H6iNUOLR83av74ZvHdm2XYz1scNWJ7E65mChDsndg/bTFf43PHdECPxuKHllcAFUI4//nD/McPqhrCtbp/D2HCQA7cnIm4UUNAqF83zAPLQtcupwM6hjOXWcwsHUFic7/xd+/tv3+nCrM7HESuI+0psKHTUz5Khq1NwN0NONXlOXbcfWVqoAOSxcNHDdy/yEo/+Onef10vNV1y0xE12Bl7Ee+dNxjZbYzfS9M3Z1ztBR3Aw9a3GzeCWDyBkPBKqViVtFuPxbKop+O+GH7kCdsV5QcbnzEHob1QRaRHGbEia6axtSL+1Lx1eyjvfGgvUwYd44tEY+FIrFYpwxn9cKu+toWwGWZpRuDpeRts1aXYTBZ0R7gx0TZYjVt8A3FTcfRG1qP0hQAd4wsEQ+nZeURc1MUafhD6+nptfbtRb+iJME+j0alf31jU7KRAd4a7aX6xLy4jE0FhPN4W61kRHui6FL0ooGN4iKJLpNJgeUSVImRgp6gA+huPxJ0C4pZJKgx+p+5rfEP0Qp8A39n40eUZO9luQLco3BsEdzcRH3f/NDqazOGo81hjp+LJFK78/u5edhunp2f7DVz/8lH+6HxwZSF4fN5/YVlIxwPG/68QFBD92Af5PkAbA+5RUazPAcSbUmUCPG42OxlXiNncRBIQNbhKxXxhb7dYoLbMjV0J108Z5sIhBLCziZAQi/jSMf/XLs4tzpixKPSAhSUAAj/fKySchuYJNxXu9Pdq8KLTJBHHOF5E0A14Ekm8FJbGy7jFfK5ULFSb7yqiCNFI+aqM68kO/u8Y7VtX5i24oxwBYozKsQKPKDzswkZj3d/eWDeFOCqgKu+jsUfdlSdw9+KCbjycIPhxjMKF8K9qufyd89uPt+tPd6WKRB3z8NAD2W9cnl9Id715Dqushl+sUBESTaFvvo1HQfT+2ETVBOW4rd8XHXRzuEAP4v533mqdCUo1bb/YyFfVUk0tiY2wn51JUjkD5R7mbuNHASBqaKBWc9c12xkkgfXB8fRl+EGIR6D5pQHd9mwwCCci4dV2LqQ5YoOcfGl9+bvdRPuvweA2rm8XTubvLyvotqcHRnizAiIc0Dcjs2zl/W/RghnC2J96PIovCegGCBQ1OFE46sakLwTgu5+EANY0UpejZqwD5W7rNH2pQDcejHI9VI6mRKaWBAp9WwXBHDTlDb7oOavJ3VY4nk/6Swi6FTiDkR0MWlai556epmn3uT/si9LhS9CnMBMvQX8J+hQQmEKXLzn9JehTQGAKXb7k9CmATv0xU+j2/3eX/weOqgrAE76JhwAAAABJRU5ErkJggg==;imageBorder=default;strokeWidth=2;" parent="1" vertex="1">
          <mxGeometry y="440" width="40.43" height="30" as="geometry" />
        </mxCell>
        <mxCell id="RDkZVvZF06zk_Bv5mJ8z-7" value="" style="shape=image;verticalLabelPosition=bottom;labelBackgroundColor=default;verticalAlign=top;aspect=fixed;imageAspect=0;image=data:image/png,iVBORw0KGgoAAAANSUhEUgAAAHwAAABcCAIAAAAj0EbfAAAAAXNSR0IArs4c6QAAAERlWElmTU0AKgAAAAgAAYdpAAQAAAABAAAAGgAAAAAAA6ABAAMAAAABAAEAAKACAAQAAAABAAAAfKADAAQAAAABAAAAXAAAAABPq/vlAAACN0lEQVR4Ae3cP0vCYRTFcS0z7A9JQVEEEdVSDS01RbQ1NAdBL6CtF+PS1hz01mqT0rBMEJzEQ/Dc5/x4+DZEeG/34MdDiEP1x6WLWq3WfbgafY/++up/R0dMvf98/z718YgHn942Zp99fenMzd5gGiEAeoSquAm6AIoYgx6hKm6CLoAixqBHqIqboAugiDHoEariJugCKGIMeoSquAm6AIoYgx6hKm6CLoAixqBHqIqboAugiDHoEariZkPMGf9ToHP3IX+Dpkui9AugpzeVF0GXROkXQE9vKi+CLonSL4Ce3lReBF0SpV8APb2pvAi6JEq/AHp6U3kRdEmUfgH09KbyYvnojXmJkHuhfPTbk15uVJVXOPpaq3Zz3FUIueeFo18f9eq5SXVe4eiXB5/aIPtGyejne4OVxd/spDqwZPSz3b4GcGyUjH66Xbn3LeOXuFj0w82fZmPo6LHOLBZ9f32gn71po1j0nTbo2Tu1tVrF9y1jhmKb3m7R9OxNX27S9OzoC1V96zKSKPbPSwU/cpkUr1j0yTOs4A+gG14U0EE3CBgiaTroBgFDJE0H3SBgiKTpoBsEDJE0HXSDgCGSpoNuEDBE0nTQDQKGSJoOukHAEEnTQTcIGCJpOugGAUMkTQfdIGCIpOmgGwQMkTQddIOAIZKmg24QMETSdNANAoZImg66QcAQSdNBNwgYImk66AYBQyRNB90gYIik6aAbBAyRNB10g4AhkqYb0OvDYUX/u5gBI1fkH13ZIvOhANcqAAAAAElFTkSuQmCC;imageBorder=default;strokeWidth=2;" parent="1" vertex="1">
          <mxGeometry x="140" y="440" width="40.44" height="30" as="geometry" />
        </mxCell>
        <mxCell id="RDkZVvZF06zk_Bv5mJ8z-11" value="" style="shape=image;verticalLabelPosition=bottom;labelBackgroundColor=default;verticalAlign=top;imageAspect=0;image=data:image/png,iVBORw0KGgoAAAANSUhEUgAAASwAAADICAYAAABS39xVAAAAAXNSR0IArs4c6QAAAERlWElmTU0AKgAAAAgAAYdpAAQAAAABAAAAGgAAAAAAA6ABAAMAAAABAAEAAKACAAQAAAABAAABLKADAAQAAAABAAAAyAAAAADOaDBdAAAi9UlEQVR4Ae2deXAc133nX3fPhfskTgIkSIIkeIuHJJKSLFNSFNnr2IqdeNdylMOJVRvXpmqz2VRq/1hXXFu7WefYqnWltuLYm1iOnfLGsePYlq2yrJuUJVKkKEqkeJMg7mMGwAzm7u59vx4OMADm6Jl5DzPAfFs1mp7Xv/f7vf68wZfvvf51j8KK2MyhSy1hVd3FVHU7d7NVUVgDY6ajCJeoCgIgsK4IKHHTZLP8lK4zw7jiMYyLysaB6UJPUSmkonn1qjtcy+5XVOVexoxthfhAHRAAgUokoF4zDfMtTwf7haL0R/IlkLdgmTdvekKeyMdUVX0032CwBwEQAAEiYBjGC1Vh9w+Vvr5wPkTUfIxN86obYpUPMdiCAAikI0ADHtISmq2lO56pLC/BCo+x+zGyyoQS5SAAAvkQIC2hpaW86tg1pgX2xJqV3RqwAwEQAIHsBEhTSFuyWy0etT3Csq4GYoF9kRz2QAAEBBAwtiW0xZ4r24J1N3XBnldYgQAIgIBdAom0KFvW9gWL51nZ8ggjEAABEMiPgG1tsSVYIyNnqhNJofm1AtYgAAIgkIsAaQtpTC47Om5LsLq6DgeRwW4HJ2xAAATyJ2A6EhqTu6YtwcrtBhYgAAIgIJ8ABEs+Y0QAARAQRACCJQgk3IAACMgnAMGSzxgRQAAEBBGAYAkCCTcgAALyCUCw5DNGBBAAAUEEIFiCQMINCICAfAIQLPmMEQEEQEAQAQiWIJBwAwIgIJ8ABEs+Y0QAARAQRACCJQgk3IAACMgnAMGSzxgRQAAEBBGAYAkCCTcgAALyCUCw5DNGBBAAAUEEIFiCQMINCICAfAIQLPmMEQEEQEAQAQiWIJBwAwIgIJ8ABEs+Y0QAARAQRACCJQgk3IAACMgnAMGSzxgRQAAEBBGAYAkCCTcgAALyCUCw5DNGBBAAAUEEIFiCQMINCICAfAIQLPmMEQEEQEAQAQiWIJBwAwIgIJ8ABEs+Y0QAARAQRACCJQgk3IAACMgnAMGSzxgRQAAEBBGAYAkCCTcgAALyCUCw5DNGBBAAAUEEIFiCQMINCICAfAIQLPmMEQEEQEAQAQiWIJBwAwIgIJ8ABEs+Y0QAARAQRACCJQgk3IAACMgnAMGSzxgRQAAEBBGAYAkCCTcgAALyCUCw5DNGBBAAAUEEIFiCQMINCICAfAIQLPmMEQEEQEAQAQiWIJBwAwIgIJ8ABEs+Y0QAARAQRACCJQgk3IAACMgnAMGSzxgRQAAEBBGAYAkCCTcgAALyCUCw5DNGBBAAAUEEIFiCQMINCICAfAIQLPmMEQEEQEAQAQiWIJBwAwIgIJ8ABEs+Y0QAARAQRACCJQgk3IAACMgnAMGSzxgRQAAEBBGAYAkCCTcgAALyCUCw5DNGBBAAAUEEIFiCQMINCICAfAIQLPmMEQEEQEAQAQiWIJBwAwIgIJ8ABEs+Y0QAARAQRACCJQgk3IAACMgnAMGSzxgRQAAEBBGAYAkCCTcgAALyCUCw5DNGBBAAAUEEIFiCQMINCICAfAIQLPmMEQEEQEAQAQiWIJBwAwIgIJ8ABEs+Y0QAARAQRACCJQgk3IAACMgnAMGSzxgRQAAEBBGAYAkCCTcgAALyCUCw5DNGBBAAAUEEIFiCQMINCICAfAIQLPmMEQEEQEAQAQiWIJBwAwIgIJ8ABEs+Y0QAARAQRACCJQgk3IAACMgnAMGSzxgRypyAEn2pl15l3kw0jxOAYOFrAALx6+2MXtjKnoCj7FuIBoKAbALGcKvsEPAvhgAESwxHeFmjBBTD52bGdDNjukb7ptoUWaOnUhHNxpSwIroZJ5mJgKkP1zEzWMPMiMfaz2SI8rIgAMEqi25AI0pGwByrTcZWUvaTZXgvLwIQrPLqD7RmtQkYs1XJkGbKfrIM7+VFAGtY5dUfaA0noJjMYSim9Y+paiqGqbC4LDCKGXIlfdO+mfyA97IkAMEqy26p3EYZht6l6/EB09C3EgVF1a5rmuOSqmojcqjEUv4GUvflRIPX4gikdFZxjlAbBIoloMdjW3Q9di/3U5/0RcIVN/QNmuZ8S3M4b1A5F7VW09R7DN3oNE3Dyp9SFHVc1dTRwFDEO/LqeCPZdT/QcbO+r3aO9rGtDwIQrPXRj+viLAzT6OMnsiBWKSdVT8c0xm5wgWo09NgRwzB6Uo4zXr5RjxsbfVd83sGXxniaAmOOWlckt2A5U6abqfup3rFfLgQgWOXSExXeDr5u5TQNY0kCp/fZk8z7rTcsMk3/9v7ujs8/5onrsb3cbolYpaJTNGaJVWpZtn1TqYoqdw1oP5stjpWeAK4Slr4P0IIMBEisYsM+6+X79hu0OK7wKeJABnOruHFHHdv6ZDfrPdF5uv1Ac851L0VtCC34S91fKMROORHACCtLb0z55p10uLWpJpbFDIcEEOBXAmOKqk5xQWpI545P+QxVUXL2Q1Wrm/X+Ujtzu6ov2Lu6uChYjuALW3SzY8Z075lJ1waUlZ4ABCulD/7fT053/vytS50XLg+13RicbPUHIx46XFftDm/p3TC1d8fGiUfuHRj99SeOjKZUw64gAqqi3tSZvoG7s9axmp86ak0JeWKD0fDxgzcMvlLFrxpeyjXKIhvLliUne1kaqPX4mWlwA/4KntnGan//zSzWOFRiAjZ6NNHC8PiVvylxW6WFf/YHJzd+5ydntv7i/I3N86GIO1ugmip35P79W259+onD15/++PGhbLayjk3Pzjv/5YWzHa+9fbXj4vXhDePT/ropr7+O4rU21/nbW+r8u7Z2Tz54qH/sE48eHGtpEDdCfPGND1p++tp7G89/MNQ2POFrnA9GGh5/YKfy2NGB6O7+TtbT2eR0aKrBr9h5+cNAvHzUNOp0OG+ZJss5OqL250proEV3PR49unzRnerSpqrqHc3heoNfNbQ9SlK9n/m8VTc0xuLdL37VcoT/rSoBT/v2Z+wErHjB+uM//6c9//jcW3snfYk/eDvQyGZDU53/333k3gtf/s+/9p7dOiLs/uLvfrr1+y+c2/b2+7c22fF3aPfm208+es+1P/rtX75uxz6TDR911n3lmy8OPP/6+zv882ErO7yrrYH90e88yj7zbw5nqmaVq5r2AU9LOMtFJJDV8O7BXImj2dIaFEW7w3O2psiVMRey2qnWVy2uU6VpgDr5qYRgRb0QrDR8VqPIrmBV9JTw81989uA3//XUIf6vv23hTnYeCdxXvv3zozOBkOurf/r02WS5rPdT5643/tU3nt/941fO78qnvSRsZy/e6uWjx44//M3H3z92z1bbI4/kuXzje6d6vv7d1/e+d3V4Y7KM3j/3qWM5xYrsDF3fyUwl4nC6rOnWP//pa3vP/ODKHjp2+OPb3/vkFx+8QPvJjdaelLtdwvdXbM5xPyWkD+qdjedWHOQFZjDmip4d6o/e8m6h467NzTdcBzdeVaqdaa8CKkZ4wY0SilRrE/4uFopZI1ZW5fTrbXUjZpU7uGCEnZIRqFjBopFVoWKV7C0SDvLRWFsVlTnS4iK14b//zXMH375ob1SVbF/yndr5o5fP7x6dmK39L8985OxHP7R/Mnks1/t3fny6639/8+eHbw5N0drSku2pjx1Z8jnbB77utJMftwSLxCrgC1mCQPvLBSubH8e7t3doV8YOkY2yvePt+L5Nl5P2pmnyVC0uWBHdET47fDxZHvYOdzp3d97MKFjxRS1Sx/1d2o3JE8m6lj+Tvahvdl9LLcN+aQhUpGDRmhVNA3ONVOrc1vef+SN6xt4hH+Rrz/auGRlrWjSy+vLXf3qgULFKbTj54L6Mpvra03ZGWq+/fa3pr7/10oF0YpXq186+bhiKdcnVjnEGG210psUSq0jMesIC7cc3NETjG6qaTMPsNpmZSDpVYiumnnEWO6bp2lU+Nb2dwT2K1wCBihQsWmBPt2a1u83DjvfUskNd1exAZxVrrU7gmQrG2TujIfb2SJCdvBNg708sTiGoj8kX+ZQhWH/598/vfvPdG32ivkvki/sMHrvn90/m8vns90/1L58Gptb51g9Psy985qHUooz7p87dnDlxzJoFWtPA1Cnh8kpKKGqtKS0vp3mgqSYni9Z+raHqj/Ep5xJTU1NqnMd7mH7DZ5VrW5qY6WBb6NYfNWYwfkO1Va7w/eWb2VxzIq6pTIkkrhGYbiczG6pO8DYtGXUtr2fns1nlwoK+HVBZbCpOsCh1ga4GpjLZ3uJmTw40so9ub2CbG12ph6z9zlon6+x3sif669mtmSj78ZVZ9v1LM+zK9OLDKckn931FZMrDn/3tc/3PvXp+14oGFVlAPrnviT/5vY9czeSKrga+euZKVqH8+ndPsab66pzrWN/+0Rn2jX/5RRVTHC0nju6cpilgPtPAZBvNxmqmD3Qz7dKwVRTb1cXijVXMFT7FnJFERnzMfZRFPceYY88Gpm1tsuyUqsTXXI2OcZXjYqV2Mm08xNSpxFq8kbIyZzo1ZrZaA7hk2IV3Mx5nkeFbLDI6aJW5O3uZu3szP62K+zNaYLLaOxVHmvKsUlMXjvfWsH9/ZAN7aFP6L+nyDiFB+8K9G9je9ir2f05PspOD85YJ+STfIgXrhy+f35Jr2praPi0xcGA6DUWybOSTfGcTrOdPvt89Me1Pm8SZdD0yMcv+61d+xE6du8GOHuhjA1s72I6+dqbxEUqEj1Cqq1xM1w3W0VrH2lvq68gnCVayvt13/qgZniXF/+PnZ/LRktrs5kvyCtO5WNFGYqUaiWsJtE+CRVtSqGjf6T/H3DOv0C7Tqx9l2vWUJbkUwbIMMvzPjMfY2HeWZvf0/sGXIFgZeMkorjjBoqTQJMgP99WxPzzaxvZ3JL74yXI77yRwDXyN66/emGAv3fRbVVJ92/GRzebr//xaD13dy2bTV6ux/jqV0XtvtcrqnAnF8sdMNhg02M2Azq76E+/L/Zy9eLuXYnzukw/eWX6MPr9z8Y71FIR0x1LLAvMR9t3nz1kvKv+l4wM81eERtm9Ht2XGk7LYift38LsFatlzr1zq44XvWgds/I+vSTGdi5WuLJ26GXyklc9GIysSKyWeeHCD5qfZ8CfycQHbMiFQcYJFGezEfmO9i33uYEtBYpXsOxI68nGVTw2H5qIs6Tt5vJj3196+0pFpdNXuUdnxDQ52X6uTNbsSIpUaq4oPtdq4zeFmB/NGTfbmVIydnIyz8fDiHz6/oqZQjEyCdfX2+IKwp/rOtf/ZXzmyIFaptiRgvrmgxT61PNt+OrFKZ0/TwNQpYTqbJWUKz6ffrDDVt3L6v8Ru2QfF4WQdn35myZSQyrCtHoGKEiy6NzB5u81T+5psTwOzdQeNtMjX/3x9nJFviiHi3sOL10dS5iyLLdjdoLFHOlxsb2PiCubikfR7JGhPdLnYxmqN/Xwsyt6fXVygzhRjwut3+QOJ5ND0XpeWVjlM1lUdZ/s217OHDtIgKv12cFev5p0NNDc31PIs+OwbzWppKmhnoylgchqYzt5wdbBI44fuTgn5VLLhAWbUdjGjIyHgamKAnK7qkjJaq/Js2ma9lhzAh1UjUFGClaRKVwM/vSexIJssK+adfP2IL8R/MJU2L7Eg17eHp1uWVySx+mSvm/Xw6V++Gwlco4vfdTQYWRCtdDHy9dtdE2cDjVHWUxtnTXXZp2oqFyB7EpRvKxL2ybEmrW+R1qWKnlF7kMVc3bxcYaar06pgOvPnWFjLUEsUgYrqMRr50I3MD/TWLqQsiABJ6Q/kk3yLGF1N81FaILj0nkaaBtLIqhCxSp4j1SUf5Is2ikGxkseT723NddG6Wk/W21nItr8hxo62hy2xos++qWl280rGC4/s5uVr7PQLP0s7cqT6qRuJTzL9ILU8077GHwHvMhzWy2lozMFzSJ385eZl9KLPzNm1IFaZ/KC8vAlUlGBRV9BTFw52Zh8JFNJl5JN8F1LXTh1as7I7Dczmj3yQr1xb/6b2iWw2NLLa3xLhC/2L62Jkf/qVk2z49uCKqlR29rXX2RsvvnzPL156tWeFQZoCjY+GSIhybWRDtqI35dIY0/7prPWifWylJ5D7m1v6NgptAT0iZmv9ZK9Qp9zZVn6pfa9jQ9Y/crsxW/hIsLbaHZkNJG7epauAtMAuaiNf53w68zJXhGKl83tgV8/46Qs30y5I0ZoVTQOXixX5uXT+guXuyIeOs77t/dY+jbpIyO4eq3/z5Zd3bd25fXpDZ8fiPTGW5dL/0dTOwYWIp3EupjXcnVTSMZXP+VT6T4ZY3fEx7VunmfpqYsSoPNTP9GceYGaPuKWEpWeLT3YIVJxg0fOs+sZn7bDJy6avycUe2TkwmlelLMabulum3708ZGUIUepCuquBWapnPUS+yOdYfUvGnKjHj+8e/sEL52bT5WLRAjutWWXaSJjo1dSaWIajqWLqNnj95qbzb56+8egnPpZ5/phSgQSJj6ESi1Ip5ditPAK5x9vrjAkldvInVwpf+yWfIpNGd23tWrhBmUZYojfymRpjuX9K8Hzo8Paby8vpcwcXLDsbCdVysUrWu3HlSmLlO1lQZu80ktKfOsL0//Bw4sX3MboqfSdVnGAR8qjmXnFzbLFdIdrng4e2jyl3hZWSQkVv5JNiZPP79JPHru7p7x5abtPmWUyNWH7M7uexoWFbial2/cmwMwc6mP5rB60X7WMrPYGKmxIS8vqWpqnY5Jj1eBNRXUA+RfkiP5TQ+X+/9/rgO/wJC8kMdpH+Gz2a8VsfPzqczecDh7b5vvDUh9/58td+6k4+sYHfe8xoDavYLTQfrI5GIprL7V6hfiEl69JWsaFX1E+9KUtmbA/LL1F1RUNRwJcGKnBztLQKWRxPRSfD58ce3n9D4WlDqXFE7TtUdenlvQyOP/3RIyN/8BuPnEk30spQBcUgII1ARQqWp2fLkOJ05cwzskudfJFPu/Z27ejm5Mcf3H+R7g0UvVXXVAc1h8OWaP3mrx6789df/Mxrn3r80Ds11Z5QiD8PtNitisdPN7oq1m++9fmP9fBH1ixe+VONnEn4+YaAvUACFSlYzs7eaVf35suiOJIv8inKX6qf//Rbj78fclYlHgmReqDI/fq21rymsDwdxP/V//b0W3/3P377uaa29oULAoU2o2Nj93ihdUXW4z9qweLuh5jh6GMxz0f5lUhh/46JbCZ83SVQkYJF516z555LjqbWokdF5IN8yfpG0ZNBd+zZlvZqXTExm3u7C5oW09XDX37s6HvFxKa6W7ZvF5YCsrwtJn+kDb1sbYqbRat+nYXqv8QiNZ9jhtZtqxqMSkOgYgXL0bzBX71z7wWttr7g0QLVJR/kS2b3Hf3w/Vc1j0fYSrS7pjrQObCjYMHYf9+R4d6tfbcLPWeqSz4KrZ+pnsmfPGoEgsyY9SdefJ/Kcm38J+r5c/1qcpnheBkQqFjBIvae/t13ag/c92YhIy2qQ3XJh+x+3Lh/12TP3l1XRMXp3LXzGvks1B9lqN/38MMX6xrqEw+YysMR1aG6ubLc83C5YGqGo4xezOBrfvy18HnBAjtrnUBFCxZ1nnvLjpG6ex98w715+ztqVXXOFHiyIVurDq+7Wl+AgRMPXG7u2Vi0OJIP8lVsu+//8EN3jp54+Fw+okW2VIfqFhs/XX0zsvJpGenK0tVF2dogUJF5WMu7xtne7Wto734rNjp4PXLnVndseqJdn/W1GbGo9ShSlV8F1BqaJpwtbePuns3DshbYl7cr9XPrlk2zO08cu3D+hz+rnvf6Vjx6JtU2035Nc9M0+SBfmWzyKX/8k09ebmhuCdK9gXS7Tba6NA2kkZUdsXJ6PNlcZT7mmOe/Or/0iqrCE8cK9pc5Eo6UiAAEKwU8CVGqGOnhoJXpp7mr4kxZ9pzeZD2TPyog07GkjaD3rcfusy4SfPDiqb3eO0O2nniQDE0jKxKrpI9kebHvJEB0IzPdG0i321AGOyWFkl9KXaCrgbTATmtWMqaBqe1XqzxMn196lY/KRG+mkVjQV9SKn6CIRpvTHwRrGSL+L7Rbj8S7zbjeZupKs6GbjbFAkD/5jmV6XEKMC1ZE1ZQZRVO8ikOb0NyOYf4ve2SZayEfSXAaOjr8l158fcfoxQ+2ReaDqYnaK2JYC+x8zYqmgaJGVsuDkBDdvZHZupmZMtjJZrXzrEic+KOfmRFOoFc9biZSsPT5AItPTzM9kLizS6urZY7mFqbVZO2C5bjwuQgCEKy78EiojHCsPx6JbzN1M5/nmfMfrjOdRtysZXG2kfEfXdXDsQmH23FN9TivyhAuEp4Ht2x6a+j8xZujly53egeH2+YmplrjkbA1nHC4PWHKs6LUBboaWMwCez7fLS4W/B5wxchHqJJ18omTyZb/Y8Ec9bXMrE78qAh9FrkZXKhiE4vpY0Zwnqn8Ka4QLJGUs/uCYHE+ekTv1UPRASNuZF2HyY5y8SgJXiwYa1OjerdW5bqkubXBxaPi9kiIUsUoEgy5HS5nLFMGO28Xn8Pw3/jS7N2Wk6ul8/5g4+zMXFcoGGqPhMMbOL8q/gvPNBq1vWmqGlEdasjt8UxWVVeNNzTWj3j4o2+K2UQLVba2GNEIi44mMkS0+jqIVzZYAo5VvGDFg7EdfER0gI+wsv4GXyGsSQDN+UijqTurHNXOoq/MpbbBPzPbMDfu7QzMBtoioXBTNBxu5Ofgol/DSbVbvu9wOIKa2xng4jBdVV872djWMlbXVJ/4Ub/lxhk+63HdOTYysWNuZm57NBLN65dwlrskgdOjhjsWDTQG5gL9s77Zqe37hPy7sTxU0Z/V2lrmbG9nuv/ulJB/1mdmmBG5OwX1VrPq3XuKjgMHmQlUtGBxsdoZD0X5g45YYg6RmVPBR0gIeYx7uQOFi9YHBTu6W3FqaKzbOzbVF/DNborH4nlnO8bj8Wp6ReZDbTOT3oHJO6P+2sb6O03trbc29HQM5WpfMBiqHxsa3++f9Q/ksi3keLECWEhMu3Vo6kev1EX34PtSc4btNq1i7CpWsPRwfCMfWe2XKVYL3yIuiBSLr2cFNI8jpygs1EvZoStvI9cGd/vGpnYbui7sOSXxaKxuZmJ619z0zBa/d+ZSR1/Pper6msQQIiU+7YZD4drRwdHDAf/8tmWHKupj6tVB9+bNTJ9LiBZNCbHJJVCRgsXvM6vhArJbxjQwU3dRLIqpOlUfX0PK62Zm79hk+9jNoX0B31xfJv/FlnMR9EwNj9/Dp5cNnX0b321sX/kIHj4N3LMaYuXIaxWs2DMvrr7Dza8QNtu7SmhKuW5cXPvXWu2KFCwjEu8TtcCeT4dTTB57WKt2vWe33uyUt2Xk2u1Dwbl56/nudusVauf3zm7RY7qbp2q8xde3Fm7fmRib2jLnm9tdqF/UAwERBIq7HCOiBavsg4903Dx1QdpIJdfpUGxqQy47Oh4KBGtGrt3Zv1pilWxT0B/oHr1xZ28klPjVHr4w7pjzzW7jC/pi8wSSAfEOAjYJVJxg6dFYJ7+832mTj3Azik1tsON44vbwNr6uVJL1Ij7S2jZ2Y2g7tXN2eqZzPhDcbKfNsAEBmQQqTrDMmFHyXxOw04b5GX/DzIR3q8zOz+XbNzHdH/DONvF1q5Izy9VWHK8MAhUnWHwdydZPpcvsfjtt8I1PdvMFcFs5Tv/w6ruMXpm2d2+Psz9+9meZDmcsj4Yizb6Jqa5wOGKrHRkd4QAICCJQUYJFt4HwJ+KW/NoztYHakq0P57xztqaN5GPfpnb27q3FW0ay+c33WGDG3x6LxurzrQd7EJBBIOsfjYyApfRppYCb/J6/Um+8DVZbsrQjPB/M537GLJ4SgkYGNNLKd+MJpq16LF5ykc+33bBfnwQqSrBW6zEwtr4qWR5Jw7O9XVwkrEe02PIl0Yiy4vkTpirreyKRJ1wXRwBfxOL4SantcruiolMIPvuhfewfXsm8zpXpRAzdEJZVnykGykHALgEIll1SZWxnrWEVMN0r41NC00AgLQEIVlos66+QRI22Qtax1h8NnNFaJQDBWqs9t6zdGGUtA4KP65IABGtddmv6kyp0HSu9N5SCwOoTgGCtPnNEBAEQKJCA7ac1TIzPfb7AGGVVrV4rj/t3S8EzdR0ruV9WnbPOG1OKPl9DSJ+x01aMsOxQWgM2+zbzbHdcKVwDPYUmFkPA9girmCCoK5/AZx/aZyvIl59+zJYdjECgHAlghFWOvVLhbTKW/XrzesDBfy4RmwACECwBEOFCLIGgPyzWYRl4i0USvxZdBk1Z002AYK3p7lufjZ9fj4IVxRBLxLcVgiWCInwIJeD3zbNIOCbUZymd6XGTRUMYYYnoAwiWCIrwIZRAYDbEJod9/Pf/1v6ohNaugnM6i0bW/rkI7eQCneEqYYHgUE0uganRWf40IIW1djUyt8cpN5gk7zSyCvoNFgxgdCUKMQRLFEn4EU5gcmSGBeZCrLG1jtU3VTNPNf36mPAwQh3SiIqEKsKngOGgweJYuxLKt6IEq5y+69QWTBJyf5dDgQj/ubMIG73FWHffZmbo5U1N1ZSyb2Nu6uVrUVFrWPRVL4eve7m0o3y/lulbVu5iRa1eC21MT3dtlAofYf3khX8t6zN/+PBx1t4i7HHpBZ3rxPQEe/nMyax1B5p6sh6vxIPl/t2qxD7Jdc5PPPoruUzyOl5RIywiM+OfzQuQDONcbSinqatZFmNSGb0An2uRgPARVrlDmJrxsh0lbiS1IdtGU0bf2QvZTAo+1nRwb151o3qcefKqAWMQkEeg4gTrUMTJwm+eFU7Uc99BWz4nfdNsbCr/n9uy5VyCUURfPwmcEvDA5SoTqDjBWmW+K8INjQ+zuK6vKC/XgmA8yt752veENO/A7/5qwX50Q7fysvivCRXsAxXXPoGKW8MqZZeNTo6xwdGhUjYhr9g0HZyPhfKqI8tY5yIPsZJFd+34hWCtUl/NzfvZ1cEbLByNrFLE4sPMRAMsasSLdyTAQzi6/p7gIABLxbmAYK1Cl0djUXb51lU2uobWruaiQeaLzK8CHXshQpHyGOnZay2sZBHAGpYssnf90siKxOrG0G3JkcS5D8TCzBvxM8Msn3vg5kNBcScIT2uWAARLYtfRmhVNA9fSyMrP16ymQnMsrEclksnP9dz8HPMH/flVgvW6JADBktCtUzx14Q6/GkgL7GtlzSrOr8LNROfZLJ8Glsu6FXUNXR30zvFHzeDqoIRv6tpzCcES1Gfj/HYbymCnpFDKs1orqQskVDSq8kdDbD5efgvb07NeznVGUC/BzVonAMES1IO57g0UFKZoNzF+1S/GRYoSQmnaF+J5VuWaHOrjI6vpmemizxkO1g8BCNb66UtbZ3JtdtSWXamNpmen2bh3gtEVVmwgkCQAwUqSwHtZEAiGeToFH1l5/T5GyaLYQCCVAAQrlQb2V50ALabH4jE2H55ngeC8dTUQo6pV74Y1ExCCtWa6au039J0r51echKZq1pXAFQdQAAJpCCDTPQ0UFK0eAUpbwAYCdglAsOySgh0IgEDJCUCwSt4FaAAIgIBdAhAsu6RgBwIgUHICEKySdwEaAAIgYJcABMsuKdiBAAiUnAAEq+RdgAaAAAjYJVBUHtazX/szu3FW2D39u3+yomxVCs6szAUSEVf076+d+9tnRTRrhY9C2vmTV//XCj+FFBQSu5A466mO3b+x1L+nQurky8xuDMbE/i5hUYKV70mWg3308P5yaAbaAAIgUACBihOsAhiVpMo9v/d0SeKmC/rEl/5jumKUgcCqE8Aa1qojR0AQAIFCCdgSrJGRM9WFBkA9EAABEMhFwK7G2BKsrq7D+AWAXMRxHARAoGACdjXGlmAV3ApUBAEQAAGBBCBYAmHCFQiAgFwCECy5fOEdBEBAIAEIlkCYcAUCICCXAARLLl94BwEQEEgAgiUQJlyBAAjIJQDBkssX3kEABAQSgGAJhAlXIAACcgn8f9K1RVbnoQbWAAAAAElFTkSuQmCC;clipPath=inset(2% 5.33% 0% 5%);imageBorder=default;strokeWidth=2;" parent="1" vertex="1">
          <mxGeometry x="440" y="470" width="200" height="150" as="geometry" />
        </mxCell>
        <mxCell id="RDkZVvZF06zk_Bv5mJ8z-12" value="" style="shape=image;verticalLabelPosition=bottom;labelBackgroundColor=default;verticalAlign=top;imageAspect=0;image=data:image/png,iVBORw0KGgoAAAANSUhEUgAAASwAAADICAYAAABS39xVAAAAAXNSR0IArs4c6QAAAERlWElmTU0AKgAAAAgAAYdpAAQAAAABAAAAGgAAAAAAA6ABAAMAAAABAAEAAKACAAQAAAABAAABLKADAAQAAAABAAAAyAAAAADOaDBdAAAfD0lEQVR4Ae2deXAb133H3y4AArxJkeIpSqIkUqJOW5IPyUd8pY6TOomTtJ4mqZM010zT6UzTNJPpH8n0mLbjtulMM/kjid3UztFJ6iZx7PiY+D5kW5Ily7IkS5REifdN4j53t+8HGtQaJIAF8B4BEN/VYLB4x/f39vOgL9++fbtQWB6bMXymKaSq25mq9nKZzYrC6hkz7HlIoioIgMCqIqDEDIO5+SFdYLp+zqXrp5V1fTO5HqKSS0Wjv98ZqmHXK6pyLWP6llw0UAcEQKAcCajnDd047GpjrytKTzhbAlkbljEw4Aq6wnerqnpHtsFQHgRAAASIgK7rz1SGnI8p3d2hbIio2RQ2jH4nzCobYigLAiCwHAEa8JCX0Nnacvmp0rIyrNA4ux4jq1QokQ4CIJANAfISmlrKqo7VwjTBvjBnZbUGyoEACIBAegLkKeQt6UtdybU8wopfDcQE+xVy2AMBEBBAQN+y4C3WpCwb1ntLF6ypohQIgAAIWCWwsCzKUmnrhsXXWVlSRCEQAAEQyI6AZW+xZFijo0erFhaFZtcKlAYBEACBTATIW8hjMpWjfEuG1dGxP4AV7FZwogwIgED2BAz7gsdkrmnJsDLLoAQIgAAIyCcAw5LPGBFAAAQEEYBhCQIJGRAAAfkEYFjyGSMCCICAIAIwLEEgIQMCICCfAAxLPmNEAAEQEEQAhiUIJGRAAATkE4BhyWeMCCAAAoIIwLAEgYQMCICAfAIwLPmMEQEEQEAQARiWIJCQAQEQkE8AhiWfMSKAAAgIIgDDEgQSMiAAAvIJwLDkM0YEEAABQQRgWIJAQgYEQEA+ARiWfMaIAAIgIIgADEsQSMiAAAjIJwDDks8YEUAABAQRgGEJAgkZEAAB+QRgWPIZIwIIgIAgAjAsQSAhAwIgIJ8ADEs+Y0QAARAQRACGJQgkZEAABOQTgGHJZ4wIIAACggjAsASBhAwIgIB8AjAs+YwRAQRAQBABGJYgkJABARCQTwCGJZ8xIoAACAgiAMMSBBIyIAAC8gnAsOQzRgQQAAFBBGBYgkBCBgRAQD4BGJZ8xogAAiAgiAAMSxBIyIAACMgnAMOSzxgRQAAEBBGAYQkCCRkQAAH5BGBY8hkjAgiAgCACMCxBICEDAiAgnwAMSz5jRAABEBBEAIYlCCRkQAAE5BOAYclnjAggAAKCCMCwBIGEDAiAgHwCMCz5jBEBBEBAEAEYliCQkAEBEJBPAIYlnzEigAAICCIAwxIEEjIgAALyCcCw5DNGBBAAAUEEYFiCQEIGBEBAPgEYlnzGiAACICCIAAxLEEjIgAAIyCcAw5LPGBFAAAQEEYBhCQIJGRAAAfkEYFjyGSMCCICAIAIwLEEgIQMCICCfAAxLPmNEAAEQEEQAhiUIJGRAAATkE4BhyWeMCCAAAoIIwLAEgYQMCICAfAIwLPmMEQEEQEAQARiWIJCQAQEQkE8AhiWfMSKAAAgIIgDDEgQSMiAAAvIJwLDkM0YEEAABQQRgWIJAQgYEQEA+ARiWfMaIAAIgIIgADEsQSMiAAAjIJwDDks8YEUAABAQRgGEJAgkZEAAB+QRgWPIZIwIIgIAgAjAsQSAhAwIgIJ8ADEs+Y0QAARAQRACGJQgkZEAABOQTgGHJZ4wIIAACggjAsASBhAwIgIB8AjAs+YwRAQRAQBABGJYgkJABARCQTwCGJZ8xIhQ5ASXy/Hp6FXkz0TxOAIaFrwEIxC60MnphK3oC9qJvIRoIArIJ6CPNskNAXwwBGJYYjlApUQKKPudk+swaxjQb7RtqY7hED6Usmo1TwrLoZhxkKgKGNlLLjEA1M8Ku+H6qgkgvCgIwrKLoBjSiYASM8ZpEbMW0n0jDe3ERgGEVV3+gNStNQHdXJkIapv1EGt6LiwDmsIqrP9AaTkAxmF1XjPgfU9VQdENhMVlgFCNYkdCmfSPxAe9FSQCGVZTdUr6N0nWtQ9NifYaubSYKimq7YLPZz6iqbVQOlajp/4B5X040qOZHwNRZ+QmhNgjkS0CLRTdpWvRarlOX0CLjiunaWpvNcdhmd1ykdG5qzYahdema3m4Yenz9lKKoE6pNHVMU2xA3t+lEfbyvLgIwrNXVnyV9NLqhd/MDWDQr08HUUZ6NsYvcoBp0LXqNrutdpnzG09dpMX2dquptiqK8xg1s3pyfet9hOt0076eugZzCEcCke+HYI7KJAJ+3chi6nnIBJ+UZuuGKxaK7ks3KJMNHX3oXlTEMg/tb5s1QKiOJUub9RBrei4sADKu4+gOtSU9A4aeIfemLMEZlVKYomcpRvqLWBxfLmfcXE7FTTARgWGl6Y3rO76BXmiLIEkSAXwmMKqqacu6J8lRFiQoKtyhjKG2+xQ/m/cVE7BQTAcxhmXrjl08eaX/28Jn2k2eHWy4OTjV7A2EXZddWOUOb1q+d3rV13eTt1/aN/fFd14yZqmFXEAFVUQc0pq3lcsnzWB7K0/lMFb9qeCbTKIvKxMuyzIMsxdbpZYozxJhNo30saxDUmZJkYFgc7MOPvrruF08e3fz6iYsb/cGwM5n1vC9Ydez04Hp6PfLUm+GHHj106d679l+472M3DCeXXYnPM26/4zfPHGt7+c3+ttMXRtZOzHhrp2e9tRS7eU2tt7Wp1rt9c+fUTft6xj9+x97xpvpqYSOT5157t+mpl99Zd+Ld4ZaRybkGfyBcf+eN25QPHuiL7OhpZ13tjQ67TdX5FbtZ/jCQWT4yGnPYHZcMg2VsA10F5OVD6ZY12O2Ok1rMqEk1j6Wq6hDXOckn3jUrfUH3DipqyxSVxX2EVogVtkzmP0HvtS80ce4HhW2qnOjf/Nf/3fk/TxzeNTW38B/eapS1jbXeP/nwtSfv/5s/esdqHRHl/u3HT23+9TPHt7x56tIGK3r7dmy8fM8dV5//xhc+dMFK+VRl+Kiz9ns/ea7v6VdObfX6Q/HV4R0t9ewbf3YH+/Qf7k9VLZ6u2mzv8mUJx/iVuyunX2lqZFo4KnpZgxJ44BpqjlH1pSNpmoUsiQRcrb1ftSJf1iOsr3zn4b0/+e2hffyvv2XjTkAlg/vez589wEdfFT/8u/uOJdJlvR86fqHhuw89veN3L57Ynk17ydiOnb60no8e277+uTtPHbx6s8XL/VeO5KFfHep68JFXdr3TP7LuSipjX/zUwYxmReV1TdvGDCVsd1S8Ya6fap9WtivvdQnfX7ItrLOyTdts7PiSzFwS7JsncqmGOitPoGwNi0ZWuZpVopvIOEijoaYyInOkxU1q7T/94Im9b562NqpKtC/xTu18/IUTO8Ym3TV/+9UPH/vIB/bET4ES+enef/G7Ix3/+ZNn9w8MT9Pc0vu2z9wdH5i8Ly3VBz7vtI3nWTKsVBqZ0hNLGayeDib0jIpbBxP7eC9uAmVpWDRnRaeBmUYqtc6FpTzecOrpENIgrZ29HfMy5rRoZHX/g09dlatZmb9+pMG19Ma6miNWRlqvvHm+8fs/e/6q5czKrGtlX9N1RcblVj6X1ajr0W6+RqvTYEZ8sp6Pzjx88tzPT/IcfJ6+ndqnqvZLiqoM8FPTy1baizLFSaAsDYsm2Jebs9rR4mI3dNWwfR1V7Kr2StZctYBnOhBjb40F2ZujAfbqkI+dmuQXlUwbaZGmDMP69/9+escbb1/sNoXLa5e0uGbg4NV//momoYd/fagn+TTQXOdnjx1hX/v0zeaklPuHjg/M33ZwZ8p8c4YSjHzF/DnVPjcopqs641cE31eEp1e/L4F/0PVYLy/Yq0Z1xm+oTs5ekc9GZcUPVyTQKg5SdoZFSxfoaqC5T3ubnOyevgb2kd56trFh8eb9xSLtNQ7W3uNgd/XUsUvzEfa7c2726zPz7NzMlYdTkibXPidyycO//OiJnideOrF9sSGCdkiTa09+68sf7k8lSVcDXzp6Lq1RPvjIIdZYV5VxHuvnjx9lD/3m9Uqm2JtuO7BtJlXMbNM1PjufbFaZNMjeVGZpEXwmKeQXgEDZLRyldVbmpQs3rK9m376lnX3t2rXLmlVyn5ChUVmqQ3UTG2mSduKziPfHXjixKdNpqzmOjQ8c6JVpI03STlfu6VdPdU7OeOvTlRmddLNvf+9x9hf/8EtGo61jp4eYPxhhoUiMub1BFo1pLBSOsrbmWtbaVFdLmun0UuXxR83wWXiNRVSNhdVY/EX7mqKnqpIynUwOW+kSKLsRFi0KTXTXrd217OsHWtietvhV+kSypfebN9Swej7H9d3XJtnzA954HbO2JZE0hR78v5e76OpemiKsu8bGemrV+Pv6KpXVOhbcyhs12GBAZwM+jfV7F96TdY6dvryeYnzxkzcNJefR57dOD1n6FRmfP8weefp4/EX1/uCGPr7U4Xa2e+uCN/FFWey267ey5sYa9sSLZ2jE9jaVs7LRKR8ZzHLGRHnYyo9A2RkWrWCnbl5XV8G+uLcpJ7NKfE3I6Eijn58aDnsiLKGdyM/n/eU3z7WlGl21ulR2w1o7u67ZwdZULB1SVfJhVgsvs3+Nnc1GDPbGdJS9OhVjE6ErIxJ+RU2hGKkMq//yxKKxZ3Mcn/3oNYtmZa5HBjbnCcTZm9PT7acyq3R1MuXZCjR/laldyLdGoKxOCem+wMTtNp/Z3cholJTvRhqkRRtpi7r38PSF0SXLCCjGjnobu3eDk93VUbGsWVEZ80aGRmWpDtU1b6liTM56K7y+hcWh5vKp9ivtBttcF2X37K5kN++lQdTy297t622zbh//hZrMG42f6FRQ9KbipzhFI11RvbIbYRFduhp4784FkxFBm7Qe5xPx704vPqkkb9nLIzNNySJkOJ9c72Rd/PQv221Xg401VPC7jgbD7JR7YZnGcjGy1e2sjrG+hgjrqomxxtqqtNVVbkDiLehKyMRYkxadkteZTY9GVmRWhbpCeKWV2MuHQPbf/HyiFbhuc2N1lG5kvnF9zeKSBRFNouUPpEnaFCNfzRk+EvQF3n9PI50G3t5WkZNZJdpDRkcapEUbxaBYifzEe8ua2khtjevKY1cSGUnvPfVRdqA1FDcrypqbnmED51JeeGQDZ8+zI8/8ftmRY5J0fJ17NuZi44+Ar9Dt8ZdDtzE7fxyWg7+cPI1e9DkbveT24HNxECgrwyLk9NSFve3pRwK5dA1pknYuda3UoTkrGiXlu5EGaWXaeja0TqYrQyOrPU1hPtF/ZV6Myh958VU2cnlwSVVKO/byK+y15164+vXnX+paUmCZBBoVkRFl2qgM5qYyUVod+Zm/DavjOBePgh4Rs3nNkgcyLObnukOapJ1rfXO9Jj5Kq6lyLi7yoquBNMEuaiMt0qQYFGs53au2d6W8v47mrOg0MNmsSOfMiZPs2UefiL+HgiFGL3Oa1+2pe+OFF7ZPjY1n/KtBp3Z2bkY0UiJDon+JjfYpjfKojDkvUQbvq49A5j+1q+yY6XlW3RNu4UfV3VjBbt/WNyZKeENn08zbZ4fjNxvT0oXlrgbmGou0SHO8rinlIs47b9gx8ugzx93LrcXqqIotngYu1wYyKHo1Ni9Mw9GponkbvDCw4cQbRy7e8fG7U58/mirQqVx8safMCTBTPOwWL4GyG2HRSnT+5ErhX33SFLnKffvmjsUblGk0JHojTXOMZH1akX7z/t6B5HT63MYNy8pGRpVsVol6F8+dE7rINqGL99VNoOwMi7ozYnNaei5TNl0vWvOmfb3j/KkDcWOlRaGiN9KkGOl077vnYP/Ons7h5DItrtQ3gyeXTfV5fHjE0sLUVPWRXp4Eyu6UkLq5rqlxOjo1Hn9Cp6huJ01RWqRDCzr/61evDL7Fn7CQWMEuUr/BZdM//7EDI+k0b9y3Ze5rn7n1rfsfeMqZeGKDyqeRaA4r3y3oD1RFwmFbhdO5xP2CSiBf+aKs72JL71MtyoYWcaPE/+ku4oNNNM3e1CxkcjyhR+8yNO++Zc9F/tsv+buDuaHv7dv5D/gtk7wk6d6PXDP6l396+9HlRlpLCiMBBCQTKEvDcnVtGlYcFRnXGVllT1qkabW81XL0NIU7b9pzmu4NFL1VVVcFbHa7JdP63CcODn3/O59++VN37nurusoVDPLngea7VfL4y42u8tVF/dVNoCwNy9G+fqaic+NZUV1LWqQpSs+s89efv/NU0FHJH0Yndqtrac7qFJYv2fD+8B/vO/zjf/7CE40trYsXBHJtVdu6zpTLJnLVRL3VT6AsDYu6tXrn1Wfsjc15j4pIg7RkfVXoyaBbd24ZEK2/Zn1nTqfFdPXwQx888E6+7dnU2ytsCUi+bUH90iFQtoZlX7PWW7Vt10lbTV3OowWqSxqkJbPLD9x6fb/N5RI2E+2srvK1923N2TD2XHfNyPrN3ZdzPWaqSxq51ke98iVQtoZFXe7q2TFUc9V1b+Qy0qI6VJc0ZH991u3ZPtW1a/s5UXHat287T5q56q1tbwtcd8stp2vr6zzZalAdqksa2dZFeRAoy2UN5m53bto6qlbXBANnT/VEJ4a79WAg7VM21coqt6N13UDV1h39jtbOObOWzP2+22486xmfbJodGrZ0H16qtqzpWjdEWqnyraZff+vNQ+7ZmeN0byDdbmOlHpnVgdtuOU51rZRHGRBIJlD2hkVAyHjqWzsPR8cGL4SHLnVGZyZbNfdcix6NxB9FqvKrgLb6xklHU8uEs2vjiKwJ9uTOMX9u3rTBve22gydPPPb7Kv/s3JJHz5jLptqvXtM4QxqklapMNul3fvKes/VrmgJ0byDdbpOuLp0G0sjKilk5XK50UsgrYwIwLFPnkxGZzUgLBeIr/WzOyhhTUjxA3KA7b1PkmbRF7G4+eF38IsG7zx3ale1Ii0ZWZFYJDRHtIQ0yoM3bemfo3kC63YZWsNOiUMqjpQt0NZAm2GnOCqeBRAVbPgRgWEn0+O/bObVwrNOIaS2GpqzRNaMh6gvQ4x1SPS4hyg0rrNqUecWmzCp226TNaR/hv4G3+LSFpBB5fSTDqW9r85557pWtY6ff3RL2B9I+NjU+wc7nrOg0UNTIKvkAyIjeu5E5fjMzrWCnMlhnlUwKn/MlAMN6jyAZlR6K9sTCsS2GZmTzPHP6sU6HHjNqWIytY/xHV7VQdNLutJ9XXY5+GcZFxnPTpg2Hh0+cHhg7c7Z9dnCkxTM53RwLh+LnUnanK0TrrGjpAl0NzGeCPZsvGH9OPL8HXNGzMapEnWzioGz5EoBh8b7Xwtp6LRjp02N62nkYq18TMrxoINqiRrROW2XFGZvTNmi1bjblyIjMZhQOBJ32Ckc01Qp23i5+VZj/xpfN2m05mdri9wYa3POejmAg2BoOhdZyfpX8F55pNGp5s6lqWLWrQafLNVVZVTlR31A36uKPvsEGAssRKHvDigWiW/mI6Co+wkp7dXA5eJnSyAANf7jB0ByV9ipH3lfmzPG88+56z8Rsu8/tawkHQ42RUKiBH0MF/RqOuVzyvt1uD9icDh83h5nKupqphpam8drGuvnkcuk+azHNMT46udUz7+mNhCNZ/RJOsi4ZnBbRndGIr8Hn8fW459zTvbuF/N1IDoXPq4BAWRsWN6ttsWDkGj7oyP6HCS12Phkhj3EtL65w03rXYrWUxaaHxztnx6e7fXPuDbForDplwRQZsVisil5hf7Blfmq2b2pozFvTUDfU2Np8aW1X23CKaovJgUCwbnx4Yo/X7e1bTBS4k68BCmwKpIqQQNkalhaKreMjqz0yzWqxv7khUiw+n+WzuewZTWGxnmmHrryNnh/cMTc+vUPXNGHPKYlForXzkzPbPTPzm7yz82faurvOVNVVL/u8MP6445qxwbH9Pq9/i6lp2AWBFSNQloZlaHo1N5AdMk4DU/UcxaKYqkOd43NIWd3MPDs+1To+MLzbN+fpTqWfbzo3Qdf0yMTV/PSyvr173dsNrUsfwcNPA3euhFnZs5oFy/fIV66+IeW68cq1vxgilaVh6eFYt6gJ9mw6kWLy2CO2qgrLNw+7p2ebRs9f3hfw+OPPd88mXi5lvbPuTVpUc/KlGof5/Nbi7TuT49ObPHOeHbloog4IiCJQdpdj+EjHyZcuSBupZOoYik1tyFSO8oO+QPXo+aE9K2VWiTYFvL7OsYtDu8LBYHxuj0+M2z1z7i18Ql/8w+UTQfEOAhYIlJ1haZFoO7+8326BjZQiFJvaYEV88vLIFj6vVJD5Ij7S2jJ+cbiX2umemW/3+wIbrbQZZUBAJoGyMywjqrfJBGpF20ob/PPe+vnJ2c1W9GSVmZuc6fHNuhv5vFXBmck6RuiWFoGyMyw+j2Tpp9JldqOVNsxNTHXyCXBLa5x++tLbjF6ptrcvT7BvPvz7VNkp0yPB8Jq5yemOUChsqR0phZABAoIIlJVh0W0ghs6E/lpOLv1AbaC2pKvrmfVYOm0kjd0bWtnblybSyeWc55v3tkYjUUuPj8k5CCqCgEUCaf/TWNQomWLxJeAGv+ev0BtvQ9rl6Lx9IX8gm/sZ0x4RGRptNNLKduMLTJu1aKzgJp9tu1F+dRIoK8NaqcfAWPqqpHkkDV/tXcFNIv6IFktaEgvRqniD8V+KxwYCRUAAX8Qi6ITkJlQ4KyKilxB89gO72U9fTD3PldyGxGdd04Wtqk9o4h0EciUAw8qVXBHVi89h5XC6V0SHgKaAgCUCMCxLmEq/UD7zWKV/9DiC1UIAhrVKehKjrFXSkTiMtARgWGnxrK7MXOexVhcFHE0pE4BhlXLvoe0gUGYELD+tYXLC85XVwKbOVhz37xaCp3keK7G/Gvq0VI6hEH1eKmx4O79qpa0YYVmhVAJldm/kq91xpbAEegpNzIeA5RFWPkFQVz6Bz96821KQ++/7oKVyKAQCxUgAI6xi7JUyb5Ou87X1q2wzVt8hFaSHYFgFwY6g6QgEvKF02SWZFw3rJdnuYms0DKvYegTtYf7VaFgRDLFEfLVhWCIoQkMoAe+cn4VDUaGahRTTYgaLBDHCEtEHMCwRFKEhlIDPHWRTI3OMP/teqG4hxGjuKuDRWCRc+sdSCH7JMXGVMJkIPhcFgekxN38akMKaOxqY0+UoijZl2wgaWQW8Ogv4MLrKll2q8jCsVGSQXnACU6PzzOcJsobmWlbXWMVcVfTrYwVvVtoG0IiKjCrMTwFDAZ3FMHeVlle2mWVlWMX0Xae24CQh89c16AvznzsLs7FLjHV2b2S6VtzUVJtS9G3MTL14S5TVHBZ91Yvh614s7Sjer+XyLSt2s6JWl0Ibl6dbGqnCR1hPPvPboj7yW/bfwFqbhD0uPadjnZyZZC8cfTVt3b7GrrT55ZhZ7N+tcuyTTMd81x0fzVQkq/yyGmERmXmvOytAMgpnakMxnboaRTEmldEL0CxFAsJHWMUOYXp+lm0tcCOpDek2OmWcO3YyXZGc8xr37sqqbkSLMVdWNVAYBOQRKDvD2hd2sNAbx4QTdV2315Lm1NwMG5/O/ue2LIlLKBTWVs8CTgl4ILnCBMrOsFaY75JwwxMjLKZpS9KLNSEQi7C3HviVkOZd9aVP5Kyj6Vp8XRb/NaGcNVCx9AmU3RxWIbtsbGqcDY4NF7IJWcWm00F/NJhVHVmFNW7yMCtZdEtHF4a1Qn3l8XtZ/+BFFoqEVyhi/mHmIz4W0WP5CwlQCEVW3xMcBGApOwkY1gp0eSQaYWcv9bOxEpq78kQCbC7sXwE61kIEw8Ux0rPWWpSSRQBzWLLIvqdLIysyq4vDlyVHEifvi4bYbNjLdKN47oHzBwPiDhBKJUsAhiWx62jOik4DS2lk5eVzVtNBDwtpEYlkspP2+D3MG/BmVwmlVyUBGJaEbp3mSxeG+NVAmmAvlTmrGL8KNx/xMzc/DSyWeSvqGro6OOvhj5rB1UEJ39TSk4RhCeqzCX67Da1gp0WhtM6qVJYukFHRqMobCTJ/rPgmtmfcs5zrvKBegkypE4BhCerBTPcGCgqTt0yUX/WLcpOiBaF02hfk66yKdXHoHB9ZzczP5H3MEFg9BGBYq6cvLR3JefeYpXKFLjTjnmETs5OMrrBiA4EEARhWggTei4JAIMSXU/CR1ax3jtFiUWwgYCYAwzLTwP6KE6DJ9GgsyvwhP/MF/PGrgRhVrXg3lExAGFbJdFXpN/StcyeWHIRNtcWvBC7JQAIILEMAK92XgYKklSNAyxawgYBVAjAsq6RQDgRAoOAEYFgF7wI0AARAwCoBGJZVUigHAiBQcAIwrIJ3ARoAAiBglQAMyyoplAMBECg4ARhWwbsADQABELBKIK91WA8/8C9W4ywpd9+XvrUkbUUSji5dCyQirujfXzv+o4dFNGuJRi7tfPKl/1iik0tCLrFzibOa6lj9P2b+/5RLnWyZWY3BmNjfJczLsLI9yGIoH9m/pxiagTaAAAjkQKDsDCsHRgWpcvWX7ytI3OWC3vX3f7VcMtJAYMUJYA5rxZEjIAiAQK4ELBnW6OjRqlwDoB4IgAAIZCJg1WMsGVZHx378AkAm4sgHARDImYBVj7FkWDm3AhVBAARAQCABGJZAmJACARCQSwCGJZcv1EEABAQSgGEJhAkpEAABuQRgWHL5Qh0EQEAgARiWQJiQAgEQkEsAhiWXL9RBAAQEEoBhCYQJKRAAAbkE/h859eQQZZ3cjQAAAABJRU5ErkJggg==;clipPath=inset(2% 5% 0% 5%);imageBorder=default;strokeWidth=2;" parent="1" vertex="1">
          <mxGeometry x="440" y="280" width="200" height="150" as="geometry" />
        </mxCell>
        <mxCell id="RDkZVvZF06zk_Bv5mJ8z-13" value="&lt;div style=&quot;text-align: start; white-space: pre; line-height: 100%;&quot;&gt;&lt;div&gt;&lt;font face=&quot;Helvetica&quot; style=&quot;font-size: 10px; line-height: 100%;&quot;&gt;  &lt;span style=&quot;font-style: italic; color: rgb(0, 0, 0);&quot;&gt;&lt;b&gt;&amp;lt;!-- Cake Sprinkles (Optional) --&amp;gt;&lt;/b&gt;&lt;/span&gt;&lt;/font&gt;&lt;/div&gt;&lt;div&gt;&lt;span&gt;&lt;font face=&quot;Helvetica&quot; style=&quot;font-size: 10px; line-height: 100%;&quot;&gt;  &lt;span style=&quot;color: rgb(147, 161, 161);&quot;&gt;&amp;lt;&lt;/span&gt;&lt;span style=&quot;color: rgb(38, 139, 210);&quot;&gt;ellipse&lt;/span&gt; &lt;span style=&quot;color: rgb(147, 161, 161);&quot;&gt;cx&lt;/span&gt;=&lt;span style=&quot;color: rgb(42, 161, 152);&quot;&gt;&quot;174&quot;&lt;/span&gt; &lt;span style=&quot;color: rgb(147, 161, 161);&quot;&gt;cy&lt;/span&gt;=&lt;span style=&quot;color: rgb(42, 161, 152);&quot;&gt;&quot;106&quot;&lt;/span&gt; &lt;span style=&quot;color: rgb(147, 161, 161);&quot;&gt;rx&lt;/span&gt;=&lt;span style=&quot;color: rgb(42, 161, 152);&quot;&gt;&quot;2&quot;&lt;/span&gt; &lt;span style=&quot;color: rgb(147, 161, 161);&quot;&gt;ry&lt;/span&gt;=&lt;span style=&quot;color: rgb(42, 161, 152);&quot;&gt;&quot;2&quot;&lt;/span&gt; &lt;span style=&quot;color: rgb(147, 161, 161);&quot;&gt;fill&lt;/span&gt;=&lt;span style=&quot;color: rgb(42, 161, 152);&quot;&gt;&quot;#FF8E9E&quot;&lt;/span&gt; &lt;span style=&quot;color: rgb(147, 161, 161);&quot;&gt;/&amp;gt;&lt;/span&gt;&lt;/font&gt;&lt;/span&gt;&lt;/div&gt;&lt;div&gt;&lt;span&gt;&lt;font face=&quot;Helvetica&quot; style=&quot;font-size: 10px; line-height: 100%;&quot;&gt;  &lt;span style=&quot;color: rgb(147, 161, 161);&quot;&gt;&amp;lt;&lt;/span&gt;&lt;span style=&quot;color: rgb(38, 139, 210);&quot;&gt;ellipse&lt;/span&gt; &lt;span style=&quot;color: rgb(147, 161, 161);&quot;&gt;cx&lt;/span&gt;=&lt;span style=&quot;color: rgb(42, 161, 152);&quot;&gt;&quot;184&quot;&lt;/span&gt; &lt;span style=&quot;color: rgb(147, 161, 161);&quot;&gt;cy&lt;/span&gt;=&lt;span style=&quot;color: rgb(42, 161, 152);&quot;&gt;&quot;105&quot;&lt;/span&gt; &lt;span style=&quot;color: rgb(147, 161, 161);&quot;&gt;rx&lt;/span&gt;=&lt;span style=&quot;color: rgb(42, 161, 152);&quot;&gt;&quot;2&quot;&lt;/span&gt; &lt;span style=&quot;color: rgb(147, 161, 161);&quot;&gt;ry&lt;/span&gt;=&lt;span style=&quot;color: rgb(42, 161, 152);&quot;&gt;&quot;2&quot;&lt;/span&gt; &lt;span style=&quot;color: rgb(147, 161, 161);&quot;&gt;fill&lt;/span&gt;=&lt;span style=&quot;color: rgb(42, 161, 152);&quot;&gt;&quot;#E97B9E&quot;&lt;/span&gt; &lt;span style=&quot;color: rgb(147, 161, 161);&quot;&gt;/&amp;gt;&lt;/span&gt;&lt;/font&gt;&lt;/span&gt;&lt;/div&gt;&lt;div&gt;&lt;span&gt;&lt;font face=&quot;Helvetica&quot; style=&quot;font-size: 10px; line-height: 100%;&quot;&gt;  &lt;span style=&quot;color: rgb(147, 161, 161);&quot;&gt;&amp;lt;&lt;/span&gt;&lt;span style=&quot;color: rgb(38, 139, 210);&quot;&gt;ellipse&lt;/span&gt; &lt;span style=&quot;color: rgb(147, 161, 161);&quot;&gt;cx&lt;/span&gt;=&lt;span style=&quot;color: rgb(42, 161, 152);&quot;&gt;&quot;188&quot;&lt;/span&gt; &lt;span style=&quot;color: rgb(147, 161, 161);&quot;&gt;cy&lt;/span&gt;=&lt;span style=&quot;color: rgb(42, 161, 152);&quot;&gt;&quot;110&quot;&lt;/span&gt; &lt;span style=&quot;color: rgb(147, 161, 161);&quot;&gt;rx&lt;/span&gt;=&lt;span style=&quot;color: rgb(42, 161, 152);&quot;&gt;&quot;2&quot;&lt;/span&gt; &lt;span style=&quot;color: rgb(147, 161, 161);&quot;&gt;ry&lt;/span&gt;=&lt;span style=&quot;color: rgb(42, 161, 152);&quot;&gt;&quot;2&quot;&lt;/span&gt; &lt;span style=&quot;color: rgb(147, 161, 161);&quot;&gt;fill&lt;/span&gt;=&lt;span style=&quot;color: rgb(42, 161, 152);&quot;&gt;&quot;#FFC152&quot;&lt;/span&gt; &lt;span style=&quot;color: rgb(147, 161, 161);&quot;&gt;/&amp;gt;&lt;/span&gt;&lt;/font&gt;&lt;/span&gt;&lt;/div&gt;&lt;div&gt;&lt;span&gt;&lt;font face=&quot;Helvetica&quot; style=&quot;font-size: 10px; line-height: 100%;&quot;&gt;  &lt;span style=&quot;color: rgb(147, 161, 161);&quot;&gt;&amp;lt;&lt;/span&gt;&lt;span style=&quot;color: rgb(38, 139, 210);&quot;&gt;ellipse&lt;/span&gt; &lt;span style=&quot;color: rgb(147, 161, 161);&quot;&gt;cx&lt;/span&gt;=&lt;span style=&quot;color: rgb(42, 161, 152);&quot;&gt;&quot;169&quot;&lt;/span&gt; &lt;span style=&quot;color: rgb(147, 161, 161);&quot;&gt;cy&lt;/span&gt;=&lt;span style=&quot;color: rgb(42, 161, 152);&quot;&gt;&quot;99&quot;&lt;/span&gt; &lt;span style=&quot;color: rgb(147, 161, 161);&quot;&gt;rx&lt;/span&gt;=&lt;span style=&quot;color: rgb(42, 161, 152);&quot;&gt;&quot;2&quot;&lt;/span&gt; &lt;span style=&quot;color: rgb(147, 161, 161);&quot;&gt;ry&lt;/span&gt;=&lt;span style=&quot;color: rgb(42, 161, 152);&quot;&gt;&quot;2&quot;&lt;/span&gt; &lt;span style=&quot;color: rgb(147, 161, 161);&quot;&gt;fill&lt;/span&gt;=&lt;span style=&quot;color: rgb(42, 161, 152);&quot;&gt;&quot;#C90E4B&quot;&lt;/span&gt; &lt;span style=&quot;color: rgb(147, 161, 161);&quot;&gt;/&amp;gt;&lt;/span&gt;&lt;/font&gt;&lt;/span&gt;&lt;/div&gt;&lt;div&gt;&lt;span&gt;&lt;font face=&quot;Helvetica&quot; style=&quot;font-size: 10px; line-height: 100%;&quot;&gt;  &lt;span style=&quot;color: rgb(147, 161, 161);&quot;&gt;&amp;lt;&lt;/span&gt;&lt;span style=&quot;color: rgb(38, 139, 210);&quot;&gt;ellipse&lt;/span&gt; &lt;span style=&quot;color: rgb(147, 161, 161);&quot;&gt;cx&lt;/span&gt;=&lt;span style=&quot;color: rgb(42, 161, 152);&quot;&gt;&quot;159&quot;&lt;/span&gt; &lt;span style=&quot;color: rgb(147, 161, 161);&quot;&gt;cy&lt;/span&gt;=&lt;span style=&quot;color: rgb(42, 161, 152);&quot;&gt;&quot;105&quot;&lt;/span&gt; &lt;span style=&quot;color: rgb(147, 161, 161);&quot;&gt;rx&lt;/span&gt;=&lt;span style=&quot;color: rgb(42, 161, 152);&quot;&gt;&quot;2&quot;&lt;/span&gt; &lt;span style=&quot;color: rgb(147, 161, 161);&quot;&gt;ry&lt;/span&gt;=&lt;span style=&quot;color: rgb(42, 161, 152);&quot;&gt;&quot;2&quot;&lt;/span&gt; &lt;span style=&quot;color: rgb(147, 161, 161);&quot;&gt;fill&lt;/span&gt;=&lt;span style=&quot;color: rgb(42, 161, 152);&quot;&gt;&quot;#650A6E&quot;&lt;/span&gt; &lt;span style=&quot;color: rgb(147, 161, 161);&quot;&gt;/&amp;gt;&lt;/span&gt;&lt;/font&gt;&lt;/span&gt;&lt;/div&gt;&lt;div&gt;&lt;span&gt;&lt;font face=&quot;Helvetica&quot; style=&quot;font-size: 10px; line-height: 100%;&quot;&gt;  &lt;span style=&quot;color: rgb(147, 161, 161);&quot;&gt;&amp;lt;&lt;/span&gt;&lt;span style=&quot;color: rgb(38, 139, 210);&quot;&gt;ellipse&lt;/span&gt; &lt;span style=&quot;color: rgb(147, 161, 161);&quot;&gt;cx&lt;/span&gt;=&lt;span style=&quot;color: rgb(42, 161, 152);&quot;&gt;&quot;179&quot;&lt;/span&gt; &lt;span style=&quot;color: rgb(147, 161, 161);&quot;&gt;cy&lt;/span&gt;=&lt;span style=&quot;color: rgb(42, 161, 152);&quot;&gt;&quot;109&quot;&lt;/span&gt; &lt;span style=&quot;color: rgb(147, 161, 161);&quot;&gt;rx&lt;/span&gt;=&lt;span style=&quot;color: rgb(42, 161, 152);&quot;&gt;&quot;2&quot;&lt;/span&gt; &lt;span style=&quot;color: rgb(147, 161, 161);&quot;&gt;ry&lt;/span&gt;=&lt;span style=&quot;color: rgb(42, 161, 152);&quot;&gt;&quot;2&quot;&lt;/span&gt; &lt;span style=&quot;color: rgb(147, 161, 161);&quot;&gt;fill&lt;/span&gt;=&lt;span style=&quot;color: rgb(42, 161, 152);&quot;&gt;&quot;#FFD14D&quot;&lt;/span&gt; &lt;span style=&quot;color: rgb(147, 161, 161);&quot;&gt;/&amp;gt;&lt;/span&gt;&lt;/font&gt;&lt;/span&gt;&lt;/div&gt;&lt;div&gt;&lt;span&gt;&lt;font face=&quot;Helvetica&quot; style=&quot;font-size: 10px; line-height: 100%;&quot;&gt;  &lt;span style=&quot;color: rgb(147, 161, 161);&quot;&gt;&amp;lt;&lt;/span&gt;&lt;span style=&quot;color: rgb(38, 139, 210);&quot;&gt;ellipse&lt;/span&gt; &lt;span style=&quot;color: rgb(147, 161, 161);&quot;&gt;cx&lt;/span&gt;=&lt;span style=&quot;color: rgb(42, 161, 152);&quot;&gt;&quot;182&quot;&lt;/span&gt; &lt;span style=&quot;color: rgb(147, 161, 161);&quot;&gt;cy&lt;/span&gt;=&lt;span style=&quot;color: rgb(42, 161, 152);&quot;&gt;&quot;97&quot;&lt;/span&gt; &lt;span style=&quot;color: rgb(147, 161, 161);&quot;&gt;rx&lt;/span&gt;=&lt;span style=&quot;color: rgb(42, 161, 152);&quot;&gt;&quot;1.5&quot;&lt;/span&gt; &lt;span style=&quot;color: rgb(147, 161, 161);&quot;&gt;ry&lt;/span&gt;=&lt;span style=&quot;color: rgb(42, 161, 152);&quot;&gt;&quot;1.5&quot;&lt;/span&gt; &lt;span style=&quot;color: rgb(147, 161, 161);&quot;&gt;fill&lt;/span&gt;=&lt;span style=&quot;color: rgb(42, 161, 152);&quot;&gt;&quot;#B14B9E&quot;&lt;/span&gt; &lt;span style=&quot;color: rgb(147, 161, 161);&quot;&gt;/&amp;gt;&lt;/span&gt;&lt;/font&gt;&lt;/span&gt;&lt;/div&gt;&lt;div&gt;&lt;span&gt;&lt;font face=&quot;Helvetica&quot; style=&quot;font-size: 10px; line-height: 100%;&quot;&gt;  &lt;span style=&quot;color: rgb(147, 161, 161);&quot;&gt;&amp;lt;&lt;/span&gt;&lt;span style=&quot;color: rgb(38, 139, 210);&quot;&gt;ellipse&lt;/span&gt; &lt;span style=&quot;color: rgb(147, 161, 161);&quot;&gt;cx&lt;/span&gt;=&lt;span style=&quot;color: rgb(42, 161, 152);&quot;&gt;&quot;192&quot;&lt;/span&gt; &lt;span style=&quot;color: rgb(147, 161, 161);&quot;&gt;cy&lt;/span&gt;=&lt;span style=&quot;color: rgb(42, 161, 152);&quot;&gt;&quot;109&quot;&lt;/span&gt; &lt;span style=&quot;color: rgb(147, 161, 161);&quot;&gt;rx&lt;/span&gt;=&lt;span style=&quot;color: rgb(42, 161, 152);&quot;&gt;&quot;2&quot;&lt;/span&gt; &lt;span style=&quot;color: rgb(147, 161, 161);&quot;&gt;ry&lt;/span&gt;=&lt;span style=&quot;color: rgb(42, 161, 152);&quot;&gt;&quot;2&quot;&lt;/span&gt; &lt;span style=&quot;color: rgb(147, 161, 161);&quot;&gt;fill&lt;/span&gt;=&lt;span style=&quot;color: rgb(42, 161, 152);&quot;&gt;&quot;#FFA3B9&quot;&lt;/span&gt; &lt;span style=&quot;color: rgb(147, 161, 161);&quot;&gt;/&amp;gt;&lt;/span&gt;&lt;/font&gt;&lt;/span&gt;&lt;/div&gt;&lt;div&gt;&lt;span&gt;&lt;font face=&quot;Helvetica&quot; style=&quot;font-size: 10px; line-height: 100%;&quot;&gt;  &lt;/font&gt;&lt;/span&gt;&lt;/div&gt;&lt;div&gt;&lt;span&gt;&lt;font face=&quot;Helvetica&quot; style=&quot;font-size: 10px; line-height: 100%;&quot;&gt;  &lt;span style=&quot;font-style: italic; color: rgb(0, 0, 0);&quot;&gt;&lt;b&gt;&amp;lt;!-- Cake Batter or Filling (Optional) --&amp;gt;&lt;/b&gt;&lt;/span&gt;&lt;/font&gt;&lt;/span&gt;&lt;/div&gt;&lt;div&gt;&lt;span&gt;&lt;font face=&quot;Helvetica&quot; style=&quot;font-size: 10px; line-height: 100%;&quot;&gt;  &lt;span style=&quot;color: rgb(147, 161, 161);&quot;&gt;&amp;lt;&lt;/span&gt;&lt;span style=&quot;color: rgb(38, 139, 210);&quot;&gt;ellipse&lt;/span&gt; &lt;span style=&quot;color: rgb(147, 161, 161);&quot;&gt;cx&lt;/span&gt;=&lt;span style=&quot;color: rgb(42, 161, 152);&quot;&gt;&quot;182&quot;&lt;/span&gt; &lt;span style=&quot;color: rgb(147, 161, 161);&quot;&gt;cy&lt;/span&gt;=&lt;span style=&quot;color: rgb(42, 161, 152);&quot;&gt;&quot;127&quot;&lt;/span&gt; &lt;span style=&quot;color: rgb(147, 161, 161);&quot;&gt;rx&lt;/span&gt;=&lt;span style=&quot;color: rgb(42, 161, 152);&quot;&gt;&quot;3&quot;&lt;/span&gt; &lt;span style=&quot;color: rgb(147, 161, 161);&quot;&gt;ry&lt;/span&gt;=&lt;span style=&quot;color: rgb(42, 161, 152);&quot;&gt;&quot;3&quot;&lt;/span&gt; &lt;span style=&quot;color: rgb(147, 161, 161);&quot;&gt;fill&lt;/span&gt;=&lt;span style=&quot;color: rgb(42, 161, 152);&quot;&gt;&quot;#E9B9AA&quot;&lt;/span&gt; &lt;span style=&quot;color: rgb(147, 161, 161);&quot;&gt;opacity&lt;/span&gt;=&lt;span style=&quot;color: rgb(42, 161, 152);&quot;&gt;&quot;0.5&quot;&lt;/span&gt; &lt;span style=&quot;color: rgb(147, 161, 161);&quot;&gt;/&amp;gt;&lt;/span&gt;&lt;/font&gt;&lt;/span&gt;&lt;/div&gt;&lt;div&gt;&lt;span&gt;&lt;font face=&quot;Helvetica&quot; style=&quot;font-size: 10px; line-height: 100%;&quot;&gt;  &lt;/font&gt;&lt;/span&gt;&lt;/div&gt;&lt;div&gt;&lt;span&gt;&lt;font face=&quot;Helvetica&quot; style=&quot;font-size: 10px; line-height: 100%;&quot;&gt;  &lt;span style=&quot;font-style: italic; color: rgb(0, 0, 0);&quot;&gt;&lt;b&gt;&amp;lt;!-- Cake Candles (Optional) --&amp;gt;&lt;/b&gt;&lt;/span&gt;&lt;/font&gt;&lt;/span&gt;&lt;/div&gt;&lt;div&gt;&lt;span&gt;&lt;font face=&quot;Helvetica&quot; style=&quot;font-size: 10px; line-height: 100%;&quot;&gt;  &lt;span style=&quot;color: rgb(147, 161, 161); font-style: italic;&quot;&gt;&amp;lt;!-- Candle 1 --&amp;gt;&lt;/span&gt;&lt;/font&gt;&lt;/span&gt;&lt;/div&gt;&lt;div&gt;&lt;span&gt;&lt;font face=&quot;Helvetica&quot; style=&quot;font-size: 10px; line-height: 100%;&quot;&gt;  &lt;span style=&quot;color: rgb(147, 161, 161);&quot;&gt;&amp;lt;&lt;/span&gt;&lt;span style=&quot;color: rgb(38, 139, 210);&quot;&gt;rect&lt;/span&gt; &lt;span style=&quot;color: rgb(147, 161, 161);&quot;&gt;x&lt;/span&gt;=&lt;span style=&quot;color: rgb(42, 161, 152);&quot;&gt;&quot;193&quot;&lt;/span&gt; &lt;span style=&quot;color: rgb(147, 161, 161);&quot;&gt;y&lt;/span&gt;=&lt;span style=&quot;color: rgb(42, 161, 152);&quot;&gt;&quot;99&quot;&lt;/span&gt; &lt;span style=&quot;color: rgb(147, 161, 161);&quot;&gt;width&lt;/span&gt;=&lt;span style=&quot;color: rgb(42, 161, 152);&quot;&gt;&quot;3&quot;&lt;/span&gt; &lt;span style=&quot;color: rgb(147, 161, 161);&quot;&gt;height&lt;/span&gt;=&lt;span style=&quot;color: rgb(42, 161, 152);&quot;&gt;&quot;24&quot;&lt;/span&gt; &lt;span style=&quot;color: rgb(147, 161, 161);&quot;&gt;rx&lt;/span&gt;=&lt;span style=&quot;color: rgb(42, 161, 152);&quot;&gt;&quot;1.5&quot;&lt;/span&gt; &lt;span style=&quot;color: rgb(147, 161, 161);&quot;&gt;ry&lt;/span&gt;=&lt;span style=&quot;color: rgb(42, 161, 152);&quot;&gt;&quot;1.5&quot;&lt;/span&gt; &lt;span style=&quot;color: rgb(147, 161, 161);&quot;&gt;fill&lt;/span&gt;=&lt;span style=&quot;color: rgb(42, 161, 152);&quot;&gt;&quot;#FCCE1C&quot;&lt;/span&gt; &lt;span style=&quot;color: rgb(147, 161, 161);&quot;&gt;/&amp;gt;&lt;/span&gt;&lt;/font&gt;&lt;/span&gt;&lt;/div&gt;&lt;div&gt;&lt;span&gt;&lt;font face=&quot;Helvetica&quot; style=&quot;font-size: 10px; line-height: 100%;&quot;&gt;  &lt;span style=&quot;color: rgb(147, 161, 161); font-style: italic;&quot;&gt;&amp;lt;!-- Flame --&amp;gt;&lt;/span&gt;&lt;/font&gt;&lt;/span&gt;&lt;/div&gt;&lt;div&gt;&lt;span&gt;&lt;font face=&quot;Helvetica&quot; style=&quot;font-size: 10px; line-height: 100%;&quot;&gt;  &lt;span style=&quot;color: rgb(147, 161, 161);&quot;&gt;&amp;lt;&lt;/span&gt;&lt;span style=&quot;color: rgb(38, 139, 210);&quot;&gt;ellipse&lt;/span&gt; &lt;span style=&quot;color: rgb(147, 161, 161);&quot;&gt;cx&lt;/span&gt;=&lt;span style=&quot;color: rgb(42, 161, 152);&quot;&gt;&quot;194&quot;&lt;/span&gt; &lt;span style=&quot;color: rgb(147, 161, 161);&quot;&gt;cy&lt;/span&gt;=&lt;span style=&quot;color: rgb(42, 161, 152);&quot;&gt;&quot;95&quot;&lt;/span&gt; &lt;span style=&quot;color: rgb(147, 161, 161);&quot;&gt;rx&lt;/span&gt;=&lt;span style=&quot;color: rgb(42, 161, 152);&quot;&gt;&quot;1.5&quot;&lt;/span&gt; &lt;span style=&quot;color: rgb(147, 161, 161);&quot;&gt;ry&lt;/span&gt;=&lt;span style=&quot;color: rgb(42, 161, 152);&quot;&gt;&quot;8&quot;&lt;/span&gt; &lt;span style=&quot;color: rgb(147, 161, 161);&quot;&gt;fill&lt;/span&gt;=&lt;span style=&quot;color: rgb(42, 161, 152);&quot;&gt;&quot;#F9DA3E&quot;&lt;/span&gt; &lt;span style=&quot;color: rgb(147, 161, 161);&quot;&gt;/&amp;gt;&lt;/span&gt;&lt;/font&gt;&lt;/span&gt;&lt;/div&gt;&lt;div&gt;&lt;span&gt;&lt;font face=&quot;Helvetica&quot; style=&quot;font-size: 10px; line-height: 100%;&quot;&gt;  &lt;/font&gt;&lt;/span&gt;&lt;/div&gt;&lt;div&gt;&lt;span&gt;&lt;font face=&quot;Helvetica&quot; style=&quot;font-size: 10px; line-height: 100%;&quot;&gt;  &lt;span style=&quot;font-style: italic; color: rgb(0, 0, 0);&quot;&gt;&lt;b&gt;&amp;lt;!-- Cake Crumbs (Optional) --&amp;gt;&lt;/b&gt;&lt;/span&gt;&lt;/font&gt;&lt;/span&gt;&lt;/div&gt;&lt;div&gt;&lt;span&gt;&lt;font face=&quot;Helvetica&quot; style=&quot;font-size: 10px; line-height: 100%;&quot;&gt;  &lt;span style=&quot;color: rgb(147, 161, 161);&quot;&gt;&amp;lt;&lt;/span&gt;&lt;span style=&quot;color: rgb(38, 139, 210);&quot;&gt;ellipse&lt;/span&gt; &lt;span style=&quot;color: rgb(147, 161, 161);&quot;&gt;cx&lt;/span&gt;=&lt;span style=&quot;color: rgb(42, 161, 152);&quot;&gt;&quot;206&quot;&lt;/span&gt; &lt;span style=&quot;color: rgb(147, 161, 161);&quot;&gt;cy&lt;/span&gt;=&lt;span style=&quot;color: rgb(42, 161, 152);&quot;&gt;&quot;131&quot;&lt;/span&gt; &lt;span style=&quot;color: rgb(147, 161, 161);&quot;&gt;rx&lt;/span&gt;=&lt;span style=&quot;color: rgb(42, 161, 152);&quot;&gt;&quot;2.5&quot;&lt;/span&gt; &lt;span style=&quot;color: rgb(147, 161, 161);&quot;&gt;ry&lt;/span&gt;=&lt;span style=&quot;color: rgb(42, 161, 152);&quot;&gt;&quot;2&quot;&lt;/span&gt; &lt;span style=&quot;color: rgb(147, 161, 161);&quot;&gt;fill&lt;/span&gt;=&lt;span style=&quot;color: rgb(42, 161, 152);&quot;&gt;&quot;#E9B59C&quot;&lt;/span&gt; &lt;span style=&quot;color: rgb(147, 161, 161);&quot;&gt;/&amp;gt;&lt;/span&gt;&lt;/font&gt;&lt;/span&gt;&lt;/div&gt;&lt;div&gt;&lt;span&gt;&lt;font face=&quot;Helvetica&quot; style=&quot;font-size: 10px; line-height: 100%;&quot;&gt;  &lt;span style=&quot;color: rgb(147, 161, 161);&quot;&gt;&amp;lt;&lt;/span&gt;&lt;span style=&quot;color: rgb(38, 139, 210);&quot;&gt;ellipse&lt;/span&gt; &lt;span style=&quot;color: rgb(147, 161, 161);&quot;&gt;cx&lt;/span&gt;=&lt;span style=&quot;color: rgb(42, 161, 152);&quot;&gt;&quot;210&quot;&lt;/span&gt; &lt;span style=&quot;color: rgb(147, 161, 161);&quot;&gt;cy&lt;/span&gt;=&lt;span style=&quot;color: rgb(42, 161, 152);&quot;&gt;&quot;133&quot;&lt;/span&gt; &lt;span style=&quot;color: rgb(147, 161, 161);&quot;&gt;rx&lt;/span&gt;=&lt;span style=&quot;color: rgb(42, 161, 152);&quot;&gt;&quot;1.8&quot;&lt;/span&gt; &lt;span style=&quot;color: rgb(147, 161, 161);&quot;&gt;ry&lt;/span&gt;=&lt;span style=&quot;color: rgb(42, 161, 152);&quot;&gt;&quot;1.5&quot;&lt;/span&gt; &lt;span style=&quot;color: rgb(147, 161, 161);&quot;&gt;fill&lt;/span&gt;=&lt;span style=&quot;color: rgb(42, 161, 152);&quot;&gt;&quot;#E9B59C&quot;&lt;/span&gt; &lt;span style=&quot;color: rgb(147, 161, 161);&quot;&gt;/&amp;gt;&lt;/span&gt;&lt;/font&gt;&lt;/span&gt;&lt;/div&gt;&lt;div&gt;&lt;span&gt;&lt;font face=&quot;Helvetica&quot; style=&quot;font-size: 10px; line-height: 100%;&quot;&gt;  &lt;/font&gt;&lt;/span&gt;&lt;/div&gt;&lt;div&gt;&lt;span&gt;&lt;font face=&quot;Helvetica&quot; style=&quot;font-size: 10px; line-height: 100%;&quot;&gt;  &lt;span style=&quot;font-style: italic; color: rgb(0, 0, 0);&quot;&gt;&lt;b&gt;&amp;lt;!-- Cake Cake Sprinkles (Optional) --&amp;gt;&lt;/b&gt;&lt;/span&gt;&lt;/font&gt;&lt;/span&gt;&lt;/div&gt;&lt;div&gt;&lt;span&gt;&lt;font face=&quot;Helvetica&quot; style=&quot;font-size: 10px; line-height: 100%;&quot;&gt;  &lt;span style=&quot;color: rgb(147, 161, 161);&quot;&gt;&amp;lt;&lt;/span&gt;&lt;span style=&quot;color: rgb(38, 139, 210);&quot;&gt;ellipse&lt;/span&gt; &lt;span style=&quot;color: rgb(147, 161, 161);&quot;&gt;cx&lt;/span&gt;=&lt;span style=&quot;color: rgb(42, 161, 152);&quot;&gt;&quot;201&quot;&lt;/span&gt; &lt;span style=&quot;color: rgb(147, 161, 161);&quot;&gt;cy&lt;/span&gt;=&lt;span style=&quot;color: rgb(42, 161, 152);&quot;&gt;&quot;116&quot;&lt;/span&gt; &lt;span style=&quot;color: rgb(147, 161, 161);&quot;&gt;rx&lt;/span&gt;=&lt;span style=&quot;color: rgb(42, 161, 152);&quot;&gt;&quot;2&quot;&lt;/span&gt; &lt;span style=&quot;color: rgb(147, 161, 161);&quot;&gt;ry&lt;/span&gt;=&lt;span style=&quot;color: rgb(42, 161, 152);&quot;&gt;&quot;1.5&quot;&lt;/span&gt; &lt;span style=&quot;color: rgb(147, 161, 161);&quot;&gt;fill&lt;/span&gt;=&lt;span style=&quot;color: rgb(42, 161, 152);&quot;&gt;&quot;#FF1E62&quot;&lt;/span&gt; &lt;span style=&quot;color: rgb(147, 161, 161);&quot;&gt;/&amp;gt;&lt;/span&gt;&lt;/font&gt;&lt;/span&gt;&lt;/div&gt;&lt;div&gt;&lt;span&gt;&lt;font face=&quot;Helvetica&quot; style=&quot;font-size: 10px; line-height: 100%;&quot;&gt;  &lt;span style=&quot;color: rgb(147, 161, 161);&quot;&gt;&amp;lt;&lt;/span&gt;&lt;span style=&quot;color: rgb(38, 139, 210);&quot;&gt;ellipse&lt;/span&gt; &lt;span style=&quot;color: rgb(147, 161, 161);&quot;&gt;cx&lt;/span&gt;=&lt;span style=&quot;color: rgb(42, 161, 152);&quot;&gt;&quot;206&quot;&lt;/span&gt; &lt;span style=&quot;color: rgb(147, 161, 161);&quot;&gt;cy&lt;/span&gt;=&lt;span style=&quot;color: rgb(42, 161, 152);&quot;&gt;&quot;109&quot;&lt;/span&gt; &lt;span style=&quot;color: rgb(147, 161, 161);&quot;&gt;rx&lt;/span&gt;=&lt;span style=&quot;color: rgb(42, 161, 152);&quot;&gt;&quot;2&quot;&lt;/span&gt; &lt;span style=&quot;color: rgb(147, 161, 161);&quot;&gt;ry&lt;/span&gt;=&lt;span style=&quot;color: rgb(42, 161, 152);&quot;&gt;&quot;1.5&quot;&lt;/span&gt; &lt;span style=&quot;color: rgb(147, 161, 161);&quot;&gt;fill&lt;/span&gt;=&lt;span style=&quot;color: rgb(42, 161, 152);&quot;&gt;&quot;#D96A49&quot;&lt;/span&gt; &lt;span style=&quot;color: rgb(147, 161, 161);&quot;&gt;/&amp;gt;&lt;/span&gt;&lt;/font&gt;&lt;/span&gt;&lt;/div&gt;&lt;div&gt;&lt;font face=&quot;Helvetica&quot; style=&quot;font-size: 10px; line-height: 100%;&quot;&gt;  &lt;span style=&quot;color: rgb(147, 161, 161);&quot;&gt;&amp;lt;&lt;/span&gt;&lt;span style=&quot;color: rgb(38, 139, 210);&quot;&gt;ellipse&lt;/span&gt; &lt;span style=&quot;color: rgb(147, 161, 161);&quot;&gt;cx&lt;/span&gt;=&lt;span style=&quot;color: rgb(42, 161, 152);&quot;&gt;&quot;199&quot;&lt;/span&gt; &lt;span style=&quot;color: rgb(147, 161, 161);&quot;&gt;cy&lt;/span&gt;=&lt;span style=&quot;color: rgb(42, 161, 152);&quot;&gt;&quot;105&quot;&lt;/span&gt; &lt;span style=&quot;color: rgb(147, 161, 161);&quot;&gt;rx&lt;/span&gt;=&lt;span style=&quot;color: rgb(42, 161, 152);&quot;&gt;&quot;2.5&quot;&lt;/span&gt; &lt;span style=&quot;color: rgb(147, 161, 161);&quot;&gt;ry&lt;/span&gt;=&lt;span style=&quot;color: rgb(42, 161, 152);&quot;&gt;&quot;1.5&quot;&lt;/span&gt; &lt;span style=&quot;color: rgb(147, 161, 161);&quot;&gt;fill&lt;/span&gt;=&lt;span style=&quot;color: rgb(42, 161, 152);&quot;&gt;&quot;#FFA7B1&quot;&lt;/span&gt; &lt;span style=&quot;color: rgb(147, 161, 161);&quot;&gt;/&amp;gt;&lt;/span&gt;&lt;/font&gt;&lt;/div&gt;&lt;/div&gt;" style="rounded=0;whiteSpace=wrap;html=1;strokeWidth=2;" parent="1" vertex="1">
          <mxGeometry x="660" y="280" width="380" height="340" as="geometry" />
        </mxCell>
        <mxCell id="RDkZVvZF06zk_Bv5mJ8z-14" value="&lt;div style=&quot;text-align: start; white-space: pre; line-height: 100%;&quot;&gt;&lt;div&gt;&lt;font style=&quot;font-size: 10px;&quot;&gt;  &lt;span style=&quot;font-style: italic; color: rgb(0, 0, 0);&quot;&gt;&lt;b&gt;&amp;lt;!-- Waves (Optional) --&amp;gt;&lt;/b&gt;&lt;/span&gt;&lt;/font&gt;&lt;/div&gt;&lt;div&gt;&lt;span&gt;&lt;font style=&quot;font-size: 10px;&quot;&gt;  &lt;span style=&quot;color: rgb(147, 161, 161);&quot;&gt;&amp;lt;&lt;/span&gt;&lt;span style=&quot;color: rgb(38, 139, 210);&quot;&gt;path&lt;/span&gt; &lt;span style=&quot;color: rgb(147, 161, 161);&quot;&gt;d&lt;/span&gt;=&lt;span style=&quot;color: rgb(42, 161, 152);&quot;&gt;&quot;M0,154 Q50,141 100,154 Q150,167 299,165&quot;&lt;/span&gt; &lt;span style=&quot;color: rgb(147, 161, 161);&quot;&gt;fill&lt;/span&gt;=&lt;span style=&quot;color: rgb(42, 161, 152);&quot;&gt;&quot;none&quot;&lt;/span&gt;&amp;nbsp;&lt;/font&gt;&lt;/span&gt;&lt;/div&gt;&lt;div&gt;&lt;span&gt;&lt;font style=&quot;font-size: 10px;&quot;&gt;&lt;span style=&quot;color: rgb(147, 161, 161);&quot;&gt;                 stroke&lt;/span&gt;=&lt;span style=&quot;color: rgb(42, 161, 152);&quot;&gt;&quot;lightgray&quot;&lt;/span&gt; &lt;span style=&quot;color: rgb(147, 161, 161);&quot;&gt;opacity&lt;/span&gt;=&lt;span style=&quot;color: rgb(42, 161, 152);&quot;&gt;&quot;0.5&quot;&lt;/span&gt; &lt;span style=&quot;color: rgb(147, 161, 161);&quot;&gt;/&amp;gt;&lt;/span&gt;&lt;/font&gt;&lt;/span&gt;&lt;/div&gt;&lt;div&gt;&lt;span&gt;&lt;font style=&quot;font-size: 10px;&quot;&gt;  &lt;span style=&quot;color: rgb(147, 161, 161);&quot;&gt;&amp;lt;&lt;/span&gt;&lt;span style=&quot;color: rgb(38, 139, 210);&quot;&gt;path&lt;/span&gt; &lt;span style=&quot;color: rgb(147, 161, 161);&quot;&gt;d&lt;/span&gt;=&lt;span style=&quot;color: rgb(42, 161, 152);&quot;&gt;&quot;M0,160 Q43,150 84,160 Q125,172 280,164&quot;&lt;/span&gt; &lt;span style=&quot;color: rgb(147, 161, 161);&quot;&gt;fill&lt;/span&gt;=&lt;span style=&quot;color: rgb(42, 161, 152);&quot;&gt;&quot;none&quot;&lt;/span&gt;&amp;nbsp;&lt;/font&gt;&lt;/span&gt;&lt;/div&gt;&lt;div&gt;&lt;span style=&quot;caret-color: rgb(147, 161, 161); color: rgb(147, 161, 161); font-size: 10px;&quot;&gt;                 &lt;/span&gt;&lt;span&gt;&lt;font style=&quot;font-size: 10px;&quot;&gt;&lt;span style=&quot;color: rgb(147, 161, 161);&quot;&gt;stroke&lt;/span&gt;=&lt;span style=&quot;color: rgb(42, 161, 152);&quot;&gt;&quot;lightgray&quot;&lt;/span&gt; &lt;span style=&quot;color: rgb(147, 161, 161);&quot;&gt;opacity&lt;/span&gt;=&lt;span style=&quot;color: rgb(42, 161, 152);&quot;&gt;&quot;0.4&quot;&lt;/span&gt; &lt;span style=&quot;color: rgb(147, 161, 161);&quot;&gt;/&amp;gt;&lt;/span&gt;&lt;/font&gt;&lt;/span&gt;&lt;/div&gt;&lt;div&gt;&lt;span&gt;&lt;font style=&quot;font-size: 10px;&quot;&gt;  &lt;span style=&quot;color: rgb(147, 161, 161);&quot;&gt;&amp;lt;&lt;/span&gt;&lt;span style=&quot;color: rgb(38, 139, 210);&quot;&gt;path&lt;/span&gt; &lt;span style=&quot;color: rgb(147, 161, 161);&quot;&gt;d&lt;/span&gt;=&lt;span style=&quot;color: rgb(42, 161, 152);&quot;&gt;&quot;M0,165 Q32,155 65,165 Q113,178 254,174&quot;&lt;/span&gt; &lt;span style=&quot;color: rgb(147, 161, 161);&quot;&gt;fill&lt;/span&gt;=&lt;span style=&quot;color: rgb(42, 161, 152);&quot;&gt;&quot;none&quot;&lt;/span&gt;&amp;nbsp;&lt;/font&gt;&lt;/span&gt;&lt;/div&gt;&lt;div&gt;&lt;span style=&quot;caret-color: rgb(147, 161, 161); color: rgb(147, 161, 161); font-size: 10px;&quot;&gt;                 &lt;/span&gt;&lt;span&gt;&lt;font style=&quot;font-size: 10px;&quot;&gt;&lt;span style=&quot;color: rgb(147, 161, 161);&quot;&gt;stroke&lt;/span&gt;=&lt;span style=&quot;color: rgb(42, 161, 152);&quot;&gt;&quot;lightgray&quot;&lt;/span&gt; &lt;span style=&quot;color: rgb(147, 161, 161);&quot;&gt;opacity&lt;/span&gt;=&lt;span style=&quot;color: rgb(42, 161, 152);&quot;&gt;&quot;0.5&quot;&lt;/span&gt; &lt;span style=&quot;color: rgb(147, 161, 161);&quot;&gt;/&amp;gt;&lt;/span&gt;&lt;/font&gt;&lt;/span&gt;&lt;/div&gt;&lt;div&gt;&lt;span&gt;&lt;font style=&quot;font-size: 10px;&quot;&gt;  &lt;/font&gt;&lt;/span&gt;&lt;/div&gt;&lt;div&gt;&lt;span&gt;&lt;font style=&quot;font-size: 10px;&quot;&gt;  &lt;span style=&quot;font-style: italic; color: rgb(0, 0, 0);&quot;&gt;&lt;b&gt;&amp;lt;!-- Beach (Optional) --&amp;gt;&lt;/b&gt;&lt;/span&gt;&lt;/font&gt;&lt;/span&gt;&lt;/div&gt;&lt;div&gt;&lt;span&gt;&lt;font style=&quot;font-size: 10px;&quot;&gt;  &lt;span style=&quot;color: rgb(147, 161, 161);&quot;&gt;&amp;lt;&lt;/span&gt;&lt;span style=&quot;color: rgb(38, 139, 210);&quot;&gt;rect&lt;/span&gt; &lt;span style=&quot;color: rgb(147, 161, 161);&quot;&gt;x&lt;/span&gt;=&lt;span style=&quot;color: rgb(42, 161, 152);&quot;&gt;&quot;10&quot;&lt;/span&gt; &lt;span style=&quot;color: rgb(147, 161, 161);&quot;&gt;y&lt;/span&gt;=&lt;span style=&quot;color: rgb(42, 161, 152);&quot;&gt;&quot;185&quot;&lt;/span&gt; &lt;span style=&quot;color: rgb(147, 161, 161);&quot;&gt;width&lt;/span&gt;=&lt;span style=&quot;color: rgb(42, 161, 152);&quot;&gt;&quot;280&quot;&lt;/span&gt; &lt;span style=&quot;color: rgb(147, 161, 161);&quot;&gt;height&lt;/span&gt;=&lt;span style=&quot;color: rgb(42, 161, 152);&quot;&gt;&quot;15&quot;&lt;/span&gt; &lt;span style=&quot;color: rgb(147, 161, 161);&quot;&gt;fill&lt;/span&gt;=&lt;span style=&quot;color: rgb(42, 161, 152);&quot;&gt;&quot;#99B49E&quot;&lt;/span&gt; &lt;span style=&quot;color: rgb(147, 161, 161);&quot;&gt;/&amp;gt;&lt;/span&gt;&lt;/font&gt;&lt;/span&gt;&lt;/div&gt;&lt;div&gt;&lt;span style=&quot;color: rgb(147, 161, 161);&quot;&gt;&lt;font style=&quot;font-size: 10px;&quot;&gt;&lt;br&gt;&lt;/font&gt;&lt;/span&gt;&lt;/div&gt;&lt;div&gt;&lt;span&gt;&lt;div&gt;&lt;font style=&quot;font-size: 10px;&quot;&gt;&lt;div&gt;  &lt;span style=&quot;font-style: italic; color: rgb(0, 0, 0);&quot;&gt;&lt;b&gt;&amp;lt;!-- Surfer on Surfboard (1) --&amp;gt;&lt;/b&gt;&lt;/span&gt;&lt;/div&gt;&lt;div&gt;  &lt;span style=&quot;color: rgb(147, 161, 161); font-style: italic;&quot;&gt;&amp;lt;!-- Head (Optional) --&amp;gt;&lt;/span&gt;&lt;/div&gt;&lt;div&gt;  &lt;span style=&quot;color: rgb(147, 161, 161);&quot;&gt;&amp;lt;&lt;/span&gt;&lt;span style=&quot;color: rgb(38, 139, 210);&quot;&gt;circle&lt;/span&gt; &lt;span style=&quot;color: rgb(147, 161, 161);&quot;&gt;cx&lt;/span&gt;=&lt;span style=&quot;color: rgb(42, 161, 152);&quot;&gt;&quot;165&quot;&lt;/span&gt; &lt;span style=&quot;color: rgb(147, 161, 161);&quot;&gt;cy&lt;/span&gt;=&lt;span style=&quot;color: rgb(42, 161, 152);&quot;&gt;&quot;139&quot;&lt;/span&gt; &lt;span style=&quot;color: rgb(147, 161, 161);&quot;&gt;r&lt;/span&gt;=&lt;span style=&quot;color: rgb(42, 161, 152);&quot;&gt;&quot;4&quot;&lt;/span&gt; &lt;span style=&quot;color: rgb(147, 161, 161);&quot;&gt;fill&lt;/span&gt;=&lt;span style=&quot;color: rgb(42, 161, 152);&quot;&gt;&quot;#001534&quot;&lt;/span&gt; &lt;span style=&quot;color: rgb(147, 161, 161);&quot;&gt;/&amp;gt;&lt;/span&gt;&lt;/div&gt;&lt;div&gt;  &lt;span style=&quot;color: rgb(147, 161, 161); font-style: italic;&quot;&gt;&amp;lt;!-- Body (Optional) --&amp;gt;&lt;/span&gt;&lt;/div&gt;&lt;div&gt;  &lt;span style=&quot;color: rgb(147, 161, 161);&quot;&gt;&amp;lt;&lt;/span&gt;&lt;span style=&quot;color: rgb(38, 139, 210);&quot;&gt;rect&lt;/span&gt; &lt;span style=&quot;color: rgb(147, 161, 161);&quot;&gt;x&lt;/span&gt;=&lt;span style=&quot;color: rgb(42, 161, 152);&quot;&gt;&quot;161&quot;&lt;/span&gt; &lt;span style=&quot;color: rgb(147, 161, 161);&quot;&gt;y&lt;/span&gt;=&lt;span style=&quot;color: rgb(42, 161, 152);&quot;&gt;&quot;143&quot;&lt;/span&gt; &lt;span style=&quot;color: rgb(147, 161, 161);&quot;&gt;width&lt;/span&gt;=&lt;span style=&quot;color: rgb(42, 161, 152);&quot;&gt;&quot;10&quot;&lt;/span&gt; &lt;span style=&quot;color: rgb(147, 161, 161);&quot;&gt;height&lt;/span&gt;=&lt;span style=&quot;color: rgb(42, 161, 152);&quot;&gt;&quot;14&quot;&lt;/span&gt; &lt;span style=&quot;color: rgb(147, 161, 161);&quot;&gt;rx&lt;/span&gt;=&lt;span style=&quot;color: rgb(42, 161, 152);&quot;&gt;&quot;5&quot;&lt;/span&gt; &lt;span style=&quot;color: rgb(147, 161, 161);&quot;&gt;ry&lt;/span&gt;=&lt;span style=&quot;color: rgb(42, 161, 152);&quot;&gt;&quot;5&quot;&lt;/span&gt; &lt;span style=&quot;color: rgb(147, 161, 161);&quot;&gt;fill&lt;/span&gt;=&lt;span style=&quot;color: rgb(42, 161, 152);&quot;&gt;&quot;#0D1E40&quot;&lt;/span&gt; &lt;span style=&quot;color: rgb(147, 161, 161);&quot;&gt;/&amp;gt;&lt;/span&gt;&lt;/div&gt;&lt;div&gt;  &lt;span style=&quot;color: rgb(147, 161, 161); font-style: italic;&quot;&gt;&amp;lt;!-- Legs (Optional) --&amp;gt;&lt;/span&gt;&lt;/div&gt;&lt;div&gt;  &lt;span style=&quot;color: rgb(147, 161, 161);&quot;&gt;&amp;lt;&lt;/span&gt;&lt;span style=&quot;color: rgb(38, 139, 210);&quot;&gt;line&lt;/span&gt; &lt;span style=&quot;color: rgb(147, 161, 161);&quot;&gt;x1&lt;/span&gt;=&lt;span style=&quot;color: rgb(42, 161, 152);&quot;&gt;&quot;162&quot;&lt;/span&gt; &lt;span style=&quot;color: rgb(147, 161, 161);&quot;&gt;y1&lt;/span&gt;=&lt;span style=&quot;color: rgb(42, 161, 152);&quot;&gt;&quot;155&quot;&lt;/span&gt; &lt;span style=&quot;color: rgb(147, 161, 161);&quot;&gt;x2&lt;/span&gt;=&lt;span style=&quot;color: rgb(42, 161, 152);&quot;&gt;&quot;164&quot;&lt;/span&gt; &lt;span style=&quot;color: rgb(147, 161, 161);&quot;&gt;y2&lt;/span&gt;=&lt;span style=&quot;color: rgb(42, 161, 152);&quot;&gt;&quot;164&quot;&lt;/span&gt; &lt;span style=&quot;color: rgb(147, 161, 161);&quot;&gt;stroke&lt;/span&gt;=&lt;span style=&quot;color: rgb(42, 161, 152);&quot;&gt;&quot;#00194D&quot;&lt;/span&gt;&amp;nbsp;&lt;/div&gt;&lt;div&gt;&lt;span style=&quot;color: rgb(147, 161, 161);&quot;&gt;&lt;span style=&quot;caret-color: rgb(147, 161, 161); color: rgb(147, 161, 161);&quot;&gt;                 &lt;/span&gt;strokeWidth&lt;/span&gt;=&lt;span style=&quot;color: rgb(42, 161, 152);&quot;&gt;&quot;4&quot;&lt;/span&gt; &lt;span style=&quot;color: rgb(147, 161, 161);&quot;&gt;fill&lt;/span&gt;=&lt;span style=&quot;color: rgb(42, 161, 152);&quot;&gt;&quot;none&quot;&lt;/span&gt; &lt;span style=&quot;color: rgb(147, 161, 161);&quot;&gt;/&amp;gt;&lt;/span&gt;&lt;/div&gt;&lt;div&gt;  &lt;span style=&quot;color: rgb(147, 161, 161);&quot;&gt;&amp;lt;&lt;/span&gt;&lt;span style=&quot;color: rgb(38, 139, 210);&quot;&gt;line&lt;/span&gt; &lt;span style=&quot;color: rgb(147, 161, 161);&quot;&gt;x1&lt;/span&gt;=&lt;span style=&quot;color: rgb(42, 161, 152);&quot;&gt;&quot;165&quot;&lt;/span&gt; &lt;span style=&quot;color: rgb(147, 161, 161);&quot;&gt;y1&lt;/span&gt;=&lt;span style=&quot;color: rgb(42, 161, 152);&quot;&gt;&quot;155&quot;&lt;/span&gt; &lt;span style=&quot;color: rgb(147, 161, 161);&quot;&gt;x2&lt;/span&gt;=&lt;span style=&quot;color: rgb(42, 161, 152);&quot;&gt;&quot;171&quot;&lt;/span&gt; &lt;span style=&quot;color: rgb(147, 161, 161);&quot;&gt;y2&lt;/span&gt;=&lt;span style=&quot;color: rgb(42, 161, 152);&quot;&gt;&quot;163&quot;&lt;/span&gt; &lt;span style=&quot;color: rgb(147, 161, 161);&quot;&gt;stroke&lt;/span&gt;=&lt;span style=&quot;color: rgb(42, 161, 152);&quot;&gt;&quot;#00194D&quot;&lt;/span&gt;&amp;nbsp;&lt;/div&gt;&lt;div&gt;&lt;span style=&quot;color: rgb(147, 161, 161);&quot;&gt;&lt;span style=&quot;caret-color: rgb(147, 161, 161); color: rgb(147, 161, 161);&quot;&gt;                 &lt;/span&gt;strokeWidth&lt;/span&gt;=&lt;span style=&quot;color: rgb(42, 161, 152);&quot;&gt;&quot;4&quot;&lt;/span&gt; &lt;span style=&quot;color: rgb(147, 161, 161);&quot;&gt;fill&lt;/span&gt;=&lt;span style=&quot;color: rgb(42, 161, 152);&quot;&gt;&quot;none&quot;&lt;/span&gt; &lt;span style=&quot;color: rgb(147, 161, 161);&quot;&gt;/&amp;gt;&lt;/span&gt;&lt;/div&gt;&lt;div&gt;&lt;span style=&quot;color: rgb(147, 161, 161);&quot;&gt;&lt;br&gt;&lt;/span&gt;&lt;/div&gt;&lt;div&gt;&lt;div&gt;  &lt;span style=&quot;font-style: italic;&quot;&gt;&lt;b&gt;&amp;lt;!-- Surfer on Surfboard (2) Omitted--&amp;gt;&lt;/b&gt;&lt;/span&gt;&lt;/div&gt;&lt;div&gt;  &lt;font color=&quot;#93a1a1&quot;&gt;&lt;span style=&quot;caret-color: rgb(147, 161, 161);&quot;&gt;&lt;i&gt;······&lt;/i&gt;&lt;/span&gt;&lt;/font&gt;&lt;/div&gt;&lt;/div&gt;&lt;/font&gt;&lt;/div&gt;&lt;/span&gt;&lt;/div&gt;&lt;/div&gt;" style="rounded=0;whiteSpace=wrap;html=1;strokeWidth=2;labelBackgroundColor=none;" parent="1" vertex="1">
          <mxGeometry x="1300" y="280" width="380" height="340" as="geometry" />
        </mxCell>
        <mxCell id="RDkZVvZF06zk_Bv5mJ8z-15" value="&lt;span style=&quot;white-space: nowrap;&quot;&gt;With Optional Details&lt;/span&gt;" style="text;html=1;align=center;verticalAlign=middle;whiteSpace=wrap;rounded=0;fontSize=14;labelBackgroundColor=none;fontFamily=Times New Roman;" parent="1" vertex="1">
          <mxGeometry x="505" y="443.75" width="60" height="21.25" as="geometry" />
        </mxCell>
        <mxCell id="RDkZVvZF06zk_Bv5mJ8z-16" value="&lt;span style=&quot;white-space: nowrap;&quot;&gt;Without Optional Details&lt;/span&gt;" style="text;html=1;align=center;verticalAlign=middle;whiteSpace=wrap;rounded=0;fontSize=14;labelBackgroundColor=none;fontFamily=Times New Roman;" parent="1" vertex="1">
          <mxGeometry x="505" y="253.75" width="60" height="20" as="geometry" />
        </mxCell>
        <mxCell id="RDkZVvZF06zk_Bv5mJ8z-17" value="&lt;span style=&quot;white-space: nowrap;&quot;&gt;Optional Codes&lt;/span&gt;" style="text;html=1;align=center;verticalAlign=middle;whiteSpace=wrap;rounded=0;fontSize=14;labelBackgroundColor=none;fontFamily=Times New Roman;" parent="1" vertex="1">
          <mxGeometry x="815" y="253.75" width="60" height="21.25" as="geometry" />
        </mxCell>
        <mxCell id="RDkZVvZF06zk_Bv5mJ8z-18" value="&lt;span style=&quot;white-space: nowrap;&quot;&gt;Optional Codes&lt;/span&gt;" style="text;html=1;align=center;verticalAlign=middle;whiteSpace=wrap;rounded=0;fontSize=14;labelBackgroundColor=none;fontFamily=Times New Roman;" parent="1" vertex="1">
          <mxGeometry x="1450" y="251.87999999999994" width="60" height="21.25" as="geometry" />
        </mxCell>
        <mxCell id="RDkZVvZF06zk_Bv5mJ8z-19" value="&lt;span style=&quot;white-space: nowrap;&quot;&gt;Without Optional Details&lt;/span&gt;" style="text;html=1;align=center;verticalAlign=middle;whiteSpace=wrap;rounded=0;fontSize=14;labelBackgroundColor=none;fontFamily=Times New Roman;" parent="1" vertex="1">
          <mxGeometry x="1150" y="252.5" width="60" height="20" as="geometry" />
        </mxCell>
        <mxCell id="RDkZVvZF06zk_Bv5mJ8z-20" value="&lt;span style=&quot;white-space: nowrap;&quot;&gt;With Optional Details&lt;/span&gt;" style="text;html=1;align=center;verticalAlign=middle;whiteSpace=wrap;rounded=0;fontSize=14;labelBackgroundColor=none;fontFamily=Times New Roman;" parent="1" vertex="1">
          <mxGeometry x="1150" y="442.5" width="60" height="21.25" as="geometry" />
        </mxCell>
        <mxCell id="XJ_LkTCEqYGjdxWgntM7-1" value="&lt;font style=&quot;font-size: 19px;&quot;&gt;(b) People standing in an over cast ski looking out to sea with surf boards.&lt;/font&gt;" style="rounded=0;html=1;strokeWidth=2;fillColor=none;align=center;spacing=0;fontColor=#333333;strokeColor=none;fontFamily=Times New Roman;fontStyle=1" parent="1" vertex="1">
          <mxGeometry x="1080" y="627.37" width="600" height="40" as="geometry" />
        </mxCell>
        <mxCell id="XJ_LkTCEqYGjdxWgntM7-2" value="&lt;font style=&quot;font-size: 19px;&quot;&gt;(a) A group of people sit at a table with cake.&lt;/font&gt;" style="rounded=0;html=1;strokeWidth=2;fillColor=none;align=center;spacing=0;fontColor=#333333;strokeColor=none;fontFamily=Times New Roman;fontStyle=1" parent="1" vertex="1">
          <mxGeometry x="440" y="627.37" width="600" height="40" as="geometry" />
        </mxCell>
        <mxCell id="XJ_LkTCEqYGjdxWgntM7-3" value="" style="shape=image;verticalLabelPosition=bottom;labelBackgroundColor=default;verticalAlign=top;imageAspect=0;image=data:image/png,iVBORw0KGgoAAAANSUhEUgAAASwAAADICAYAAABS39xVAAAAAXNSR0IArs4c6QAAAERlWElmTU0AKgAAAAgAAYdpAAQAAAABAAAAGgAAAAAAA6ABAAMAAAABAAEAAKACAAQAAAABAAABLKADAAQAAAABAAAAyAAAAADOaDBdAAAkyklEQVR4Ae2deYwcV37fX91VfXdPz00Ob0oiKZErriJFayexvQ4MOxtsnARYbAwE+SNIECgG8o+BHD4A/7PIP0kMBYmROz6ysb2y4YUNx7vrdWzrWkoUJVIHRQ7JGc49PX0f1XX695rs0XDUR9V0VVd196/AYlVXvfq99z6v59vv+L1XDBlge+3jt6dMi7/Acsx5wpAzhDBJMMcPYBIfRQJIYLwIGITYJWKTZcu0P+VY46OffubFvaNmkTnKg394546kGpWXCMf8FdsmZ49iA59BAkhg8ggwDLlLTPsHMh9/6yfPnWu6JeBasL5//75caBa/YjPky24jw/BIAAkgAUqAscl301Lq2z9y6pTqhogrwWrVrMzq30axcoMYwyIBJNCJABUtmYv9vpuaFtvJULdrtBmIYtWNDl5HAkjADQGqJa2uJRcPORYs2sFO+6xc2MagSAAJIIHeBEBTWtrSO9T+XceCRUcDsYN9nxueIAEk4AEBqilUW5yacixYLdcFp1YxHBJAAkjAIQE32uJYsB75WTlMAQZDAkgACTgl0PLhdBbYkWB9+513Io+dQp1ZxVBIAAkgAccEmOQjjen/gCPB+soXv1gHU+jB3p8nhkACSMA9Af6xxvR90pFg9bWCAZAAEkACQyCAgjUEyBgFEkAC3hBAwfKGI1pBAkhgCARQsIYAGaNAAkjAGwIoWN5wRCtIAAkMgQAK1hAgYxRIAAl4QwAFyxuOaAUJIIEhEEDBGgJkjAIJIAFvCKBgecMRrSABJDAEAihYQ4CMUSABJOANARQsbziiFSSABIZAAAVrCJAxCiSABLwhgILlDUe0ggSQwBAIoGANATJGgQSQgDcEULC84YhWkAASGAIBFKwhQMYokAAS8IbAWCzKJ3GCGOWVlMJLKZETExInxjiWjQksJ7MMJ8PLFwWWYVt5tWzLsAnRLdtUdctUTcuqNk2tqplauWE0izWjUWyauuYNXrSCBJCAlwRGVrBSUjwbF6LzUVGZkTlpGsQp4QQMCJcA4QSOYSNC65SQOIEVoB9vhmWWVbO5W9UaO1W9tlloVnLte3hEAkggWAIjJVggUOm0nFiMicoi1KgWAZ3n6edB+GJsJBETImcImbJBwKAG1tzNNysr27XcMtznIA1zUT6ShZpdRuTFJE/YCMdyCi1K0zIbBrHqmqGVoKaWrxn1XEEtb0FtTg+2qDF2JDD6BDz/g/cDSUaKT6fl5Om4EDklcIKjmpRH6WBAoOI8G4lHhcjpxejMD8Hbg0yWMHI3+yBcEY5wEUkUsnFCzmRJisxFsrmKVl8tNMsPilhj64YOryOBvgRCLVhxQUlPK5mzCSl+xmmTr2+OBwjAMkyrOenWBPSpZSVFzKal+FMlrXo3pxbvlJrVvFs7GB4JTDqB0ArWQnT63JScvCDz0uy4FBLUvqIZOXk5KijH8kLpo7XqzsfjkjfMBxIYBoHQCZbMipGF+PQl+MO+yJBWjWYYHIYaB9S4puaj0y/L0P+1Xs3dahhqdagJwMiQwIgSCJVgxQQleSw2+4W4GD0/ojzdJJtLS8nneIZXoKZ1varXS24exrBIYBIJhEawYFSOitXVuBg5O0kFAeJ87nh8ll2r7Fyv6LXCJOXd77zyLMvFeCWtCJGU3PLP4+Mcy8fApUWBHwqZYQ7559lEN2xDNW2rYVoGjA4bFZX65+n1YtVoFAzLMv1OM9rvTSAUgiUwnLgYm748aWLVLhrqQrEQmzLvl5pvaZahtq/j0T0BGElOJeX4XIyXZ6H/E/zzhIwTKy3/PBAwjoj7Tnkwyru/6ZaeVw3wzzPU7ZJa2aqAiO3fxJOhEQiFYB2Lz11MiLGnh5brEEaUEOPnj8Vn6/dK6z8IYfJCnSSFFWNTSpr65x2LgH8ezHLo6nZy1IxQ4RNEIRMXY0/NyBm1bjTWwbl4ba9RWG9YGvZBHhWsy+cCFywYCVyA4f6LLtM9lsEz0KelRrXiRm3307HMoMeZoo7EWSV1Ki5FTkqsmPXYfFdzVBChKX+G7plIIldp1h/kGsX72KTvisyzG2EQrHPU2dKzHI2wIYZhWBgdfbqiVXcqegObHF3KMsLLidnI1Jm4FD0jOWzydTE18GUqlNTHDsTrdEWr3dtTC8tlDQdQBgbbxUCggpWW47PQFDzbJW0TeRkmcM9NK1PnKvratYkE0CfT4A5yFmrlTwOnhT5Bh3qbTtOSlFQGanxftG3bMm27bkIHPkztqsDEetp5X4QmZL5q1Paw8/7oRROoYKXExALUKrijJ388n0xIsXNpMb5a0Crb45lD97mitaqFaPYCzOO8QAgT6Pe2X+ppTZlnmBhPxJjEkSw4Cj96JEqIZul74He3A+K1BRPrN+C81s8e3v+MQKAFrwjSzGdJwbM2AZiGFMsoyRMoWI+IQI1qbjY6dRkmvJ9oMxrVo8gKU6IoTCXF+DMzkQzUumowx7SysqeWNkc1T8NMd6CCJbJ8cpiZHaW4wNXhRJSXP64ZaqWd7qQUS0NNIwPL6aTBWz4BE7NjPMtHOYYRYVhepOFgvS8NmiOaYRm1RytNaHS5nELdUPMwf9FXPy/wdVLgRyipcHJrTTKBa6UvwsOaZFxrXTKaTkaAGggsUUYINJ1sy7Z1m9iQZlM16G4Zdd2kK2Ro1YapliOcHId+vbGaokXzTjeB5VMwqT+VlOJPTynJe/lG+R7MM117dBf/70QgUMGCoeJhrrzQKf+hvSZyAiylk1yUDKmQFGOLIFQLtEYK05V6lhkIl8QyRIJaWsuNqL3WF4iC0dCbOyBcGzABez2vlgZubtJmGojoNAjrtMRLWeiAzrhxKaC6BWJLuwRknnAJqUNpUFFrC1yH22Nxif7YQI3r6ZgQPZWSYre36/lP0M+rc9H2/PJ3fgSvDovAtJJ+HmpR1Kdo4HKiQhcR5AW6Q8fwlRklswqjkSvwi77iZoXVpBCdSsqJeXDMnJcFeZYuhOgnj3EXq4PsgKUEP1LPKeD0uqcWP96o5ULj3gI/SjHoi8tAmSdhZDYhcHwcas609qwwLCvAkkt0JRNiEagxWxbMGIB14WwTastGpWnpZVVXSzW9AevDDTZvduA/hIPA3Z6D93AZalkpt89NSnja5PMprzzMKjhN95QcX82r5bubtdzdbnHBTAQhG0kvQU1vKSIoS/QPq1tYvD44AbpCyXxsJiNB03q9tn1TM/Xm4FbdW6A+kjCKPxcVpFmJk2bb3Q69LIFwiYTlRFgTLtr6krQVBsYdaHcFdE9s1/XmdlmrbkG/3UYvW53utc11uuf7NZiGUkLB8h1zzwjAM3wpElOOg3gt5OqFT2Bl1Z32A7CaRGRGSZ+MC7FTUDOjK7ziNiQCtMaSVZLPCxwb2ajkblSNenkYUYMzbiajJI7D8Ri4jnha5lTw4Pt2nO5QyyfgorIOzrZrsKjlqtO8BSpYtE9lHEZ+nMIOcTiG9qFAU2Rarsu3Nmu7d+DLdA46u8+Fzd8pxAx9SRotFzbOCevV7Xf97NdKifHpqUjydEKInaar7PqSmUNGqSDSHWZ4XFgpNv8tdFv81lJKfOdQsCc+tkZrnrjS5cO3br/3q11uHfkydRw9kzj+t6CfAn2xjkzR2wdpHwRtqkMH+pS3ltHaIATAi/7Ow8rWtUH7gA6nIcZHErOxzDmoRZ8Lwaq+yzDG8hu6bv/a2Rm5YxdFoO8lLKgV2pbtmLDDYPHzcAjQpgiK1XBYu4mFLkO0EJu5zEIHkZvneoWlswZOJRf/OtRwroZArGhSz0Dl5RdEkftvD0vNr3dKe6BNQpogWHuILqcCrwqE1zvghgSQQFcC8Gq7i6eSCwaMtm1Dx3xS5PgE+HLB+l4wWsfS9b2YJ0frwMcN/NpgfS8YrYP1vTTTKMMSOSU4V6EJeByW4bkIAygt/72ukQZyw/5r4Mzy3GpRv0gE/j8uRZn9zvlABQsKYBqGSo8DExSrQL4YGOmoEYB+xcuw9012a7QOHIo5ToQJQeRw834UKgjgPWD/K1vTTqxWmt9Yiku3aKYDbRLCCNRT4LHtaIG1viWEAZAAEnBKYGQqCFBr/Ae2Qb7xoKy/TDMXWA0LxOo4TPI975QwhkMCSGAyCYBo/RRrE+5BUfvXgQkWOCye6jfNZDKLB3ONBJDAYQIwevgTDLFrgTQJ6UqRMT568nCi8DMSQAJIoBsBqOD83UAEKylF59xMku2WAbyOBJDAZBEIRLBgPtrQ1t+erOLE3CKB8SYQiGDBImY44Xm8v1eYOyTgC4GgBKu/I4kv2UWjSAAJjDKBoQsWOICwLAtLUOCGBJAAEnBJYOiC5TJ9GBwJIAEksE9g6IIFcwIsy7K1/RTgCRJAAkjAIYGhCxZNF7zqqOQwfRgMCSABJLBPICjBwrca7xcBniABJOCUQCCCVdcbOacJxHBIAAkggTaBQASr1KxtmVZrHax2OvCIBJAAEuhLIBDBgoXnC1Wj9qBv6jAAEkACSOAAgUAEi8ZfVCv3YYEu40Ba8BQJIAEk0JNAYIK10yjAss3V0LwosiclvIkEkEAoCAQmWDT3IFq3m6aWDwUJTAQSQAKhJxCoYMELFHfzjeJNeLVUIG+2DX3pYAKRABJ4gkCggkVTslbbvZ1vlD54IlX4AQkgASTQgUDggkXT9LC6+cFeo/heh/ThJSSABJDAPoFQCJZhWea98vq1XKN4DVKGI4f7xYMnSAAJHCQQ2EsoDiaifX6/vP4ezDNsZJXUBVjkD1clbYPBIxJAAi0CoahhHSyL9erOJw8r269XtDq6PBwEg+dIAAkE917CXuzzamm7oJZ256PTm/CW2zMKLx3rFR7vIQEkMBkEQtUkPIicrpu1ASOIu/X8/dlI5lRCjp+M8soShBmZt9YezA+eIwEkMDiB0ApWO2u6bWrU9YHAnpWTi3ExNh8VlFmZF+fgPWVcO5ybo01sUzW0rYap7mSk5BV4FkXQDUAMiwQCIhB6wTrIJaeW1ulOr8XFSCrGR7IRXk4JnJAUOT7OMlyEZ1gFXm3dEjJ4W6xp2FbDss26ZhoV3dRLdUMtVo16DvrIWmtypWYTF1mCa8wf5IznSCCsBEZKsA5CpILTFp2D1+k5S9iWYFnEMg/fO/zZtIwqywqZw9fxMxJAAuEjELpRQi8QUaFyIlY0Lg0Ey4s40QYSQAL+ExhLwXKDrWloBTfhMSwSQALBEZh4wYI+rb3g8GPMSAAJuCEw8YJV1Wo50zIbbqBhWCSABIIhMPGCVdEbxbrR3AwGP8aKBJCAGwITL1gUVlWvrbmBhmGRABIIhgAKFnDPqcVV6HzfDaYIMFYkgAScEkDBAlLg9V6H9eWXnULDcEgACQRDAAXrMfft+t7dhtFsedEHUxQYKxJAAv0IoGA9JqRaWj2vFmFJG3z1WL8vDd5HAkERQME6QH6jlrtTUMsfHbiEp0gACYSIAArWocIA0fqwptXhJa+4hYSABavQ5kKSFkxGwARQsA4VAHi+V7Ya+Q8asPzMoVv4MQACpmVpd4sPv7fTyL+tGs3tAJKAUYaIwMiu1uAnQ7riKUfY63PRqasyL836GRfa7k3AIEalpjdKsL8vc8LtNF0TjY8sRkR5QWCFRO+nvbkLyxKVYXmiPAvLesA6bAuwDttQ10+DZZJoRixYNmniKxgoWF2+07tqYQ3WqbFnlannYYnm+S7B8LLPBDTDqLSjUE1d3azllmFawrLEipG0Ep+N8XQxR3kahCQLQiK0ww5yhAUedXB1yamGuls1GtuFRmW7CYMy1OZ8NHsmLSfOwuq3JwaJw+mzNaOxAv2qd2l4WC78GVj/bcHps+MYDgWrR6nu1gvrumHoUNN6Ni5Gz/QIird8ItA0tXwn01RAtmp7tK+x1d8Y5eVYRFRSCicmeKh5SZwQ5eiCjiyrsIQTWZYRQdBaNRQQJMuybM0ipgavmGuYsMBj09RrhqWXG6ZWrmqNYsNQOy47RAUz1yisZpXMiaQYPREVI0uwAKQnQtnOJ7wJXYd+1NWSVlvJNfIrumXq9F65Wd2ZjqTPpqT4GahdTuQabo6rtt+6/d6vtoFO2hF+vSMLkemLaSV5Ab6c0qTlv19+P759j3zvT98ib117n1x791Yr+AtXL5GXXrhMfuxvvESeeep0PxNd76+UN/5oBwSia4CAb4B4zKSlxCIs2z0v8eLsUcWLihTMttiGpu9moVleLzYrO92yFheimaySPpUQI6dFTkh3CzeO11GwXJQqNA9PZyPJ85FHL8Nw8eT4Bn3nvQ/Jv3v1f5E/f/3djpn84S9dJf/ilX9IvviFix3v97oIo4N7t/ce/CH4yI3EahogJOkYtFRlTkxDDS/Js3wMdqjpMSLLsCLNq2VbmmnbULMzoEZnVKFmV1JNrVDV6oWKXnO1NltMUJIglsfjUvQYNFHpm6XC0sdlwYICW1BzrRGbcDIvpAauEdrkFrx54W1sEvb6izl0b7uxd6+olddnI9lzKSl2VuLEmUNBJuojrVn1EisKoy1k/+bn/qnrmlZVr6+NiljRvFLBcSs69LmjblUYjKA7qZJbGTExn5TjC7Smp8ALWuC9KkMWL3h5Aoys0xpiWauu76ml/VF2noUXLvCRqahExRzEixESAs/HOMIpHMvK+y+TYYjK2GQXhhhgXi+zAlzuMcS+DUMcN3lVuDk3x9RQsFx+W+AXsbla2by125Dvw1t8Tial6JLy6NfNcW21HWWzqbVOJan149u+PDJH2gxsC1KvRNMwNKybpiF0MqlFtRLapmCv/AZxL6+VN+lO44ZmahZqX1mFk7MwYJQReCHtdVcGNGGbuqEXYDpbHt4+lQPhzEEztqO/nGGZRkGrbNO9ExtIG/fV85f/GYyCPvqD6BTo8TUUrB5wet2CTtnaw6r64cMq+RA6QmGoPboQEeQ5+ILAr1v314Zdu36TfO/7b5I33n6PrG08+hE6tjBHXn7xC+TLP/KyffG5c1t1Xd2C30cGqvnHoRY31SsdQd6jfVZONxr2lX/ydafBScWo3YdfaVynzDGxzwJS4TgoHuCaE4FBiSQIWEKAyo7IcTEBRllZhlFgYEKGowBNVjpw0P7RtS3b1qH5qkOzToXzhg6DHJppVnV4+xQIVLlmqCXwi2uNnH4W89HOQPxMJ2JFraNgHY3xE0/R0cRdUmhNnE5ChyhUy6fgS5KCDtGEyAoxloWqL3w5/vuvvca/+p9/ncnnW28Y27eRyxXIjQ8+Jv/zN39X+9GffOn+P3rl77V6rqfk5MNpJXMBXmkWyhHKdgf7fkZ6nLgJC6Nilb1GCVfP6MHTzS0qLI/EpfsPACgVA35mLcGiQ6jQLIN/4dtQsDwuk5Jey9P9sNn/8ervXPrOt1+/2lS1rqOM9VpDomHos1S0aA2jrNf3FqPZXEpKPiOw3FAcJQ+nfdifS83KJ5D3jWHHO8nxUYGCWQWhFKmD5TLkjrmDUU/O+Rt/cn3ue3/wxvO9xKpNg4ahYekz9Bp4WWsPypvvQ7/Z96Ga/yHtO2iHDfpIXRecbk7DVrTa8np19xOndjHcZBHAGtYQyvvtv3h/qVFvyk6jomHpMy//6PP7Iy10uhDds3JqJaMkTsMQ+un2ULlTu16Ho35Wf/YX7zgyS8P226DZsrNd27uleezG8PofXVu48dZHx9eW12e21nPTNB1zi9ndY2cWd668dOHhl37iBazN9SuckNxHwRpCQdz9ZMX1dIpuz8Byzmt0n5Ljn6bk5HHomF8KqmOeOoW++YMbfUcKqS8WDdtrox7t243Ce91Gkno92+veb776e5de/+Nrz1aK1fjBcOsr2/N0/+j6p6dX7q7f/PorX33k8XowEJ6HjgAKls9FojZUrlSsPPHH4iRK+gx9VlZks1P4PVhUgu7QsX9zSk4tQsf8AswzmxdYPtUpvB/XqJsCdQqlWzf3hrbjaC+XBt3SC9u1/PWdxt6Kl+n89V957dnvvvZnL0LXTNeuDypkf/w7f/oSdDQzP/OzP33Ty/jRlvcEULC8ZzpUi1prQvDu8maNLIusqCSlyHRMiGbjgrIkgksEDBdzfiaIerBTp9CjTs0BP54tWDrmfdg9Fasbr9+afvO7717qJVZtLjQMDXvp6vmtK1+6hC8jaYMJ4REFy+dCoTWkZCpeadRUxU1U9Jlutatudmjfz25DW91tFKnD5fUpKbkwH5u+Ar5hdNqGbxutPdG97WdlN5sw4/LJwdBO1ypa/d52LXfT62Ygzejr33n39OFmYC8ANCx9BgWrF6Xg76FgDaEMzj59YmNrfdfVNB76zKBJ22uWNsDBrwBLolyAOWfPwDSIyKA2Oz1vVatEX98gxuYmMba3iVUHf8JHazh9FhzmV7CRCOFnZwk7O6PVsvHbm4x6QzWbvswTvHPz3tJnkTs7e/zM285CY6ggCKBgDYH6iz90efXdN28+7XSkUIlIKn3Gi6RRQbhfXn+3otR2ppX0+ZjgnROqbZpEu3sX9uWWUPVMLwiYVasR7d49mCF2TzSj8nR0LnNSOz13xxJ5o+ezLm/urOeUUr7i2meNPkOfnVnM+iKiLrOBwTsQ6NoZ2SEsXjoiAeqe8GM/9fJ1SRb7+lDRMDTsQZeGI0b7xGO5RvHhncLq/9+o7nyfLgr3xM0jflBvvE/qr7/RX6w62Bdr6lx6eeOHpz9c+UKH23gJCXQkgDWsjli8v9iebkOdQrvVtGjNiopVO6zXqTBs01iv7d7ZauwtZ6X0ibQcW4rwkSVoKrrqX6PpUj+4CfsHAycxvpm/Ygmcvnvp5I2BjT02QGtIyUy8nN8tulorij6DtSuvSsEfOyhY/nDtaJUK0VMXTueoUyj1s2q7O9AOdtpnRZuBXtesOiUEpmBYsFTOfbrTNZySUmwe5j/CxG15Gqb/JDs9c/Aa7adSb4IHwOF+qoOBnJ7bNhNfy11WpxJblfnMvqOs08e7hTv37OnVt//kuivBos90s4fXw0EABWtI5SCpRjxRaR7/2tkzcz9z8mSaN6wUrP3TdjmgNZwZmyHPGvfyRYPnCg2F3yrHpYdNma/4mcQDazh9JDKcFJdiaRCuDIwsJunMfp7h6C7DxNj9dYu01VUbRv1aE2W9SBtrWlJ0K7/kpWB96cev3qNOoU5HCuOpWIU+40V+0IZ/BFCw/GO7b3l6t3YhXmk+I+jW1P7FDidUwGgYuisN/Sw8s1eJSx/vTkc/6hDc80uabTYfLbz22eJrByOh6xbRz0vLd78CXxxXo54H7XQ6l4t117MBOtlpX6PuCX/1y1dv9XMcpeFhkQKLhkWXhja98B5RsHwsG6lpRrP5+rOxcpPOEnY9wEGFK5NvvCwaViKXidxsSlzNx+T2NU3XLeINk2M1zbXnfj/j1Ca1DbXLjp79/Z7vdJ96rkPN0O40NacdvlWz+psv4NScNpCQH1GwfCygx2L13IBRsCB4LRvr8/G3BrQ18ONUUFjDct1J3y9iatNLsWrHR+cInji7mMfJz20io31EwfKp/Ggz8HHNypMYqK1pni0Pq3noSaJDYoSuxtBpRQajrsl8RFT7JRNeGcETlrEZD2t//eLE+50JoGB15jLQVdrBTvuswIjrZmCPiFlqcxgd8T3SMNK3zKYuNtbyx7Vc5Ri8gXDB0o0orKvpqIw4WSjwMWlXmoqvRU/N3iMcY400jBFNPAqWDwVHRwP7dbAfJVpqk9relfmhdMIfJY1hfaa+mjtWXys8rReqp4+SRlPV03Rv5qrn1Z3yKWUhcztyMrt6FFv4zNEJoGAdnV3XJ5WG0VottGuAAW48to2C5YJhY2X3RPXO9ktQw+rrY+bErFaonQLxatlC0XJCzLswjqrD3kU3GZZgtMuVw6IbKn7adpOOUQmr7VXT1ZW9S16JVTvfZkPL1FZ2Lzd3yz1dVdrh8egNARQsbzg+YYU6hT5xwcMPftr2MJmhMdXYyJ+EF1Mt+pEgo6rOq1tF16tC+JGWSbGJguVDSR/wYPfcup+2PU9s0AZNm9XyNV/XAtOL9fmgszlJ8aNgTVJpT2BeaS3Iz2zr1aZv/ZV+pntUbaNgjWrJYbr7ExiG64Fl4cBV/5LwLAQKlmco0RASQAJ+E0DB8psw2kcCSMAzAihYnqFEQ0gACfhNAAXLb8JoHwkgAc8IoGB5hhINIQEk4DcBFCy/CaN9JIAEPCOAguUZSjSEBJCA3wRQsPwmjPaRABLwjAAKlmco0RASQAJ+E0DB8psw2kcCSMAzAihYnqFEQ0gACfhNAOdB+U0Y7U8sgfpuvucyQwZDGM2yOM0k8A4OmzVtm7VgxWYbXi67IB/tDUmR6UzRDfD7NS3OMLBePawVLTAMvISbseAllKbMMSb97MbWMMKiYA2DMsYx0QRyuiWtNo3khmYkdptmomiYsZJBojXLVnTb9vRvcG/FmzfBCQyrxwSmlubZypTIl+ZlvnRSEQvno2IBzhtBFajzt/d+87odVCJHLd5bkT1fk3ypHuwil+9vXPMlf1cWXiCibRGBWISHX3wOdlj/i9Av6S4rHinOVzduHOm5ww+x7c6Tx38F7T8GG05eWbhyODghNryMx9bgOuytY+gqK59Ps6MrAIKhZQE7PTKyo6f6Bvra8460yFN175soDDDxBKqW0WJgwPe+yTJEY2CHow6f/0PxPZK0H933CpQQ9/crboFg/VL9U7LFSmSDlck67CusQnKO/vy8yuXk2PG3NCeHI+bUAYEKz5A89NE0OYY0QKig4+SJzWuxosYt0yAs59/XHLSWnDdrrb2dmSbDkk/ZKLnHRcgdLkqu87DEf0uI9cdHEOXWZ/qS63Zdrf20B0f6a8APWqOjhcNBDYqyg711FB4f4XpAm38lGVCGMNpwE1CoeIBgmfCXbh0SrHCnfJDU0T98+kcuwfGgnbZY0WP7nN6n5wP8abrSE1qjPZgoet7+3D7CpZBsA1AJSQ4wGSNDIG7YhO50o01AFUSLNgtbTUP4vM6LJG1DLcTDzWiqhJc86mfpkC7aJFzmo2TzcJPQUZ9bWxDaxw4RHPVSHTrfI1EHT4+WBIxWah3gxyCjQUCAFosAf+3xAzWLv7NwyfNO9/9UeYewWpPoZDDR6tXp/osL58MH3ZFYhS/Z/VKEgtWPEN4fGgFa96L9P82Db48fsPJhQtOKJYN35FuDdgkNjeLjiBzXsIadsMHig4o4bkhgvAkIBFwMJm0TqOvB+G0oWONXppijQwRoc3DiREuAET1ayxqzDQVrzAoUs4ME9gmMYT8W9mHtly6eOCEQ/Zc/R152EPCNf/73HYQaThDqNy+R6sAd78NJrYexjGE/FgqWh9+PtqkXf/aX26eOjm//ys87CoeBjkaAdrzTjTYLBx0tPFoKAnoKa1gBgcdo9wl466W0b3ZsT37+v/xeK29n5lPk7EKK/L93H/TM6y//46/2vI83gyWANaxg+buOfRnfjO6aGX1gebPY2o/0MD4UGgLY6R6aonCWkGXL1bwLZ0YxFBIYEQIoWCNSUO1kXscaVhsFHieQAArWCBX6JyBWf26Op0Mg9XDHDQn0I4Dfkn6EQnKfTi75bQPWXLLHs8huCU4m6oakMDAZgREYz29/YDj9i/g3DJn8X9jHdftAjI1r1jBfHhLAUUIPYfphitasqFj9b13xw3wobG5xInlDSoQiLZiIcBNAwQpx+dA+K9oMHOeaFcX/zegM+QEKVoi/ieFJGgpWeMoCvLDBXwhEirou0NFA2sE+rn1WFDtdTua/xhfI/4nO0o+4IYG+BFCw+iLyP0DQb8HxP4efj4F2sn8rOk1ei0x//iZeQQJdCKBgdQGDl70lUGJ5sgf7RyBUN6CD/Ro0AR/w4zuI4C09tNYmgILVJoFHTwlchncMHtx4eIGfAW/KwQ0JDEIA3RoGoYfPOiaAYuUYFQbsQQAFqwccvDXaBDj6WmafNx099H0m/KR5FKwneeCncSIwhBbosoge+sP8yqBgDZM2xjVUAub+C0H9i/aOhB76/tH9vGUUrM8zwStIwBGBuzDa+SE6vDpi5VUgFCyvSKKdiSKwIcjkO7EZsiaM75SpMBYoujWEsVQwTaEmcENOkjcjU+RDGec/DrugULCGTRzjG0kCm+DkuipGyMdSnFxXUsQaQv/YSILyOdEoWD4DRvOjReCVhSufS7BgWzDvkUHH18+RGf4FFKzhM8cYR4wA+lqFp8Cw0z08ZYEpQQJIoA8BFKw+gPA2EkAC4SGAghWessCUIAEk0IcAClYfQHgbCSCB8BBAwQpPWWBKkAAS6EMABasPILyNBJBAeAigYIWnLDAlSAAJ9CGAgtUHEN5GAkggPATQcdSHsqh949/7YBVNIgEkgDUs/A4gASQwMgScr8n4zev+rzc7MtgwoUgACXhK4GvPO9IirGF5Sh2NIQEk4CcBR4L17XfeifiZCLSNBJDAZBNwqjGOqmEtlNgknOxvFOYeCfhJAJuEftJF20gACQRBwFGTMIiEYZxIAAkggcMEULAOE8HPSAAJhJYAClZoiwYThgSQwGECKFiHieBnJIAEQksABSu0RYMJQwJI4DABFKzDRPAzEkACoSWAghXaosGEIQEkcJjAXwJiONqUD5pHPQAAAABJRU5ErkJggg==;clipPath=inset(2.5% 5% 0% 4.67%);imageBorder=default;strokeWidth=2;" parent="1" vertex="1">
          <mxGeometry x="1080" y="280" width="200" height="150" as="geometry" />
        </mxCell>
        <mxCell id="XJ_LkTCEqYGjdxWgntM7-4" value="" style="shape=image;verticalLabelPosition=bottom;labelBackgroundColor=default;verticalAlign=top;imageAspect=0;image=data:image/png,iVBORw0KGgoAAAANSUhEUgAAASwAAADICAYAAABS39xVAAAAAXNSR0IArs4c6QAAAERlWElmTU0AKgAAAAgAAYdpAAQAAAABAAAAGgAAAAAAA6ABAAMAAAABAAEAAKACAAQAAAABAAABLKADAAQAAAABAAAAyAAAAADOaDBdAAAuyElEQVR4Ae19a5Ac13Xe7Z7unvfO7Av7wvslAiAIkiBEGqRESqJiRhItlR8VR1FVZKcSpWTaLuWHyomjOCn9UeVHVHZRSRQ5UhzLthxbimJZsiiREiWREkkQ4GPxJLALYIF9z+7M7Lx7enpyzuzeRe+gZ6Z7pue5pwuN7rl97rnnfnf2m3PvPfe2wBo4vnXp1cGCLh0VXcJhJrADjAkhUCc1oJKyEgKEQG8hoDFWjLMim9ILxXdconbxV488vFJvFYV6Mn7v6lV3Vks8wlzCu4tFdrAeHZSHECAEth8CgsCusULxNY8UfOVDhw7l7CJgm7B+fP26J5qLPV0U2JN2CyN5QoAQIAQQAaHInu93h7/zvn37snYQsUVYJc+qkPwVIis7EJMsIUAImCGApOVxBf7OjqclmimqlIbdQCKrSuhQOiFACNhBALmkNLRkI5NlwsIBdhyzsqGbRAkBQoAQqI4AcEqJW6pLbT61TFg4G0gD7Ju40Q0hQAg4gAByCnKLVVWWCasUumBVK8kRAoQAIWARATvcYpmw1uOsLFpAYoQAIUAIWEWgFMNpTdgSYX3n9dd9G0Gh1rSSFCFACBAClhEQQuscUzuDJcJ6+qGH0qCKIthr40kShAAhYB8BaYNjaua0RFg1tZAAIUAIEAItQIAIqwUgUxGEACHgDAJEWM7gSFoIAUKgBQgQYbUAZCqCECAEnEGACMsZHEkLIUAItAABIqwWgExFEAKEgDMIEGE5gyNpIQQIgRYgQITVApCpCEKAEHAGASIsZ3AkLYQAIdACBIiwWgAyFUEIEALOIECE5QyOpIUQIARagAARVgtApiIIAULAGQSIsJzBkbQQAoRACxAgwmoByFQEIUAIOIMAEZYzOJIWQoAQaAECRFgtAJmKIAQIAWcQ6IlN+dwuWfFL3rBXcocVl9LndikBlygGZNHlEQWXB16+KIuCWKqrXtS1ImN5vVjI5vVCtqDryVxBTaoFdS2j5WIpLRPLFfKqM/CSFkKAEHASga4lrLA7OBSU/WN+xbvD43IPAzn1WQEGiEsGOdkliD65dMtYkMEO0BuHphfWsoXcclLNLCXzqfloLhHhz+hKCBAC7UWgqwgLCKq/39M3EVC8E+BRTQB0jtsvAfEFRF9fQPYdYGywCAQGHlhueTWXuLmYikzBcxfYMOqXfEPg2Q0okhKSmOhziS4vNmVBL2Q0pqdVTY2Dp7aa0tKRaHZtAby5fHubmkonBLofAcf/4JsByYA7ONzvCe0Pyr59sku25Ek5ZIcABBWURF/QL/v2T/h3PAZvDyqITPBU0g/E5XMxl8+tyENBxg4MsTAb9Q1FEmp6JppbuxEjj60SdJROCNREoKMJKyh7+4e9Awf73MEDVrt8NWvcgIAoCKXupF0VMKY25PYqQ/3u4LviavJaJBu7Gs8lV+3qIXlCYLsj0LGENe4fPjToCR31SO6RXmkk8L78A57QCb/s3bkqxy/eTi5d6pW6UT0IgVYg0HGE5REV33hw+F74wz4msJJH0wocWloGeFyDY/7h0x4Y/5pNRs5ntGyypQZQYYRAlyLQUYQVkL2hnYGRB4KK/3CX4mnHbFe/O3SfJEhe8LTOJfPpuJ3MJEsIbEcEOoawYFYOyepkUPEd3E4NAeR8aFdwRLydWDqXyKei26nuza6rJIqugOTt98q+sKcUnycFXaIUgJAWL/xQeAShLD6vyPJaUcsWinqmoGswO6wlshifl0/Hklomqul6odk2k/7qCHQEYcmCS5kIDJ/YbmTFmwZDKMYDg4Xr8dwrqq5leTpd7SMAM8nhkCc4GpA8IzD+CfF58oAVLaX4PCAwF1M2g/JglnfzyOv51awG8XladjGeTSwkgMQ2H9JNyxDoCMLaGRw91qcE7mlZrTuwoD4leHhncCQ9HZ99rQPN62iTvKISGPT2Y3zeTh/E58Eqh4phJ/VWBIlPVuSBoBJ41w7PQDatZWYhuPj2SiY6m9FVGoOsF1ib+dpOWDATOA7T/cds2t2T4gMwppX1q7G51PI7PVlBhyuFgcRD3vC+oNu31y0qQw6rr6gOCRG68gfwHPD1RRK59I1IJnaduvQVIXPsQScQ1iEMtnSsRl2sSBAEEWZH70moyaVEPkNdjgpt6ZM8fSO+wQNBt/+A22KXr4KqhpORKDHGDshrf0JNTa9ko1NrKk2gNAxsBQVtJax+T3AEuoIHK9i2LZNhAffosHfwUCJ/+8y2BKBGpSEc5CB45fcATuM1RFv6GJdpub3hAfD4HioWi3qhWEwXYAAflnYlYGE9Dt7HoAu5mtRSKzR4X3/TtJWwwkrfOHgVrvrN782cfe7AoX4lOBNVE4u9WUP7tUKvatw/dBTWcR5lTGjr97aW9egpS4IQkJgScLvYEAQKr2fxM6bq+RWIu1sC8lqAhfVzcJ+qpY+e30GgrQ3vld077phCdxwBWIYUGPCG9hBhrSMCHtXoiH/wBCx438Mx6tarIsqDiiIPhpTgkR2+AfC6UrDGNHFzJRuf79Y6tdLuthKWIkqhVla2m8qCUIc9fslzKaVlE9zukDvQD57GAGyn0w/R8n2wMDsgiZLfJQgKTMsrKAf7fanQHVE1XUut7zSh4nY50bSWXYX1i02N84JYJy/8CIW8Lk9pTzLZVbLPJ8GeZK7SvmRopyCDBwJblDEGXaeiXizmi6wINheyGp66ls4XcIcMNZkpZNd8Lk8QxvV6aokW1h0PWZTCsKg/HHIH7xn0hqZXM2vTsM709vpT+t8MgbYSFkwVt3LnBbP6d2ya4pJhK53QhFtzR0NKYAKIahw9UliuVLXNgLjcosDc4KWVwoj4Xl9AClomn1sC4pqDBdizq9l4w91N7KYBiQ4DsQ67JfcQDEAP2AkpQN4CssUhAY/EXH1uk9ZAUuMEZ/K4J5LwxwY8rnsCsn9f2B24sphevUxxXuZNW/XLb56FUluFwLC3/0HwojCmqOF2QqLzyZ5xPGFg+P4d3oEZmI28Cb/oN+3ssBqS/YMhT98YBGaOeWTPCG6E2Ew8ep2sjNgBlm74kbrPC0GvK9nYpblUpGPCW+BHKQBjcQPQ5iGYme2TXVIQPGf0nr2CKMqw5RLuZMJ0Bh6zrsOKAdgXrlgAb1lL5PT8WjafjafyGdgfrrF1sw3/IRgBt3sP0cNr4GWF7ebbLvLY5WtSXSVYVbAfz7AnOLOaXbs2n4pcq1QWrESQh3z9u8HT2+2TvbvxD6uSLKU3jgDuUDIW2DHghq71bGpxUi3kc41rta8BYyRhFn/UL7tH3C73CB92qKYJiEthokuBPeH8pS8JZxiYd8DhChieWEznc4tranIBxu3mqukye8bVmT1rehosQ4kTYTUd5qoFQGT4bl/AuwvIazySjl6GnVWXeAbYTcK3w9u/NygH9oFnhju80tEiBNBjGfKGHpRdom8uEXkzqaXXWlE0BOMODHj7dsF1J4SOONrmSHjwfduFJ3j5DEJUZiHY9jZsajljtW5tJSwcU+mFmR+rYHewnIBjKNAVGfakPefnU8tX4ct0CAa7D3VavFMHY9gU07BdxKBLnk0unm3muFZYCQ4P+kL7++TAftxltymVKVOKhIgnrPA4ejOW+88wbPF/doeV18vEtnwszdZsSanw4ZtX3vhyhUd1J2Pg6IG+XR+BcQqKxaobRWcz4hgEdtVhAH3QWc2krREEIIr+6q3EwplGx4DKbQhIvr6RwMAh8KIPdcCuvlMwx/IX+Xzxzw/u8JgOUbT1vYTRbAL7sqaGlQNLn1uDAHZFiKxag7WdUnAbovHAjhMiDBDZyVdNFlcN7AtNPA4ezskOICs09QA4L/9BUVz/81Y893Ez29vaJUSDYO8h3E4FXhUIr3eggxAgBCoiAK+2O7YvNK7BbNsiDMyHFJfUB7FcsL8XzNaJuL+XsHW2DmLcIK4N9veC2TrY30staGuwRU4c7rPQBdwF2/AcgwmUUvxexULb8qD4XghmuW8mlj/GZOlLu/3C5uB8WwkLGmAYpkp3ASZEVm35YlCh3YYAjCuegLOm2aXZOggodrkUWBDEyrv33eAgQPRA8d8VVXXPTCL3hd1B93msdFu7hDAD9S6I2La0wVrNFiIBQoAQsIpA1zgI4DX+s6LGvnBjLX8aK9c2DwvIahcs8j1sFWGSIwQIge2JAJDWh8Uic92IqX/YNsKCgMV9tZaZbM/moVoTAoRAOQIwe/iUwIqptnQJcafIgOTfW24UfSYECAFCoBIC4OD8WlsIK+T2j9pZJFupApROCBAC2wuBthAWrEdr2f7b26s5qbaEQG8j0BbCgk3MaMFzb3+vqHaEQFMQaBdh1Q4kaUp1SSkhQAh0MwItJywIABFFEbagoIMQIAQIAZsItJywbNpH4oQAIUAIbCLQcsKCNQG6rhfVTQvohhAgBAgBiwi0nLDQLnjVUdyifSRGCBAChMAmAu0iLHqr8WYT0A0hQAhYRaAthJXOZyJWDSQ5QoAQIAQ4Am0hrHgutVDQS/tgcTvoSggQAoRATQTaQliw8Xw0qaVu1LSOBAgBQoAQMCDQFsLC8mPZxHXYoEsz2EK3hAAhQAhURaBthLWUicK2zcmOeVFkVZToISFACHQEAm0jLKw9kNaVXEFd7QgkyAhCgBDoeATaSljwAsXl1UxsEl4t1ZY323Z865CBhAAhsAWBthIWWnI7tXxlNRN/e4tV9IEQIAQIARME2k5YaNOt5PzbK5nYGyb2URIhQAgQApsIdARhabpemF6bPRPJxM6AZTRzuNk8dEMIEAJGBNr2EgqjEfz++trsG7DOMDPkDR+FTf5oV1IODF0JAUKghEBHeFjGtphNLl2+lVh8OaGmKeTBCAzdEwKEQPveS1gN+9VsfDGajS+P+Yfn4S23B7ySe2c1eXpGCBAC2wOBjuoSGiHHfbPmYAZxOb16fcQ3sK/PE9zrl7y7QaZr3lprrA/dEwKEQOMIdCxh8arliwUVQx8YnEOe0ERQCYz5Ze+IR1JG4T1lLi5n51pkxUJWUxcyhezSgDt0P+QlErQDIMkSAm1CoOMJy4hLJBufxRPTgoovHJB8Qz7JE5ZdckhxSUFRcPkkQfTCq61LRAZviy1oRT2jFwtptaAl8oV8PK1lY0ktHYExstKeXOGRvmMioz3mjTjTPSHQqQh0FWEZQUTC4aRjTMd7kYklwtKZXih/Vv65oGtJUZQHytPpMyFACHQeAh03S+gEREhUVsgKy1KBsJwok3QQAoRA8xHoScKyA1tOU6N25EmWECAE2ofAticsGNNaaR/8VDIhQAjYQWDbE1ZSTUUKeiFjBzSSJQQIgfYgsO0JK5HPxNJabr498FOphAAhYAeBbU9YCFYyn7ptBzSSJQQIgfYgQIQFuEeysRkYfF9uTxNQqYQAIWAVASIsQAqi3tOwv/yUVdBIjhAgBNqDABHWBu6L6ZVrGS1XiqJvT1NQqYQAIVALASKsDYSyuppezcZgSxt69VitLw09JwTahQARlgH5uVTkajS7dtGQRLeEACHQQQgQYZU1BpDWhZSahpe80tEhCOiwC22kQ2whM9qMABFWWQNA5HtiIbP6dga2nyl7RB/bgEBB19VrsVsvLGVWX81qucU2mEBFdhACXbtbQzMxxB1PXUw8N+ofPOmR3CPNLIt0V0dAY1oilc/E4XzL45Kv9OOeaJJvwqd4xmVR7que25mnsC3RGmxPtCrCth6wD9s47MPW0v3TYJskrIgO2yZteweDCKvCd3o5G70N+9QUR7yDD8IWzWMVxCi5yQiompbgRWQL+ex8KjIFyxKm3KLi6/cGRwISbuboGQYiGQIikblsI1fY4DEPoS6RrJZdTmqZxWgmsZiDSRnUOeYfOtDv6TsIu9/uaaQMq3lTWuYmjKteQ3nYLvwI7P82bjVvL8oRYVVp1eV0dDavaXnwtI4HFf+BKqL0qEkI5ArqqplqJJCF1AqONZbGG/2SJ+BTvGGvS+mTwPNyu2S/Czd0FEWvyFyKKAoKEFrJQwFC0nW9qOqsoMIr5jIF2OAxV8inND2/limoa0k1E8toWdNth5AwI5nozJB3YE9I8e/xK77dsAGkI0TJ6wlvQs/DOOpMXE3djGRWb+b1Qh6freWSS8O+/oNhd/AAeJfbcg83y67tN6+88WUO6Ha7wq+3b9w3fKzfGzoKX073dqt/rfpeujLNXnjxFfbKmbfYmbPnS+KnTt7LHjl1gn3giUfYkXftr6Wi4vOba3PfXwKCqCjQ5gdAHjv63X0TsG33mFtSRuolLyQpWG2xCF3f+WhubTaWSyxVqlpQ9g8Mefv39Sm+/YpL7q8k14vpRFg2WhW6h/uHfKHDvvWXYdjI2buir79xgX3x2T9jP3v5rGkl3/PoSfaZZ/45e+iBY6bPqyXC7ODKlZUb34MYua7YTQOIpD8APVWPS+kHDy8kiVIATvD0BEUURAXrqhd1tVAsgmengUenJcGzi2cLajSppqOJfMrW3mwB2RsCstwVdPt3QhcV3yzVKWNcOmwosACea4oVmcsjyeGGPcIiOw9vXniVuoTV/mLKni1mVqZj6trsiG/oUNgdOOh2KTvKRLbVR/SsqpEVgsGJ7N9/9l/b9rSS+fTtbiErrCsSjl3SwXz1HkmYjMCTJdn5AaVvLOQJjqOn54UXtMB7VVpMXvDyBJhZRw9xTU3OrmTjm7PskggvXJB8g343kjmQlyD3yZIUcDGX1yWKns2XyQgsKxTZMkwxwLpe4SbgMi2w4hWY4piUsvLk6KiQIsKy+W2BX8TcTGL+/HLGcx3e4rM35Pbv9q7/uln2VnmRuZxaunW7Sz++PLlrrtgN5IRUzWiUQVk7XUMYZMrGsomO7QpWq287nq2qa/N4YtnQTR0C72vI6/IMwYTRgCzJ/U4PZUAXNpfX8lFYzrYKb5+KAHFGoBtrGi+n6QUtqiYW8TTDBmxzfezwiU/DLOj6H4SZ0EYaEVYVcKo9gkHZ1K1k9sKtJLsAA6Ew1e4f98meUfiCwK9b5deGnTk3yV748S/Yz199g92eW/8R2jk+yk4//AB78n2ni8fuO7SQzmcX4PdRADd/F3hxg9XsaOczHLOyeqDsM5/6uFVxltBS1+FXmvYps4zYHUEkDiN5QGiODyYlQkBgfTI4O4rLFZBhllUUBC9MTHjgKkOXFScO+I9uUS8W89B9zUO3Lgv3mTxMcqiFQjIPb58CglpLadk4xMWVZk7vlFzfHZBfwQpZoXYirPow3pILZxOXWbS0cDoEA6Lglg/ClyQMA6J9iigHRBFcX/hyfPXPvyU9+9+/Lqyult4wtqkjEomyN9++xP7XX/5f9f0feuT6bz3z66WR60FP6Nawd+AovNKsI2co+QD7ZkWq3NiRhVmxxEomTrtnVMHTziMklnVyqfwDAEwlQJxZibBwChW6ZfCv8w4iLIfbJJ5PreJZrvZrz/7tvT/8zssnc1m14ixjOpVxowzmRdJCD2Mtn16Z8A9Fwu7QEVl0tSRQstz2Vn+O5xKXoe5zrS53O5eHBAWrCjqSpIzt0uKBOWPR2+f+5z86N/rCd3/+YDWy4migDMpiHkyDKGv1xtr8WzBu9mNw8y/g2AGXbfcVQxesHlZlE2pqaja5fNmqXpLbXgiQh9WC9n71pbd2Z9I5j9WiUBbznH7/g5szLbhcCM8hT/jmgLdvP0yh7+dT5Vb1Oi2HcVY/fel1S2pRttYB3ZalxdTKedXhMIaXv39m/M1XLu66PTW7Y2E2Mox2jE4MLe88MLF0/yNHbz361Cny5mo1Toc8J8JqQUNcu3zT9nKKSnlgO+fbeA56gu+EPaFdMDC/u10D8xgU+ovX3qw5U4ixWChb7cCI9sVM9I1KM0nV8lZ79pfPfvvel39w5ngilgwa5WZvLo7hefHcO/tvXpud/PgzH1uPeDUK0X3HIUCE1eQmyWayrngsseWPxUqRmAfzeryegpn8CmwqgScM7E8OesITMDA/DuvMxmRRCpvJNyMNwxQwKBSPSuENPHC0WkhDXs9HF1Or55YyKzedtPPrf/Kt489/66cPw9BMxaEPJLIf/O2Lj8BAs/CJ3/vVSSfLJ13OI0CE5TymLdWolhYEL0/Np9iUIirekNs3HJD9Q0HZu1uBkAiYLnY10yCMYMeg0HqX5kAczwJsHfMWnI6S1Zsvnx/+xfNn761GVhwXlEHZe08eXrj/0XvpZSQcmA68EmE1uVHQQwqFg4lMKuu1UxTmqeRdVdKDYz/LGXVmORPDgMtzg+7Q+Fhg+H6IDcNlG0070HvCk8dZFXM5WHG5dTLULC2hpqcXU5FJp7uBWNGXf3h2f3k3sBoAKIt5iLCqodT+Z0RYLWiDg/fsmVuYXba1jAfzNGraSi4+BwF+UdgS5SisOTsCyyB8jeo0y68nkyw/O8e0+XmmLS4yPQ3xhOt7ON0Rh/UVos/HpJERJo7sUFNDwSvzQvbNbCHXlHWCVyend98p3NrdRp5XrUmTVDsQIMJqAeoPP3Zi5uwvJu+xOlPo9bmzmMcJ05AQrq/Nnk14U0vD3v7DAdm5INRiocDUa9fgnCoRVVV7gcD0VIqp09OwQmxaKfg9w/7Rgb3q/tGruiJpVfPafLg0G/HGVxO2Y9YwD+bdMTHUFBK1WQ0SN0Gg4mCkiSwl1YkAhid84MOnz7k9Ss0YKpRBWWNIQ53FbskWycRuXY3O/GQuufRj3BRuy8M6P2TffIulX/55bbIy0a+ksqP9U3PvGb5w8wGTx5RECJgiQB6WKSzOJ/LlNhgUWsnTQs8KyYrLOm2FVixos6nlqwuZlakhd/+efk9gt0/y7Yauoq3xNbQr+/YknG83bGJwfvV+XXbll+/d+2bDyjYUoIcUGgiurS7HbO0VhXnIu3KqFZqjhwirObiaakUietfR/REMCsU4Kx7ugAPsOGaF3UCnPSszQ2AJhg5b5VzHE/dwCrkDY7D+ERZue4Zh+U/ILI8xDcepspMQAVA+TmUUsnpfLArB25ET2cG+hcTYwGagrNXsleQOHd8/8+qPztkiLMxTSR+ldwYCRFgtagd3Vgv2JXK7fvPggdFP7N3bL2l6GPb+4SEH6OHsKArsuDa9GtMkVzTjlRbWgu5bOY+UaKaJhj2cLiqCyx10B/qBuAZgZjGEK/slwYWnBxbGbu5bpM7MFGHWr7RQ1gnbxILu9i+s7naSsB794MlpDAq1OlMYDAcSmMeJ+pCO5iFAhNU8bDc1Dy+njgYTuSNyXh/cTDS5QQJDGTy9mfxByLOSCLovLQ/7L5qIO56kFgu59Y3X7my+ZiwE9y3Cz7unrj0NXxxbs55GPWb3nlja9moAMz08DcMTfunJk+drBY6iPGxSoKMshTRw9Dr3SoTVxLZx5wr+odX08cBaDlcJ257gQOIaWM2cVjS9LzLgm8y5XakmmltTNe5bJGkFl6iqtiP3aylHnagbvEvTyP5a+c2eY+Q6eIZFs6U5XL7kWf2jU7Q0hwPS4VcirCY20AZZ3ddgESIQXknH7FjwlQZ1NZwdCUXUdNuD9LUKRp1OkhUvD9cI7jk4sUqLnzki3X0lwmpS+2E3cMOzcqQE1DUsiWut6h46YnSHKMHdGMx2ZNDSqkfyKdlaZsIrIyQmCkXBQe+vVpn03BwBIixzXBpKxQF2HLMCJba7gVUKFlFnKwbiq9jQ1Y8KubySub26S40kdsIbCMf1vOaHfTUttZHLI0elgHvZPRi87d83Ms1cgt7VYHSp8URYTWg4nA2sNcBeT7GoE3Uve6SWDMLXY2On5knPRHamb0fvyUeT++uxsZDN9+OZiyQPZ5fW9nnHB6749g7N1KOL8tSPABFW/dhVzOnNaKXdQisKNPBgQzcRlg0MMzeX9ySvLj4CHlbNGDMratVoah+QV0kXkZYVxJyTseQOO1fc9tAEs122AhbtoNJM3Xbs6BZZdSXZn7y5cq9TZMXrXcioA6mbyydyy2tVQ1W4PF2dQYAIyxkct2jBoNAtCQ5+aKZuB83sGFWZudW98GKqiWYYpCWzY9mFmO1dIZphy3bRSYTVhJY2RLA7rr2Zuh03tt0KC0VRXU01dS+wfCw91u5qbqfyibC2U2tvw7qiF9TMaueTuaaNVzbT7m7VTYTVrS1HdtdGoBWhB7pOE1e1W8IxCSIsx6AkRYQAIdBsBIiwmo0w6ScECAHHECDCcgxKUkQIWEMgEU/IeFqTJikjAtT/NqJB94RAExH4u7/+h/1nXjq7b+7W0hAWM75rR+TUYyev/8o/+ce0D5dF3ImwLAJFYoRAIwj85PsvjX/7r7777nh0bfPlGLFoLDR7a2E4FApmH3/qsYbfktSIfd2SlwirW1qqx+38ybUZ9pXff+mJdy5M7cWqHj524MYj773/+lO/9n5HXpjRTvhSybT0/HdfPGIkK24PpuGzhx57cMkf8Dn69iBeRi9dibB6qTW7tC5IVn/w/37E0mr+MK/C5NlLhy9PXt0Hn3/U7aSVV/PixbffOcDrVn7FZyDzs/J0+nw3AjTofjcmlNJiBH54eRrJ6q5S86omv/LTN5G06CAESggQYdEXoe0IvHi1cq+PdxHbbmQDBsiKrB+97/BUJRX4DGUqPaf0OwgQYd3Bgu4IgaYggGNTT374iUuh/r618gIwDZ/R+FU5MuafaQzLHBdKbSECTxzaw74zedW0RBx8N33QZYk4CxiPJ14zhjWMjg+vPPz4Q9M0Q2i9MYmwrGNFkk1C4IP37GcvXLlx1ziWrEh5nClsUrFNV5teXt2yzdCT73949b2nH4j94Bs/PnDt7emx+FR85Pvn/n7/8196Ths/NLG858T+5Xsev38hONCXH/fU94Yk3/BAzE7FrqfUoCDAfvWwV7QsCPASbkGHl1AWPC6hgJ/t6GqFLBFWK1CmMqoi8PjB3ewLH30/+8r0zDt8zOrgkX0zp594cKrbZwix4pG87p7JaaHbiUz4wjd+tGel7I3UmpqXZi7cGMPzJ4uJ+/SPPFYVr2oPV2468yY4WRDzAVlI9UtiYlCR4mMeKb7Xq0QP+5Uo3Geq2dDMZ4Jl5d84V7Qsu80Fz/tWmorAven2bnL51twZx+uX0wrssVmdyRfPM3FpsaRf3LGDiUeOMOnkSbbs9tdV5rNzb9aVrzyTyEd7N/4K+B9DEW6eGb+/XJyxIryMp6hCOpylq868L73B+r7x3N2yhpSiLLHEb3yQZU6fMKR20i0AIShgEJx4FTzOGPebD1riIvKwnIGbtFhEIKmvx0Zq8L3PiQJTBYGldJ39zWuTzP3a5S1a9GiU6VeusMfnL7OPvPc+JkulF09vkan1QQ429yuuA2H9x/Q7bEF0sznRw2bhvCl6WcTkz889ea2WuUzIa8xz5kIHE1bNKjRVoLmt2VTTSXm3IZCQBLYKb9XKuQSWAaKCgZPS8dIb0+y5MrIy1u2FVy+z4f4ge+yBg8ZkS/d6QWOiq3lfc+BcdriQKp3coJwgsndEP5t2+dhVl5+dk/qZkEszaWGVi1S9yjMLTIwlmB6u8wXb+GsgNTr8hI0DPxACYgdn6QrrtUtX+z8cVSts42HzWtKGESS6fRDwInkAYRXgL13fIKzz1+ZqAoAy7zt1T025zhRwsaI7yFwrUUvmCTmV6YP4Wss6D1t8gh7vRkOUisN7/plf67SjCdnaTlgT8lZQxpWtn7HOExU24hgvy8vxmcvzEQaewtjs3YHUmw/n1DvysyZ5NwXppiEEglqR4YlHHpyALJDWWqHAFpdrT2zNR+JMhe6SAmM8dg4tl2WS26FxFpOCsUs4JfnZfHmXUMRxnjYeaRh891kZ97OHZxtrVCq66dYaCQnJiJMPJ5tycjEjljOpO4RiBGw2b+72Gsvk8mZEyJ+d8t8hyY/K8JcEB9pltAVJjciMI9b4FeO6ZfhrD0IXcTlee2ZrJZZknxw4Zbvg/5Z4nYlqjuVZY6RVbdD9j8YP27ar6RkskVXTrXC8AEcIixOEkZDQUiQlIyEhAXDyqUQ2TtTQjFjM0nhZZnNeWCcjySGpcTLDfERoHL3OvhZg/EVk6wP9jVgK8wLddVj2sLqrWrYJi5MT90qMpGQkJIShmaTUbJiR4IwkV05qVQmttsPQbPNJvwEBmWUb9rAM6uq6FVSVFQYHYRyrdshL0eOGQfcYDLqH6yqrlEluc5e0fsur5qxKWJcuXdqLuXVdf+IPb+W3eEyt8JSqWt7mh5UIDYns0xXG3Nps8rYtHruD7SatoqIwbWzUEmHld+9ujKywpWX4Evagl7WFsJCgNE3bK4riXiApPG9g3eHzi0hQ3ewxYT1acZS8MiIsy1BnYSB9tM/PFtaqu6V6/wBDLwX/8Lv1yN13nLnPX6hqfhGIJvtu+2N1pkp7cBxLunDhwiexsgaCuoEEBSc7cuTIDXxWOr5xjt/RdRsj4P+3n2WnLdT/57/7GxakGPPArN++wVBtwhoZqZusdBjHcrNk27uF2UceZq7lCPP/8PmK2KTf9wTLPGoF4Yoq7jzoRQ8LyQlreOzYsRt4bfUxDMGETh/LG1PnTuu1qu/h3/u8VdGS3Kt/8jlb8r0m/Oi+CfaL63NVq6UdPVb1ebWHOPCOR9u7heA9pZ7+MCsMDzH325NMml8odRFVt5vFNJ0pH3iC5Z/8QLWq2HvWix7WFi/KHhwVpctJaHiji2RMH97ojC43PoFzlx28HKNuI4ktb8RkGdPuUtKhCRoE9Z3yi6yXwixG+kIs6B1iiUyEFYoultZ8LCgnNltAfRz+kE/W10363Fe+XdJzYCzMDo6H2XNnb2zqNbv5/L/8mFly42lXrzHhj7/Eis9+kWXe81jpNHZxhe89x1SQKQYDjZfVwxq2jGHZqScnhaPeOx4SJyHUY0YWFzN34qlaQRbcRrSHkybec5uNz7m93C6jrZinU445XC4BBw+zMIZXdCuJyS6RjcE41vJTTzDp4gWmgLeVzvcx5fAEQ88q/xCQFQ4iN3BMzccYnm07Dh1k7ENPrZPW7/9OyQzjeFzxQ7/MhO9BjDkQF97TYY6AJcI6d+7c+CduCYz/gSMx8T9w4x82/2M3L6r1qUZ7uL3rVtwhTm4V1s1Iar/evx5Aivm4HvTM+D3P1+rrpOZiZ1Sd8TALY3gFJzG0qZuI7KFdg+zsbVhn90unWR7Okufx5a+zzM79pbRWY9ys8kqk9MfgaVUgpfXnXyoRF5GWeStsISwkJhSTJGmsWCyOw8ZeY/gZ7udhWJ5xcmr3Hy3a5PSBdTKSGq+rkcgeD6I3KZTkOAatJrFz+pYmK8WK8XgxTmKITSUiw2dGMit97oAofiSt16/dYOzg3vXB9d/9bcY+80eMHdhbSkM7e+EognclPPMZxg4dgPPgXVXipFXp+V0ZtlmC9NZbbz2NdUZyWiemEgJzhULhLN49+OCD66Ohdc4S4h9OIwf/Y2xERyN5jURmRmLYvURSM3piNxspsErey0BWPytYm9Y3xokZiQzVG8kMP5d7ZpjW6mVJD+weYq9P3dhKTr/zW4x96WuMffE/oUk9c5RIa2M8665KAYnhOBcd5ghIdxGTuVzFVCMhGZfmVForWFFRhQd8OQx6BXi0+g/JzCwjiYH/WRIxemJmeRpNw7mJv9Fgz6Xiele1EX1GMkM9RkIrJzNc+4lpvB3+rJGCq+Qd2LeTsVfgxTK//MQdKfC22FPvWyctJK9eOUzGs3qlas2uh7TpQdUoiROTcUkOZuFEgvfGpTlOB5ny8q2u7zuTau3iLyOJ+REMh4+/0Dzsr+Fs9lGNzLDsZtQN9eYOwXjV11/A260HEti164w99+JWMtsq1XWfao1ndV2FWmTw1gERQ6HGZTmYjEtz8GjXkhzeNeTXki0li+78x70D9ApODbu2jNW0msDuWNXYHXpWSFb/O+9tTFEH504qbjY8EmYTR/axU5GZLd3Ckkf92X/Bzvyrz5Wej4MMHsYtgfCz8XuBn7vhqDWe1Q11aLWNm4RVTlAQ+V6yhQeWfjvWWo+lHiC4d8C7OJzAUNengcDwOJNe78J1A4HdhoDH7xc97AcuDxsE8/Uujh8rgV/hvz/1DLOvZSD+CBecw/dswrCdEPeoT/2Pz2/JzT19nsi7rPwz9/x/whM69Nrt41U4FGJ28Bl3Pu5rJlNPmnFpTik/J6i7AkrrHHSvxyin8nACQ31nUlsHm8sJrBNimJCPpmBgfUp3sauwFe2rusIKhn3My+PH+Kwmn7HEevKg2NJ9myP+0YZqB/50/GlwnP2Vf2RdbGOcyugtGe+NuviPkjHNeM+HEIxpzbrH7xInyFplGMdga8nWel7uZVaT963/XpuKlJOOMZ7SmKFcDp+lcQdDk4N/N+PYRTA5+A8Rf/TVyckn+H2l6/Hjx1+UKhJUpVxdnF5OYFgVjBrH46Ph9Sv3wFpJYFXfgrMx2VAycmOAf/0egmE3ft34rxmmc1LDe/4c7/HgX6L1+61fNCPRlYQ3/jOSoTG90fvzsp990z/MvuUbblSVaX5OdP2mT51N/K/LhdLEhBWtxj/USsTA9ZS3H0/f+MqycN/d3o0PN5k3Oaq1Y7qwNUOl4d+IjR9AbmO5J8xLqpe4pbs8Ka5xm1x51xA9MDw4gfGpfvzl5OBy2XXJ9v/Pv4RGIuKzlmbWGf8AjCSHskai43nX/6C2/gH8A39o85qEvdzjLplNw+u63vEE2EVPH5tTPOzohp5KhGmzmLvEK/zA3yXXSMLjwfUfO66jFhGhHLZZJWLgem6kzYdhqmHFvxNcR7dcjx+//0Urtm6OYVkR3g4ynJR4l8NsHMxIYq30xBrF3/hl3kpyqHmrx1WpLKuzhP/0wLu3qHDBC/wK8KacSocZYVaStZP+th3hOmXLx2mMONepkrJVQIAIqwIwPNmsG2kkMe6JoTwnsos88za+lv8Rr0NRjRSrPasfyFZ0CYmg6m8fuzmJsOwiBvJbSMyQ30hkhmS6bRMC6NU1+8jDOwjpaB0CRFgOYs2JzGq3iRf9sY0Bfz5Wxmd/+MAxl6OrTQQq90BtKqosPqXYbe3KuuhJbQSIsGpj1HQJHozLZ5D4zIoxtsg4bc6JDQ3j5Ib3RHCIwp2jsPlC0DtpTt9dddP+VU5jWk0fEVY1dFr0jBMNv/IBf2PxxrgiTmz4nJMb3lshOJTDw0h0+JmXjfd0WEPgmhJgF9x91oRJyhEEiLAcgbH5SoyEYrw3Ize0phLBcUuNRIdpRrLDz0aPDj/jgZ6d1QkFY/lGe9c1df//c7KH/TCwg92W27NkyohvLTSNP3Bcls+G88/dciXC6paWsmmnkSSM91xNJaLjz83+IMy++Fy+/GokxHIyLJc1fjYjSuPzavfGrjKXu8ZvHLwuBcNsMTzEDgX72CEH9fIdTqyotIOTGS5WyuhEGSKsTmyVDrDJjOQwzeoQc71rT82I0iocdgjVqk4uF4Mg1xWPn835guxldxii1mBE37Dmkcs1cnV6h5NGbOnUvERYndoy29QuM6K0CoVZXrtxWM+M339XcXJRLxGUxgNfS4vQmx8ycZchlLDx/iMCghAgBCoiQLFWFaFp+QOKems55FQgIUAI1IsAEVa9yFE+QoAQaDkCRFgth5wKJAQIgXoRIMKqFznKRwgQAi1HgAir5ZBTgYQAIVAvAkRY9SJH+QgBQqDlCBBhtRxyKpAQIATqRcBy4OiXA2/WW8a2y/dvbNa4m7C1WrdOqdMf9HBb2KxaR4t/yqJ1lgnLoj4SAwT+y7OfJBwIAUKgCQhQl7AJoJJKQoAQaA4Clvdk/PLff5UWTzWnDUgrIbDtEfjUR37bEheRh7XtvyoEACHQPQhYIqzvvP66r3uqRJYSAoRAtyFglWMsEdbTDz2U7jYAyF5CgBDoHgSscowlwuqeapOlhAAh0MsIEGH1cutS3QiBHkOACKvHGpSqQwj0MgJEWL3culQ3QqDHECDC6rEGpeoQAr2MABFWL7cu1Y0Q6DEEiLB6rEGpOoRALyNAhNXLrUt1IwR6DIH/D8Wrh3TMF39uAAAAAElFTkSuQmCC;clipPath=inset(2.5% 5% 0% 5%);imageBorder=default;strokeWidth=2;" parent="1" vertex="1">
          <mxGeometry x="1080" y="468.75" width="200" height="150" as="geometry" />
        </mxCell>
      </root>
    </mxGraphModel>
  </diagram>
</mxfile>
